<?xml version="1.0" encoding="utf-8"?>
<!-- Generator: Adobe Illustrator 14.0.0, SVG Export Plug-In . SVG Version: 6.00 Build 43363)  -->
<!DOCTYPE svg PUBLIC "-//W3C//DTD SVG 1.1//EN" "http://www.w3.org/Graphics/SVG/1.1/DTD/svg11.dtd">
<svg version="1.1" id="Ebene_1" xmlns="http://www.w3.org/2000/svg" xmlns:xlink="http://www.w3.org/1999/xlink" x="0px" y="0px"
	 width="755.752px" height="54.06px" viewBox="0 0 755.752 54.06" enable-background="new 0 0 755.752 54.06" xml:space="preserve">
<g>
	<path d="M6.343,12.972v-9H6.176c-0.398,0-0.672-0.047-0.821-0.141C5.206,3.737,5.131,3.573,5.131,3.339
		c0-0.211,0.06-0.369,0.18-0.475c0.12-0.105,0.294-0.158,0.522-0.158h1.335c0.158,0,0.281,0.032,0.369,0.097
		s0.132,0.152,0.132,0.264v3.981c0.427-0.398,0.85-0.693,1.269-0.883c0.418-0.19,0.854-0.286,1.304-0.286
		c0.884,0,1.58,0.275,2.086,0.826c0.506,0.551,0.76,1.312,0.76,2.285v3.981h0.416c0.295,0,0.507,0.048,0.637,0.145
		c0.129,0.097,0.194,0.25,0.194,0.461s-0.059,0.369-0.176,0.475c-0.118,0.105-0.294,0.158-0.528,0.158H11.29
		c-0.276,0-0.462-0.045-0.559-0.136c-0.097-0.091-0.145-0.256-0.145-0.497c0-0.234,0.061-0.394,0.182-0.479
		c0.121-0.085,0.349-0.127,0.686-0.127h0.31V9.315c0-0.686-0.155-1.208-0.466-1.569S10.533,7.206,9.94,7.206
		c-0.604,0-1.134,0.202-1.589,0.606C7.896,8.217,7.669,8.718,7.669,9.315v3.656h0.307c0.352,0,0.589,0.044,0.711,0.132
		c0.123,0.088,0.185,0.246,0.185,0.475c0,0.24-0.048,0.406-0.145,0.497s-0.282,0.136-0.558,0.136H5.833
		c-0.229,0-0.4-0.053-0.514-0.158c-0.114-0.105-0.171-0.264-0.171-0.475c0-0.234,0.069-0.394,0.207-0.479
		c0.137-0.085,0.405-0.127,0.804-0.127H6.343z"/>
	<path d="M22.838,6.582c0.287,0,0.496,0.05,0.628,0.149s0.198,0.258,0.198,0.475c0,0.205-0.062,0.359-0.185,0.461
		s-0.307,0.154-0.553,0.154h-3.558v2.936c0,0.961,0.125,1.594,0.374,1.898s0.675,0.457,1.278,0.457c0.533,0,1.171-0.155,1.915-0.466
		s1.203-0.466,1.379-0.466c0.164,0,0.303,0.059,0.417,0.176s0.171,0.261,0.171,0.431c0,0.193-0.072,0.362-0.215,0.505
		c-0.144,0.144-0.388,0.283-0.733,0.417c-0.574,0.229-1.091,0.396-1.55,0.501c-0.46,0.105-0.892,0.158-1.296,0.158
		c-0.685,0-1.26-0.11-1.726-0.33c-0.465-0.22-0.812-0.546-1.041-0.98c-0.117-0.205-0.201-0.448-0.25-0.729s-0.075-0.715-0.075-1.301
		v-0.272V7.821h-1.493c-0.246,0-0.425-0.048-0.536-0.145c-0.111-0.097-0.167-0.253-0.167-0.47c0-0.24,0.076-0.404,0.229-0.492
		c0.152-0.088,0.477-0.132,0.975-0.132h0.993V4.78V4.314c0-0.252,0.054-0.438,0.163-0.558s0.277-0.18,0.505-0.18
		c0.258,0,0.437,0.073,0.536,0.22c0.099,0.146,0.149,0.48,0.149,1.002v1.784H22.838z"/>
	<path d="M33.634,6.582c0.287,0,0.496,0.05,0.628,0.149s0.198,0.258,0.198,0.475c0,0.205-0.062,0.359-0.185,0.461
		s-0.307,0.154-0.553,0.154h-3.558v2.936c0,0.961,0.125,1.594,0.374,1.898s0.675,0.457,1.278,0.457c0.533,0,1.171-0.155,1.915-0.466
		s1.203-0.466,1.379-0.466c0.164,0,0.303,0.059,0.417,0.176s0.171,0.261,0.171,0.431c0,0.193-0.072,0.362-0.215,0.505
		c-0.144,0.144-0.388,0.283-0.733,0.417c-0.574,0.229-1.091,0.396-1.55,0.501c-0.46,0.105-0.892,0.158-1.296,0.158
		c-0.685,0-1.26-0.11-1.726-0.33c-0.465-0.22-0.812-0.546-1.041-0.98c-0.117-0.205-0.201-0.448-0.25-0.729s-0.075-0.715-0.075-1.301
		v-0.272V7.821h-1.493c-0.246,0-0.425-0.048-0.536-0.145c-0.111-0.097-0.167-0.253-0.167-0.47c0-0.24,0.076-0.404,0.229-0.492
		c0.152-0.088,0.477-0.132,0.975-0.132h0.993V4.78V4.314c0-0.252,0.054-0.438,0.163-0.558s0.277-0.18,0.505-0.18
		c0.258,0,0.437,0.073,0.536,0.22c0.099,0.146,0.149,0.48,0.149,1.002v1.784H33.634z"/>
	<path d="M39.765,16.461h2.108c0.223,0,0.39,0.053,0.501,0.158c0.111,0.105,0.167,0.264,0.167,0.475c0,0.229-0.054,0.39-0.162,0.483
		c-0.108,0.094-0.3,0.141-0.576,0.141h-3.874c-0.234,0-0.411-0.053-0.531-0.158s-0.18-0.261-0.18-0.466
		c0-0.234,0.075-0.398,0.224-0.492s0.426-0.141,0.83-0.141h0.167V7.338h-0.167c-0.404,0-0.681-0.047-0.83-0.141
		s-0.224-0.258-0.224-0.492c0-0.205,0.06-0.359,0.18-0.461s0.297-0.154,0.531-0.154h1.335c0.175,0,0.303,0.029,0.382,0.088
		s0.119,0.149,0.119,0.272v0.853c0.398-0.41,0.839-0.718,1.322-0.923c0.483-0.205,1.003-0.308,1.559-0.308
		c1.177,0,2.161,0.398,2.952,1.195s1.186,1.796,1.186,2.997c0,1.154-0.375,2.104-1.124,2.848c-0.75,0.744-1.707,1.116-2.873,1.116
		c-0.621,0-1.191-0.11-1.713-0.33c-0.521-0.22-0.957-0.535-1.309-0.945V16.461z M42.488,12.937c0.813,0,1.481-0.256,2.002-0.769
		c0.521-0.513,0.782-1.176,0.782-1.991c0-0.797-0.262-1.455-0.786-1.973s-1.19-0.778-1.998-0.778s-1.47,0.258-1.985,0.773
		s-0.773,1.175-0.773,1.978c0,0.809,0.256,1.471,0.769,1.986S41.673,12.937,42.488,12.937z"/>
	<path d="M48.996,13.578v-1.564c0-0.258,0.048-0.442,0.145-0.554s0.253-0.167,0.47-0.167c0.24,0,0.431,0.164,0.571,0.492
		c0.093,0.199,0.178,0.349,0.254,0.448c0.246,0.316,0.609,0.57,1.089,0.76c0.48,0.19,1.01,0.286,1.59,0.286
		c0.621,0,1.118-0.126,1.493-0.378c0.375-0.252,0.562-0.583,0.562-0.993c0-0.416-0.151-0.712-0.452-0.888
		c-0.302-0.176-0.818-0.264-1.55-0.264h-0.483c-1.194,0-2.105-0.208-2.731-0.624c-0.627-0.416-0.94-1.02-0.94-1.811
		c0-0.773,0.306-1.374,0.918-1.802s1.471-0.642,2.578-0.642c0.451,0,0.91,0.063,1.379,0.189c0.468,0.126,0.714,0.189,0.738,0.189
		c0.064,0,0.188-0.057,0.369-0.171c0.182-0.114,0.36-0.171,0.536-0.171c0.199,0,0.347,0.073,0.443,0.22S56.12,6.5,56.12,6.793v1.028
		c0,0.311-0.047,0.535-0.141,0.672S55.736,8.7,55.531,8.7c-0.176,0-0.393-0.149-0.65-0.448c-0.182-0.205-0.331-0.36-0.448-0.466
		c-0.311-0.287-0.641-0.494-0.993-0.62c-0.351-0.126-0.764-0.189-1.238-0.189c-0.55,0-0.994,0.122-1.331,0.365
		c-0.337,0.243-0.505,0.552-0.505,0.927c0,0.369,0.173,0.633,0.519,0.791c0.345,0.158,1.089,0.249,2.231,0.272
		c1.218,0.029,2.108,0.242,2.67,0.637c0.562,0.396,0.843,1.006,0.843,1.833c0,0.791-0.31,1.424-0.931,1.898
		c-0.621,0.475-1.458,0.712-2.512,0.712c-0.334,0-0.706-0.031-1.116-0.092s-0.925-0.166-1.546-0.312
		c-0.205,0.135-0.381,0.236-0.527,0.303c-0.146,0.067-0.27,0.101-0.369,0.101c-0.205,0-0.361-0.072-0.47-0.215
		S48.996,13.848,48.996,13.578z"/>
	<path d="M61.899,7.909c0-0.457,0.16-0.832,0.479-1.125c0.319-0.293,0.733-0.439,1.243-0.439c0.521,0,0.94,0.144,1.256,0.431
		c0.316,0.287,0.474,0.665,0.474,1.134s-0.16,0.847-0.479,1.134c-0.319,0.287-0.737,0.431-1.252,0.431s-0.931-0.144-1.247-0.431
		C62.057,8.756,61.899,8.378,61.899,7.909z M61.899,12.77c0-0.457,0.16-0.832,0.479-1.125c0.319-0.293,0.733-0.439,1.243-0.439
		c0.521,0,0.94,0.144,1.256,0.431c0.316,0.287,0.474,0.665,0.474,1.134s-0.16,0.847-0.479,1.134
		c-0.319,0.287-0.737,0.431-1.252,0.431s-0.931-0.144-1.247-0.431C62.057,13.616,61.899,13.238,61.899,12.77z"/>
	<path d="M72.439,14.448c-0.129,0.293-0.25,0.492-0.365,0.598s-0.25,0.158-0.408,0.158c-0.164,0-0.308-0.06-0.431-0.18
		s-0.185-0.265-0.185-0.435c0-0.047,0.009-0.101,0.026-0.163s0.041-0.127,0.07-0.198l5.481-11.821
		c0.146-0.305,0.275-0.511,0.387-0.62c0.111-0.108,0.246-0.163,0.404-0.163c0.176,0,0.325,0.059,0.448,0.176
		s0.185,0.258,0.185,0.422c0,0.047-0.008,0.1-0.022,0.158c-0.015,0.059-0.037,0.114-0.066,0.167L72.439,14.448z"/>
	<path d="M83.235,14.448c-0.129,0.293-0.25,0.492-0.365,0.598s-0.25,0.158-0.408,0.158c-0.164,0-0.308-0.06-0.431-0.18
		s-0.185-0.265-0.185-0.435c0-0.047,0.009-0.101,0.026-0.163s0.041-0.127,0.07-0.198l5.481-11.821
		c0.146-0.305,0.275-0.511,0.387-0.62c0.111-0.108,0.246-0.163,0.404-0.163c0.176,0,0.325,0.059,0.448,0.176
		s0.185,0.258,0.185,0.422c0,0.047-0.008,0.1-0.022,0.158c-0.015,0.059-0.037,0.114-0.066,0.167L83.235,14.448z"/>
	<path d="M100.617,10.159c0,1.254-0.427,2.279-1.282,3.076s-1.965,1.195-3.329,1.195c-1.358,0-2.465-0.398-3.32-1.195
		s-1.282-1.822-1.282-3.076s0.427-2.278,1.282-3.072s1.962-1.191,3.32-1.191s2.467,0.398,3.325,1.195S100.617,8.911,100.617,10.159z
		 M96.006,13.191c0.902,0,1.641-0.285,2.218-0.855c0.577-0.571,0.865-1.297,0.865-2.181c0-0.883-0.29-1.613-0.87-2.19
		c-0.58-0.576-1.317-0.864-2.213-0.864s-1.632,0.288-2.209,0.864c-0.577,0.577-0.865,1.307-0.865,2.19
		c0,0.889,0.287,1.618,0.861,2.186C94.366,12.908,95.104,13.191,96.006,13.191z"/>
	<path d="M104.535,16.461h2.108c0.223,0,0.39,0.053,0.501,0.158c0.111,0.105,0.167,0.264,0.167,0.475
		c0,0.229-0.054,0.39-0.162,0.483c-0.108,0.094-0.3,0.141-0.576,0.141h-3.874c-0.234,0-0.411-0.053-0.531-0.158
		s-0.18-0.261-0.18-0.466c0-0.234,0.075-0.398,0.224-0.492s0.426-0.141,0.83-0.141h0.167V7.338h-0.167
		c-0.404,0-0.681-0.047-0.83-0.141s-0.224-0.258-0.224-0.492c0-0.205,0.06-0.359,0.18-0.461s0.297-0.154,0.531-0.154h1.335
		c0.175,0,0.303,0.029,0.382,0.088s0.119,0.149,0.119,0.272v0.853c0.398-0.41,0.839-0.718,1.322-0.923
		c0.483-0.205,1.003-0.308,1.559-0.308c1.177,0,2.161,0.398,2.952,1.195s1.186,1.796,1.186,2.997c0,1.154-0.375,2.104-1.124,2.848
		c-0.75,0.744-1.707,1.116-2.873,1.116c-0.621,0-1.191-0.11-1.713-0.33c-0.521-0.22-0.957-0.535-1.309-0.945V16.461z
		 M107.258,12.937c0.813,0,1.481-0.256,2.002-0.769c0.521-0.513,0.782-1.176,0.782-1.991c0-0.797-0.262-1.455-0.786-1.973
		s-1.19-0.778-1.998-0.778s-1.47,0.258-1.985,0.773s-0.773,1.175-0.773,1.978c0,0.809,0.256,1.471,0.769,1.986
		S106.443,12.937,107.258,12.937z"/>
	<path d="M119.617,13.095c-0.48,0.434-1.003,0.765-1.568,0.993c-0.565,0.229-1.146,0.343-1.744,0.343
		c-0.873,0-1.577-0.243-2.113-0.729c-0.536-0.486-0.804-1.119-0.804-1.898c0-0.926,0.356-1.644,1.067-2.153s1.711-0.765,3-0.765
		c0.34,0,0.682,0.022,1.028,0.066c0.345,0.044,0.7,0.113,1.063,0.207V9.096c0-0.674-0.161-1.172-0.483-1.494
		c-0.322-0.322-0.823-0.483-1.502-0.483c-0.457,0-0.966,0.123-1.528,0.369s-0.934,0.369-1.115,0.369
		c-0.17,0-0.311-0.069-0.422-0.207s-0.167-0.315-0.167-0.532c0-0.346,0.324-0.639,0.971-0.879s1.474-0.36,2.481-0.36
		c1.03,0,1.81,0.262,2.336,0.787s0.791,1.299,0.791,2.325v3.981h0.43c0.416,0,0.694,0.044,0.834,0.132s0.211,0.246,0.211,0.475
		c0,0.211-0.059,0.369-0.176,0.475s-0.293,0.158-0.527,0.158h-1.379c-0.164,0-0.299-0.05-0.404-0.149s-0.176-0.243-0.211-0.431
		L119.617,13.095z M119.546,10.326c-0.322-0.105-0.634-0.183-0.936-0.233c-0.302-0.05-0.602-0.075-0.9-0.075
		c-0.902,0-1.613,0.152-2.134,0.457c-0.521,0.305-0.782,0.715-0.782,1.23c0,0.398,0.162,0.727,0.487,0.984s0.739,0.387,1.243,0.387
		c0.744,0,1.433-0.195,2.069-0.584c0.635-0.39,0.953-0.795,0.953-1.217V10.326z"/>
	<path d="M127.53,12.972h2.917c0.228,0,0.396,0.048,0.505,0.145s0.163,0.25,0.163,0.461c0,0.24-0.051,0.406-0.154,0.497
		s-0.292,0.136-0.566,0.136h-5.745c-0.229,0-0.401-0.053-0.518-0.158c-0.117-0.105-0.176-0.264-0.176-0.475
		c0-0.205,0.06-0.357,0.18-0.457c0.12-0.1,0.306-0.149,0.558-0.149h1.528V7.329h-0.597c-0.568,0-0.922-0.045-1.063-0.135
		s-0.211-0.254-0.211-0.493c0-0.204,0.057-0.356,0.171-0.458c0.114-0.102,0.289-0.153,0.522-0.153h2.003
		c0.158,0,0.278,0.031,0.36,0.092s0.123,0.151,0.123,0.268v1.494c0.556-0.697,1.136-1.216,1.739-1.556s1.253-0.51,1.95-0.51
		c0.521,0,0.942,0.105,1.265,0.314c0.322,0.21,0.483,0.48,0.483,0.812c0,0.215-0.081,0.407-0.241,0.574
		c-0.161,0.167-0.338,0.25-0.532,0.25c-0.135,0-0.361-0.089-0.681-0.268s-0.604-0.268-0.856-0.268c-0.457,0-0.938,0.163-1.445,0.489
		s-1.067,0.84-1.682,1.544V12.972z"/>
	<path d="M138.598,3.972h-1.493c-0.568,0-0.924-0.045-1.067-0.136s-0.215-0.256-0.215-0.497c0-0.211,0.06-0.369,0.18-0.475
		s0.294-0.158,0.523-0.158h2.898c0.158,0,0.281,0.032,0.369,0.097s0.132,0.152,0.132,0.264v9.905h2.758
		c0.222,0,0.385,0.048,0.487,0.145s0.154,0.25,0.154,0.461c0,0.24-0.05,0.406-0.149,0.497s-0.287,0.136-0.562,0.136h-6.482
		c-0.229,0-0.403-0.053-0.522-0.158c-0.12-0.105-0.18-0.264-0.18-0.475c0-0.205,0.062-0.357,0.185-0.457s0.307-0.149,0.553-0.149
		h2.433V3.972z"/>
	<path d="M148.259,12.77c0-0.457,0.16-0.832,0.479-1.125c0.319-0.293,0.733-0.439,1.243-0.439c0.521,0,0.94,0.144,1.256,0.431
		c0.316,0.287,0.474,0.665,0.474,1.134s-0.16,0.847-0.479,1.134c-0.319,0.287-0.737,0.431-1.252,0.431s-0.931-0.144-1.247-0.431
		C148.417,13.616,148.259,13.238,148.259,12.77z"/>
	<path d="M164.035,9.315c0-0.826-0.074-1.384-0.223-1.674s-0.404-0.435-0.766-0.435c-0.432,0-0.775,0.188-1.028,0.562
		c-0.254,0.375-0.381,0.891-0.381,1.547v3.656h0.157c0.354,0,0.591,0.042,0.71,0.127s0.179,0.245,0.179,0.479
		c0,0.211-0.05,0.369-0.149,0.475s-0.252,0.158-0.457,0.158h-1.115c-0.252,0-0.423-0.059-0.514-0.176
		c-0.091-0.117-0.136-0.369-0.136-0.756v-0.255V9.315V8.63c0-0.439-0.1-0.787-0.299-1.042s-0.471-0.382-0.817-0.382
		c-0.264,0-0.505,0.078-0.725,0.233s-0.408,0.385-0.566,0.69v4.843h0.323c0.349,0,0.584,0.044,0.706,0.132s0.183,0.246,0.183,0.475
		c0,0.24-0.05,0.406-0.149,0.497s-0.289,0.136-0.569,0.136h-2.331c-0.228,0-0.396-0.051-0.504-0.154
		c-0.108-0.103-0.162-0.262-0.162-0.479c0-0.234,0.068-0.394,0.205-0.479c0.136-0.085,0.402-0.127,0.797-0.127h0.174V7.329h-0.157
		c-0.407,0-0.685-0.046-0.833-0.14c-0.148-0.093-0.222-0.256-0.222-0.489c0-0.204,0.059-0.356,0.176-0.458
		c0.117-0.102,0.292-0.153,0.527-0.153h1.344c0.193,0,0.321,0.034,0.382,0.101s0.098,0.208,0.11,0.423
		c0.24-0.256,0.499-0.446,0.774-0.568c0.275-0.123,0.586-0.184,0.933-0.184c0.411,0,0.75,0.089,1.016,0.267
		c0.267,0.178,0.465,0.447,0.594,0.809c0.246-0.367,0.53-0.638,0.853-0.813s0.691-0.262,1.107-0.262
		c0.756,0,1.308,0.246,1.657,0.738s0.523,1.289,0.523,2.391v3.981h0.14c0.36,0,0.601,0.044,0.723,0.132s0.183,0.246,0.183,0.475
		c0,0.211-0.053,0.369-0.158,0.475s-0.261,0.158-0.465,0.158h-1.063c-0.234,0-0.407-0.07-0.518-0.211
		c-0.111-0.141-0.167-0.363-0.167-0.668V9.315z"/>
	<path d="M168.603,10.537c0.047,0.847,0.332,1.501,0.856,1.962c0.524,0.462,1.24,0.692,2.147,0.692c0.685,0,1.432-0.183,2.24-0.549
		s1.297-0.549,1.467-0.549c0.176,0,0.322,0.056,0.439,0.167s0.176,0.249,0.176,0.413c0,0.17-0.062,0.325-0.185,0.465
		s-0.319,0.277-0.588,0.411c-0.586,0.285-1.19,0.503-1.814,0.654s-1.243,0.227-1.858,0.227c-1.335,0-2.404-0.385-3.206-1.156
		s-1.203-1.792-1.203-3.063c0-1.295,0.424-2.344,1.273-3.146s1.956-1.204,3.32-1.204c1.235,0,2.26,0.375,3.074,1.125
		s1.221,1.658,1.221,2.725c0,0.328-0.069,0.548-0.207,0.659c-0.138,0.111-0.511,0.167-1.12,0.167h-0.132H168.603z M168.646,9.386
		h5.718c-0.088-0.697-0.379-1.258-0.874-1.683c-0.495-0.425-1.103-0.637-1.823-0.637c-0.779,0-1.435,0.205-1.967,0.615
		C169.167,8.091,168.816,8.659,168.646,9.386z"/>
	<path d="M183.183,12.972h2.82c0.228,0,0.396,0.048,0.505,0.145s0.163,0.25,0.163,0.461c0,0.24-0.051,0.406-0.154,0.497
		s-0.292,0.136-0.566,0.136h-6.808c-0.234,0-0.41-0.053-0.527-0.158s-0.176-0.264-0.176-0.475c0-0.205,0.062-0.357,0.185-0.457
		s0.308-0.149,0.553-0.149h2.679V7.329h-1.719c-0.241,0-0.424-0.054-0.551-0.161c-0.126-0.108-0.189-0.264-0.189-0.467
		s0.059-0.356,0.176-0.458c0.117-0.102,0.292-0.153,0.527-0.153h2.574c0.158,0,0.282,0.032,0.373,0.097s0.136,0.152,0.136,0.264
		V12.972z M181.558,3.559c0-0.633,0.057-1.031,0.171-1.195s0.358-0.246,0.733-0.246c0.363,0,0.603,0.069,0.72,0.207
		s0.176,0.464,0.176,0.98c0,0.504-0.054,0.816-0.163,0.936s-0.353,0.18-0.733,0.18c-0.375,0-0.619-0.056-0.733-0.167
		S181.558,3.91,181.558,3.559z"/>
	<path d="M189.894,12.972V7.338h-0.167c-0.398,0-0.672-0.047-0.821-0.141c-0.149-0.094-0.224-0.258-0.224-0.492
		c0-0.217,0.062-0.374,0.185-0.47c0.123-0.097,0.322-0.145,0.597-0.145h0.413h0.843c0.158,0,0.281,0.032,0.369,0.097
		s0.132,0.152,0.132,0.264v0.598c0.427-0.398,0.85-0.693,1.269-0.883c0.418-0.19,0.854-0.286,1.304-0.286
		c0.884,0,1.58,0.275,2.086,0.826c0.506,0.551,0.76,1.312,0.76,2.285v3.981h0.416c0.295,0,0.507,0.048,0.637,0.145
		c0.129,0.097,0.194,0.25,0.194,0.461c0,0.229-0.069,0.391-0.207,0.488c-0.138,0.097-0.383,0.145-0.735,0.145h-1.946
		c-0.376,0-0.616-0.044-0.722-0.132c-0.105-0.088-0.158-0.255-0.158-0.501c0-0.229,0.062-0.387,0.186-0.475
		c0.124-0.088,0.357-0.132,0.699-0.132h0.31V9.315c0-0.686-0.155-1.208-0.466-1.569s-0.763-0.541-1.355-0.541
		c-0.599,0-1.127,0.202-1.584,0.606c-0.458,0.404-0.687,0.905-0.687,1.503v3.656h0.307c0.352,0,0.588,0.044,0.711,0.132
		s0.185,0.246,0.185,0.475c0,0.246-0.053,0.413-0.158,0.501s-0.363,0.132-0.773,0.132h-1.599h-0.474c-0.24,0-0.42-0.051-0.54-0.154
		c-0.12-0.103-0.18-0.262-0.18-0.479c0-0.234,0.069-0.394,0.207-0.479c0.137-0.085,0.405-0.127,0.804-0.127H189.894z"/>
	<path d="M203.096,12.972h2.917c0.228,0,0.396,0.048,0.505,0.145s0.163,0.25,0.163,0.461c0,0.24-0.051,0.406-0.154,0.497
		s-0.292,0.136-0.566,0.136h-5.745c-0.229,0-0.401-0.053-0.518-0.158c-0.117-0.105-0.176-0.264-0.176-0.475
		c0-0.205,0.06-0.357,0.18-0.457c0.12-0.1,0.306-0.149,0.558-0.149h1.528V7.329h-0.597c-0.568,0-0.922-0.045-1.063-0.135
		s-0.211-0.254-0.211-0.493c0-0.204,0.057-0.356,0.171-0.458c0.114-0.102,0.289-0.153,0.522-0.153h2.003
		c0.158,0,0.278,0.031,0.36,0.092s0.123,0.151,0.123,0.268v1.494c0.556-0.697,1.136-1.216,1.739-1.556s1.253-0.51,1.95-0.51
		c0.521,0,0.942,0.105,1.265,0.314c0.322,0.21,0.483,0.48,0.483,0.812c0,0.215-0.081,0.407-0.241,0.574
		c-0.161,0.167-0.338,0.25-0.532,0.25c-0.135,0-0.361-0.089-0.681-0.268s-0.604-0.268-0.856-0.268c-0.457,0-0.938,0.163-1.445,0.489
		s-1.067,0.84-1.682,1.544V12.972z"/>
	<path d="M215.568,12.972h2.82c0.228,0,0.396,0.048,0.505,0.145s0.163,0.25,0.163,0.461c0,0.24-0.051,0.406-0.154,0.497
		s-0.292,0.136-0.566,0.136h-6.808c-0.234,0-0.41-0.053-0.527-0.158s-0.176-0.264-0.176-0.475c0-0.205,0.062-0.357,0.185-0.457
		s0.308-0.149,0.553-0.149h2.679V7.329h-1.719c-0.241,0-0.424-0.054-0.551-0.161c-0.126-0.108-0.189-0.264-0.189-0.467
		s0.059-0.356,0.176-0.458c0.117-0.102,0.292-0.153,0.527-0.153h2.574c0.158,0,0.282,0.032,0.373,0.097s0.136,0.152,0.136,0.264
		V12.972z M213.943,3.559c0-0.633,0.057-1.031,0.171-1.195s0.358-0.246,0.733-0.246c0.363,0,0.603,0.069,0.72,0.207
		s0.176,0.464,0.176,0.98c0,0.504-0.054,0.816-0.163,0.936s-0.353,0.18-0.733,0.18c-0.375,0-0.619-0.056-0.733-0.167
		S213.943,3.91,213.943,3.559z"/>
	<path d="M221.717,13.578v-1.564c0-0.258,0.048-0.442,0.145-0.554s0.253-0.167,0.47-0.167c0.24,0,0.431,0.164,0.571,0.492
		c0.093,0.199,0.178,0.349,0.254,0.448c0.246,0.316,0.609,0.57,1.089,0.76c0.48,0.19,1.01,0.286,1.59,0.286
		c0.621,0,1.118-0.126,1.493-0.378c0.375-0.252,0.562-0.583,0.562-0.993c0-0.416-0.151-0.712-0.452-0.888
		c-0.302-0.176-0.818-0.264-1.55-0.264h-0.483c-1.194,0-2.105-0.208-2.731-0.624c-0.627-0.416-0.94-1.02-0.94-1.811
		c0-0.773,0.306-1.374,0.918-1.802s1.471-0.642,2.578-0.642c0.451,0,0.91,0.063,1.379,0.189c0.468,0.126,0.714,0.189,0.738,0.189
		c0.064,0,0.188-0.057,0.369-0.171c0.182-0.114,0.36-0.171,0.536-0.171c0.199,0,0.347,0.073,0.443,0.22s0.145,0.366,0.145,0.659
		v1.028c0,0.311-0.047,0.535-0.141,0.672S228.457,8.7,228.252,8.7c-0.176,0-0.393-0.149-0.65-0.448
		c-0.182-0.205-0.331-0.36-0.448-0.466c-0.311-0.287-0.641-0.494-0.993-0.62c-0.351-0.126-0.764-0.189-1.238-0.189
		c-0.55,0-0.994,0.122-1.331,0.365c-0.337,0.243-0.505,0.552-0.505,0.927c0,0.369,0.173,0.633,0.519,0.791
		c0.345,0.158,1.089,0.249,2.231,0.272c1.218,0.029,2.108,0.242,2.67,0.637c0.562,0.396,0.843,1.006,0.843,1.833
		c0,0.791-0.31,1.424-0.931,1.898c-0.621,0.475-1.458,0.712-2.512,0.712c-0.334,0-0.706-0.031-1.116-0.092s-0.925-0.166-1.546-0.312
		c-0.205,0.135-0.381,0.236-0.527,0.303c-0.146,0.067-0.27,0.101-0.369,0.101c-0.205,0-0.361-0.072-0.47-0.215
		S221.717,13.848,221.717,13.578z"/>
	<path d="M234.62,12.77c0-0.457,0.16-0.832,0.479-1.125c0.319-0.293,0.733-0.439,1.243-0.439c0.521,0,0.94,0.144,1.256,0.431
		c0.316,0.287,0.474,0.665,0.474,1.134s-0.16,0.847-0.479,1.134c-0.319,0.287-0.737,0.431-1.252,0.431s-0.931-0.144-1.247-0.431
		C234.778,13.616,234.62,13.238,234.62,12.77z"/>
	<path d="M249.78,14.211c-0.123,0-0.209-0.031-0.259-0.092s-0.075-0.18-0.075-0.356v-0.721c-0.351,0.439-0.791,0.781-1.317,1.024
		s-1.098,0.365-1.713,0.365c-1.107,0-2.033-0.394-2.78-1.182s-1.12-1.768-1.12-2.94c0-1.213,0.398-2.222,1.194-3.028
		s1.789-1.208,2.978-1.208c0.603,0,1.145,0.107,1.625,0.321c0.48,0.214,0.893,0.529,1.238,0.945V3.972h-0.465
		c-0.51,0-0.839-0.045-0.988-0.136s-0.224-0.256-0.224-0.497c0-0.211,0.06-0.369,0.18-0.475s0.294-0.158,0.522-0.158h1.801
		c0.176,0,0.303,0.029,0.382,0.088c0.079,0.059,0.118,0.149,0.118,0.272v9.905h0.396c0.287,0,0.495,0.048,0.624,0.145
		s0.193,0.25,0.193,0.461c0,0.199-0.056,0.354-0.167,0.466s-0.261,0.167-0.448,0.167H249.78z M244.027,10.265
		c0,0.809,0.261,1.471,0.782,1.986s1.183,0.773,1.985,0.773c0.808,0,1.473-0.268,1.994-0.804s0.782-1.217,0.782-2.043
		c0-0.814-0.259-1.485-0.777-2.013s-1.185-0.791-1.998-0.791c-0.826,0-1.494,0.267-2.003,0.8S244.027,9.403,244.027,10.265z"/>
	<path d="M254.963,10.537c0.047,0.847,0.332,1.501,0.856,1.962c0.524,0.462,1.24,0.692,2.147,0.692c0.685,0,1.432-0.183,2.24-0.549
		s1.297-0.549,1.467-0.549c0.176,0,0.322,0.056,0.439,0.167s0.176,0.249,0.176,0.413c0,0.17-0.062,0.325-0.185,0.465
		s-0.319,0.277-0.588,0.411c-0.586,0.285-1.19,0.503-1.814,0.654s-1.243,0.227-1.858,0.227c-1.335,0-2.404-0.385-3.206-1.156
		s-1.203-1.792-1.203-3.063c0-1.295,0.424-2.344,1.273-3.146s1.956-1.204,3.32-1.204c1.235,0,2.26,0.375,3.074,1.125
		s1.221,1.658,1.221,2.725c0,0.328-0.069,0.548-0.207,0.659c-0.138,0.111-0.511,0.167-1.12,0.167h-0.132H254.963z M255.007,9.386
		h5.718c-0.088-0.697-0.379-1.258-0.874-1.683c-0.495-0.425-1.103-0.637-1.823-0.637c-0.779,0-1.435,0.205-1.967,0.615
		C255.528,8.091,255.177,8.659,255.007,9.386z"/>
	<path d="M266.75,14.448c-0.129,0.293-0.25,0.492-0.365,0.598s-0.25,0.158-0.408,0.158c-0.164,0-0.308-0.06-0.431-0.18
		s-0.185-0.265-0.185-0.435c0-0.047,0.009-0.101,0.026-0.163s0.041-0.127,0.07-0.198l5.481-11.821
		c0.146-0.305,0.275-0.511,0.387-0.62c0.111-0.108,0.246-0.163,0.404-0.163c0.176,0,0.325,0.059,0.448,0.176
		s0.185,0.258,0.185,0.422c0,0.047-0.008,0.1-0.022,0.158c-0.015,0.059-0.037,0.114-0.066,0.167L266.75,14.448z"/>
	<path d="M277.255,7.355c0.328-0.41,0.738-0.724,1.229-0.94c0.492-0.217,1.048-0.325,1.669-0.325c1.177,0,2.158,0.397,2.943,1.191
		c0.784,0.794,1.177,1.777,1.177,2.949c0,1.154-0.403,2.133-1.208,2.936c-0.805,0.803-1.788,1.204-2.947,1.204
		c-0.615,0-1.15-0.108-1.607-0.325c-0.457-0.217-0.832-0.545-1.124-0.984v0.703c0,0.158-0.028,0.272-0.083,0.343
		s-0.148,0.105-0.277,0.105h-1.607c-0.228,0-0.398-0.053-0.509-0.158s-0.167-0.264-0.167-0.475c0-0.234,0.067-0.394,0.202-0.479
		s0.401-0.127,0.799-0.127h0.185v-9h-0.167c-0.398,0-0.67-0.047-0.817-0.141s-0.22-0.258-0.22-0.492
		c0-0.211,0.059-0.369,0.176-0.475s0.29-0.158,0.518-0.158h1.335c0.175,0,0.303,0.029,0.382,0.088s0.119,0.149,0.119,0.272V7.355z
		 M279.996,12.989c0.825,0,1.496-0.261,2.011-0.782s0.773-1.198,0.773-2.03c0-0.814-0.262-1.485-0.786-2.013
		s-1.19-0.791-1.998-0.791c-0.814,0-1.48,0.262-1.999,0.787s-0.777,1.197-0.777,2.017s0.259,1.494,0.777,2.021
		S279.182,12.989,279.996,12.989z"/>
	<path d="M294.928,10.159c0,1.254-0.427,2.279-1.282,3.076s-1.965,1.195-3.329,1.195c-1.358,0-2.465-0.398-3.32-1.195
		s-1.282-1.822-1.282-3.076s0.427-2.278,1.282-3.072s1.962-1.191,3.32-1.191s2.467,0.398,3.325,1.195S294.928,8.911,294.928,10.159z
		 M290.317,13.191c0.902,0,1.641-0.285,2.218-0.855c0.577-0.571,0.865-1.297,0.865-2.181c0-0.883-0.29-1.613-0.87-2.19
		c-0.58-0.576-1.317-0.864-2.213-0.864s-1.632,0.288-2.209,0.864c-0.577,0.577-0.865,1.307-0.865,2.19
		c0,0.889,0.287,1.618,0.861,2.186C288.677,12.908,289.415,13.191,290.317,13.191z"/>
	<path d="M303.756,14.211c-0.123,0-0.209-0.031-0.259-0.092s-0.075-0.18-0.075-0.356v-0.721c-0.351,0.439-0.791,0.781-1.317,1.024
		s-1.098,0.365-1.713,0.365c-1.107,0-2.033-0.394-2.78-1.182s-1.12-1.768-1.12-2.94c0-1.213,0.398-2.222,1.194-3.028
		s1.789-1.208,2.978-1.208c0.603,0,1.145,0.107,1.625,0.321c0.48,0.214,0.893,0.529,1.238,0.945V3.972h-0.465
		c-0.51,0-0.839-0.045-0.988-0.136s-0.224-0.256-0.224-0.497c0-0.211,0.06-0.369,0.18-0.475s0.294-0.158,0.522-0.158h1.801
		c0.176,0,0.303,0.029,0.382,0.088c0.079,0.059,0.118,0.149,0.118,0.272v9.905h0.396c0.287,0,0.495,0.048,0.624,0.145
		s0.193,0.25,0.193,0.461c0,0.199-0.056,0.354-0.167,0.466s-0.261,0.167-0.448,0.167H303.756z M298.002,10.265
		c0,0.809,0.261,1.471,0.782,1.986s1.183,0.773,1.985,0.773c0.808,0,1.473-0.268,1.994-0.804s0.782-1.217,0.782-2.043
		c0-0.814-0.259-1.485-0.777-2.013s-1.185-0.791-1.998-0.791c-0.826,0-1.494,0.267-2.003,0.8S298.002,9.403,298.002,10.265z"/>
	<path d="M311.248,16.461h0.377c0.428,0,0.717,0.045,0.87,0.136s0.229,0.256,0.229,0.497c0,0.205-0.06,0.36-0.18,0.466
		s-0.294,0.158-0.522,0.158h-4.049c-0.275,0-0.467-0.047-0.575-0.141s-0.163-0.255-0.163-0.483c0-0.211,0.057-0.369,0.171-0.475
		s0.286-0.158,0.514-0.158h1.906l1.423-2.807l-3.224-6.325c-0.386,0-0.651-0.046-0.795-0.14s-0.215-0.256-0.215-0.489
		c0-0.204,0.059-0.356,0.176-0.458c0.117-0.102,0.293-0.153,0.527-0.153h2.451c0.328,0,0.548,0.045,0.659,0.135
		c0.111,0.09,0.167,0.249,0.167,0.476c0,0.233-0.073,0.396-0.219,0.489c-0.146,0.093-0.416,0.14-0.808,0.14h-0.325l2.38,4.852
		l2.424-4.852h-0.343c-0.404,0-0.682-0.046-0.834-0.14s-0.228-0.256-0.228-0.489c0-0.227,0.056-0.385,0.167-0.476
		c0.111-0.09,0.334-0.135,0.668-0.135h2.169c0.24,0,0.417,0.051,0.531,0.153c0.114,0.102,0.171,0.254,0.171,0.458
		c0,0.221-0.064,0.378-0.193,0.471c-0.129,0.093-0.357,0.146-0.685,0.157L311.248,16.461z"/>
	<path d="M320.726,14.448c-0.129,0.293-0.25,0.492-0.365,0.598s-0.25,0.158-0.408,0.158c-0.164,0-0.308-0.06-0.431-0.18
		s-0.185-0.265-0.185-0.435c0-0.047,0.009-0.101,0.026-0.163s0.041-0.127,0.07-0.198l5.481-11.821
		c0.146-0.305,0.275-0.511,0.387-0.62c0.111-0.108,0.246-0.163,0.404-0.163c0.176,0,0.325,0.059,0.448,0.176
		s0.185,0.258,0.185,0.422c0,0.047-0.008,0.1-0.022,0.158c-0.015,0.059-0.037,0.114-0.066,0.167L320.726,14.448z"/>
	<path d="M331.397,4.78c-0.076,0.012-0.133,0.021-0.171,0.026s-0.072,0.009-0.101,0.009c-0.182,0-0.329-0.051-0.443-0.154
		s-0.171-0.239-0.171-0.409c0-0.141,0.05-0.264,0.149-0.369s0.243-0.185,0.43-0.237l2.609-0.703c0.064-0.018,0.127-0.031,0.189-0.04
		s0.124-0.013,0.188-0.013c0.111,0,0.199,0.051,0.264,0.154s0.097,0.242,0.097,0.417v9.51h1.405c0.521,0,0.852,0.042,0.993,0.127
		s0.211,0.245,0.211,0.479c0,0.211-0.059,0.369-0.176,0.475s-0.293,0.158-0.527,0.158h-5.253c-0.234,0-0.41-0.053-0.527-0.158
		s-0.176-0.264-0.176-0.475c0-0.234,0.07-0.394,0.211-0.479s0.471-0.127,0.993-0.127h1.458V4.385L331.397,4.78z"/>
	<path d="M342.316,14.448c-0.129,0.293-0.25,0.492-0.365,0.598s-0.25,0.158-0.408,0.158c-0.164,0-0.308-0.06-0.431-0.18
		s-0.185-0.265-0.185-0.435c0-0.047,0.009-0.101,0.026-0.163s0.041-0.127,0.07-0.198l5.481-11.821
		c0.146-0.305,0.275-0.511,0.387-0.62c0.111-0.108,0.246-0.163,0.404-0.163c0.176,0,0.325,0.059,0.448,0.176
		s0.185,0.258,0.185,0.422c0,0.047-0.008,0.1-0.022,0.158c-0.015,0.059-0.037,0.114-0.066,0.167L342.316,14.448z"/>
	<path d="M352.82,16.461h2.108c0.222,0,0.389,0.053,0.5,0.158s0.167,0.264,0.167,0.475c0,0.229-0.054,0.39-0.162,0.483
		s-0.301,0.141-0.575,0.141h-3.874c-0.234,0-0.411-0.053-0.531-0.158s-0.18-0.261-0.18-0.466c0-0.234,0.074-0.398,0.224-0.492
		s0.426-0.141,0.83-0.141h0.167V7.338h-0.167c-0.404,0-0.681-0.047-0.83-0.141s-0.224-0.258-0.224-0.492
		c0-0.205,0.06-0.359,0.18-0.461s0.297-0.154,0.531-0.154h1.335c0.176,0,0.304,0.029,0.383,0.088s0.118,0.149,0.118,0.272v0.853
		c0.398-0.41,0.839-0.718,1.322-0.923c0.482-0.205,1.002-0.308,1.559-0.308c1.177,0,2.161,0.398,2.951,1.195
		c0.791,0.797,1.187,1.796,1.187,2.997c0,1.154-0.375,2.104-1.125,2.848c-0.749,0.744-1.707,1.116-2.872,1.116
		c-0.621,0-1.191-0.11-1.713-0.33s-0.957-0.535-1.309-0.945V16.461z M355.543,12.937c0.814,0,1.481-0.256,2.003-0.769
		s0.782-1.176,0.782-1.991c0-0.797-0.263-1.455-0.786-1.973c-0.524-0.519-1.19-0.778-1.999-0.778c-0.808,0-1.47,0.258-1.984,0.773
		c-0.516,0.516-0.773,1.175-0.773,1.978c0,0.809,0.256,1.471,0.769,1.986S354.729,12.937,355.543,12.937z"/>
	<path d="M362.913,10.537c0.047,0.847,0.333,1.501,0.856,1.962c0.524,0.462,1.24,0.692,2.148,0.692c0.685,0,1.432-0.183,2.239-0.549
		c0.809-0.366,1.297-0.549,1.467-0.549c0.176,0,0.322,0.056,0.439,0.167s0.176,0.249,0.176,0.413c0,0.17-0.062,0.325-0.185,0.465
		s-0.319,0.277-0.589,0.411c-0.585,0.285-1.189,0.503-1.813,0.654s-1.243,0.227-1.857,0.227c-1.336,0-2.404-0.385-3.206-1.156
		c-0.803-0.771-1.204-1.792-1.204-3.063c0-1.295,0.425-2.344,1.274-3.146c0.849-0.803,1.955-1.204,3.32-1.204
		c1.235,0,2.26,0.375,3.074,1.125c0.813,0.75,1.221,1.658,1.221,2.725c0,0.328-0.069,0.548-0.207,0.659s-0.511,0.167-1.119,0.167
		h-0.132H362.913z M362.957,9.386h5.719c-0.088-0.697-0.38-1.258-0.874-1.683c-0.495-0.425-1.103-0.637-1.822-0.637
		c-0.779,0-1.436,0.205-1.968,0.615C363.479,8.091,363.127,8.659,362.957,9.386z"/>
	<path d="M375.816,12.972h2.916c0.229,0,0.396,0.048,0.505,0.145s0.163,0.25,0.163,0.461c0,0.24-0.052,0.406-0.154,0.497
		s-0.291,0.136-0.566,0.136h-5.744c-0.229,0-0.401-0.053-0.519-0.158s-0.176-0.264-0.176-0.475c0-0.205,0.061-0.357,0.181-0.457
		s0.306-0.149,0.558-0.149h1.528V7.329h-0.598c-0.567,0-0.922-0.045-1.062-0.135s-0.211-0.254-0.211-0.493
		c0-0.204,0.058-0.356,0.172-0.458c0.113-0.102,0.288-0.153,0.522-0.153h2.002c0.158,0,0.278,0.031,0.36,0.092
		s0.123,0.151,0.123,0.268v1.494c0.557-0.697,1.136-1.216,1.739-1.556s1.253-0.51,1.95-0.51c0.521,0,0.942,0.105,1.265,0.314
		c0.322,0.21,0.483,0.48,0.483,0.812c0,0.215-0.081,0.407-0.242,0.574s-0.338,0.25-0.531,0.25c-0.135,0-0.361-0.089-0.681-0.268
		s-0.604-0.268-0.856-0.268c-0.457,0-0.938,0.163-1.444,0.489c-0.507,0.326-1.067,0.84-1.683,1.544V12.972z"/>
	<path d="M383.643,13.578v-1.564c0-0.258,0.048-0.442,0.145-0.554s0.254-0.167,0.471-0.167c0.239,0,0.43,0.164,0.57,0.492
		c0.094,0.199,0.179,0.349,0.255,0.448c0.246,0.316,0.609,0.57,1.089,0.76c0.48,0.19,1.011,0.286,1.59,0.286
		c0.621,0,1.119-0.126,1.493-0.378c0.375-0.252,0.562-0.583,0.562-0.993c0-0.416-0.15-0.712-0.452-0.888s-0.818-0.264-1.551-0.264
		h-0.482c-1.195,0-2.105-0.208-2.732-0.624c-0.626-0.416-0.939-1.02-0.939-1.811c0-0.773,0.306-1.374,0.918-1.802
		c0.611-0.428,1.471-0.642,2.578-0.642c0.45,0,0.91,0.063,1.379,0.189s0.714,0.189,0.737,0.189c0.064,0,0.188-0.057,0.369-0.171
		s0.36-0.171,0.536-0.171c0.199,0,0.347,0.073,0.443,0.22s0.145,0.366,0.145,0.659v1.028c0,0.311-0.047,0.535-0.14,0.672
		c-0.094,0.138-0.243,0.207-0.448,0.207c-0.176,0-0.393-0.149-0.65-0.448c-0.182-0.205-0.331-0.36-0.447-0.466
		c-0.311-0.287-0.642-0.494-0.993-0.62s-0.764-0.189-1.238-0.189c-0.551,0-0.994,0.122-1.331,0.365s-0.505,0.552-0.505,0.927
		c0,0.369,0.173,0.633,0.519,0.791s1.089,0.249,2.23,0.272c1.219,0.029,2.108,0.242,2.671,0.637
		c0.562,0.396,0.843,1.006,0.843,1.833c0,0.791-0.311,1.424-0.931,1.898c-0.621,0.475-1.458,0.712-2.513,0.712
		c-0.333,0-0.705-0.031-1.115-0.092s-0.925-0.166-1.546-0.312c-0.205,0.135-0.381,0.236-0.527,0.303s-0.27,0.101-0.368,0.101
		c-0.205,0-0.362-0.072-0.471-0.215S383.643,13.848,383.643,13.578z"/>
	<path d="M402.879,10.159c0,1.254-0.428,2.279-1.283,3.076c-0.854,0.797-1.964,1.195-3.328,1.195c-1.359,0-2.466-0.398-3.32-1.195
		c-0.855-0.797-1.283-1.822-1.283-3.076s0.428-2.278,1.283-3.072c0.854-0.794,1.961-1.191,3.32-1.191
		c1.358,0,2.466,0.398,3.324,1.195C402.449,7.889,402.879,8.911,402.879,10.159z M398.268,13.191c0.901,0,1.641-0.285,2.218-0.855
		c0.576-0.571,0.865-1.297,0.865-2.181c0-0.883-0.29-1.613-0.87-2.19c-0.579-0.576-1.317-0.864-2.213-0.864
		c-0.896,0-1.633,0.288-2.21,0.864c-0.576,0.577-0.864,1.307-0.864,2.19c0,0.889,0.286,1.618,0.86,2.186
		C396.628,12.908,397.365,13.191,398.268,13.191z"/>
	<path d="M405.795,12.972V7.338h-0.167c-0.398,0-0.672-0.047-0.821-0.141s-0.225-0.258-0.225-0.492c0-0.217,0.062-0.374,0.185-0.47
		s0.322-0.145,0.598-0.145h0.413h0.843c0.158,0,0.281,0.032,0.369,0.097s0.132,0.152,0.132,0.264v0.598
		c0.427-0.398,0.851-0.693,1.269-0.883c0.419-0.19,0.854-0.286,1.305-0.286c0.885,0,1.58,0.275,2.086,0.826
		c0.507,0.551,0.76,1.312,0.76,2.285v3.981h0.416c0.295,0,0.507,0.048,0.637,0.145s0.195,0.25,0.195,0.461
		c0,0.229-0.069,0.391-0.207,0.488c-0.139,0.097-0.383,0.145-0.735,0.145H410.9c-0.376,0-0.617-0.044-0.723-0.132
		s-0.158-0.255-0.158-0.501c0-0.229,0.062-0.387,0.186-0.475s0.357-0.132,0.699-0.132h0.31V9.315c0-0.686-0.155-1.208-0.467-1.569
		c-0.311-0.36-0.763-0.541-1.355-0.541c-0.599,0-1.127,0.202-1.584,0.606c-0.458,0.404-0.687,0.905-0.687,1.503v3.656h0.308
		c0.351,0,0.588,0.044,0.711,0.132s0.185,0.246,0.185,0.475c0,0.246-0.053,0.413-0.158,0.501s-0.363,0.132-0.772,0.132h-1.599
		h-0.475c-0.24,0-0.42-0.051-0.54-0.154s-0.181-0.262-0.181-0.479c0-0.234,0.069-0.394,0.207-0.479s0.405-0.127,0.804-0.127H405.795
		z"/>
	<path d="M417.881,14.448c-0.129,0.293-0.251,0.492-0.364,0.598c-0.114,0.105-0.251,0.158-0.409,0.158
		c-0.164,0-0.307-0.06-0.43-0.18s-0.185-0.265-0.185-0.435c0-0.047,0.009-0.101,0.026-0.163s0.041-0.127,0.07-0.198l5.48-11.821
		c0.146-0.305,0.275-0.511,0.387-0.62s0.246-0.163,0.404-0.163c0.176,0,0.324,0.059,0.447,0.176s0.185,0.258,0.185,0.422
		c0,0.047-0.007,0.1-0.021,0.158s-0.037,0.114-0.066,0.167L417.881,14.448z"/>
	<path d="M429.448,9.676c0-0.316,0.055-0.565,0.163-0.747s0.294-0.34,0.558-0.475c0.158-0.082,0.393-0.196,0.702-0.343
		c1.154-0.533,1.73-1.157,1.73-1.872c0-0.539-0.19-0.977-0.57-1.314c-0.381-0.337-0.882-0.505-1.502-0.505
		c-0.41,0-0.788,0.054-1.134,0.163s-0.556,0.227-0.632,0.356c-0.018,0.035-0.035,0.12-0.053,0.255
		c-0.047,0.527-0.255,0.791-0.624,0.791c-0.193,0-0.347-0.07-0.461-0.211s-0.171-0.328-0.171-0.562V4.35
		c0-0.322,0.315-0.595,0.948-0.817s1.402-0.334,2.311-0.334c0.978,0,1.772,0.284,2.385,0.853c0.611,0.568,0.917,1.304,0.917,2.206
		c0,0.721-0.248,1.329-0.744,1.824s-1.329,0.959-2.497,1.393v0.703c0,0.193-0.062,0.35-0.186,0.47
		c-0.123,0.12-0.285,0.18-0.486,0.18c-0.206,0-0.366-0.056-0.481-0.167s-0.173-0.267-0.173-0.466V9.676z M428.482,13.007
		c0-0.387,0.147-0.703,0.443-0.949s0.687-0.369,1.173-0.369c0.492,0,0.887,0.122,1.186,0.365s0.448,0.561,0.448,0.954
		s-0.151,0.712-0.452,0.958c-0.302,0.246-0.695,0.369-1.182,0.369c-0.48,0-0.87-0.125-1.168-0.374
		C428.632,13.711,428.482,13.394,428.482,13.007z"/>
	<path d="M444.092,6.617V6.582c0-0.193,0.056-0.335,0.167-0.426s0.284-0.136,0.518-0.136c0.24,0,0.406,0.07,0.497,0.211
		s0.136,0.431,0.136,0.87v1.635c0,0.217-0.056,0.379-0.167,0.488s-0.278,0.163-0.501,0.163c-0.157,0-0.294-0.045-0.408-0.136
		s-0.253-0.28-0.417-0.567c-0.281-0.475-0.622-0.833-1.023-1.077s-0.862-0.365-1.383-0.365c-0.914,0-1.656,0.27-2.228,0.809
		c-0.57,0.539-0.856,1.236-0.856,2.092c0,0.873,0.274,1.586,0.821,2.14c0.548,0.554,1.252,0.831,2.113,0.831
		c0.392,0,0.766-0.054,1.119-0.163c0.354-0.108,0.689-0.271,1.006-0.488c0.111-0.07,0.261-0.179,0.448-0.325
		c0.381-0.311,0.68-0.466,0.896-0.466c0.182,0,0.33,0.057,0.444,0.171s0.171,0.262,0.171,0.444c0,0.463-0.438,0.936-1.313,1.419
		c-0.875,0.483-1.805,0.725-2.788,0.725c-1.271,0-2.329-0.407-3.176-1.222c-0.846-0.814-1.27-1.831-1.27-3.05
		s0.422-2.237,1.266-3.054c0.843-0.817,1.896-1.226,3.162-1.226c0.444,0,0.892,0.06,1.339,0.18
		C443.112,6.179,443.588,6.365,444.092,6.617z"/>
	<path d="M451.382,12.972h2.916c0.229,0,0.396,0.048,0.505,0.145s0.163,0.25,0.163,0.461c0,0.24-0.052,0.406-0.154,0.497
		s-0.291,0.136-0.566,0.136h-5.744c-0.229,0-0.401-0.053-0.519-0.158s-0.176-0.264-0.176-0.475c0-0.205,0.061-0.357,0.181-0.457
		s0.306-0.149,0.558-0.149h1.528V7.329h-0.598c-0.567,0-0.922-0.045-1.062-0.135s-0.211-0.254-0.211-0.493
		c0-0.204,0.058-0.356,0.172-0.458c0.113-0.102,0.288-0.153,0.522-0.153h2.002c0.158,0,0.278,0.031,0.36,0.092
		s0.123,0.151,0.123,0.268v1.494c0.557-0.697,1.136-1.216,1.739-1.556s1.253-0.51,1.95-0.51c0.521,0,0.942,0.105,1.265,0.314
		c0.322,0.21,0.483,0.48,0.483,0.812c0,0.215-0.081,0.407-0.242,0.574s-0.338,0.25-0.531,0.25c-0.135,0-0.361-0.089-0.681-0.268
		s-0.604-0.268-0.856-0.268c-0.457,0-0.938,0.163-1.444,0.489c-0.507,0.326-1.067,0.84-1.683,1.544V12.972z"/>
	<path d="M460.068,10.537c0.047,0.847,0.333,1.501,0.856,1.962c0.524,0.462,1.24,0.692,2.148,0.692c0.685,0,1.432-0.183,2.239-0.549
		c0.809-0.366,1.297-0.549,1.467-0.549c0.176,0,0.322,0.056,0.439,0.167s0.176,0.249,0.176,0.413c0,0.17-0.062,0.325-0.185,0.465
		s-0.319,0.277-0.589,0.411c-0.585,0.285-1.189,0.503-1.813,0.654s-1.243,0.227-1.857,0.227c-1.336,0-2.404-0.385-3.206-1.156
		c-0.803-0.771-1.204-1.792-1.204-3.063c0-1.295,0.425-2.344,1.274-3.146c0.849-0.803,1.955-1.204,3.32-1.204
		c1.235,0,2.26,0.375,3.074,1.125c0.813,0.75,1.221,1.658,1.221,2.725c0,0.328-0.069,0.548-0.207,0.659s-0.511,0.167-1.119,0.167
		h-0.132H460.068z M460.112,9.386h5.719c-0.088-0.697-0.38-1.258-0.874-1.683c-0.495-0.425-1.103-0.637-1.822-0.637
		c-0.779,0-1.436,0.205-1.968,0.615C460.634,8.091,460.282,8.659,460.112,9.386z"/>
	<path d="M475.853,13.095c-0.479,0.434-1.003,0.765-1.567,0.993c-0.565,0.229-1.146,0.343-1.744,0.343
		c-0.872,0-1.576-0.243-2.112-0.729c-0.535-0.486-0.804-1.119-0.804-1.898c0-0.926,0.356-1.644,1.067-2.153
		c0.712-0.51,1.711-0.765,3-0.765c0.339,0,0.682,0.022,1.027,0.066s0.699,0.113,1.062,0.207V9.096c0-0.674-0.161-1.172-0.482-1.494
		c-0.322-0.322-0.823-0.483-1.502-0.483c-0.457,0-0.967,0.123-1.528,0.369c-0.562,0.246-0.935,0.369-1.116,0.369
		c-0.17,0-0.311-0.069-0.421-0.207c-0.111-0.138-0.167-0.315-0.167-0.532c0-0.346,0.323-0.639,0.971-0.879
		c0.646-0.24,1.474-0.36,2.48-0.36c1.031,0,1.81,0.262,2.337,0.787s0.79,1.299,0.79,2.325v3.981h0.431
		c0.416,0,0.694,0.044,0.835,0.132s0.211,0.246,0.211,0.475c0,0.211-0.059,0.369-0.176,0.475s-0.293,0.158-0.527,0.158h-1.379
		c-0.164,0-0.299-0.05-0.404-0.149s-0.176-0.243-0.211-0.431L475.853,13.095z M475.782,10.326c-0.322-0.105-0.634-0.183-0.936-0.233
		c-0.301-0.05-0.602-0.075-0.9-0.075c-0.901,0-1.613,0.152-2.134,0.457c-0.521,0.305-0.782,0.715-0.782,1.23
		c0,0.398,0.163,0.727,0.488,0.984c0.324,0.258,0.738,0.387,1.242,0.387c0.744,0,1.434-0.195,2.068-0.584
		c0.636-0.39,0.953-0.795,0.953-1.217V10.326z"/>
	<path d="M487.025,6.582c0.287,0,0.496,0.05,0.628,0.149s0.198,0.258,0.198,0.475c0,0.205-0.062,0.359-0.185,0.461
		s-0.308,0.154-0.554,0.154h-3.558v2.936c0,0.961,0.125,1.594,0.374,1.898c0.248,0.305,0.675,0.457,1.277,0.457
		c0.533,0,1.171-0.155,1.915-0.466c0.743-0.311,1.203-0.466,1.379-0.466c0.164,0,0.303,0.059,0.417,0.176s0.172,0.261,0.172,0.431
		c0,0.193-0.072,0.362-0.216,0.505s-0.388,0.283-0.733,0.417c-0.573,0.229-1.091,0.396-1.55,0.501
		c-0.46,0.105-0.892,0.158-1.296,0.158c-0.685,0-1.261-0.11-1.726-0.33c-0.466-0.22-0.812-0.546-1.041-0.98
		c-0.117-0.205-0.201-0.448-0.25-0.729c-0.05-0.281-0.075-0.715-0.075-1.301v-0.272V7.821h-1.493c-0.246,0-0.425-0.048-0.536-0.145
		s-0.166-0.253-0.166-0.47c0-0.24,0.075-0.404,0.228-0.492s0.478-0.132,0.976-0.132h0.992V4.78V4.314
		c0-0.252,0.054-0.438,0.163-0.558c0.107-0.12,0.276-0.18,0.505-0.18c0.257,0,0.436,0.073,0.535,0.22s0.149,0.48,0.149,1.002v1.784
		H487.025z"/>
	<path d="M492.453,10.537c0.047,0.847,0.333,1.501,0.856,1.962c0.524,0.462,1.24,0.692,2.148,0.692c0.685,0,1.432-0.183,2.239-0.549
		c0.809-0.366,1.297-0.549,1.467-0.549c0.176,0,0.322,0.056,0.439,0.167s0.176,0.249,0.176,0.413c0,0.17-0.062,0.325-0.185,0.465
		s-0.319,0.277-0.589,0.411c-0.585,0.285-1.189,0.503-1.813,0.654s-1.243,0.227-1.857,0.227c-1.336,0-2.404-0.385-3.206-1.156
		c-0.803-0.771-1.204-1.792-1.204-3.063c0-1.295,0.425-2.344,1.274-3.146c0.849-0.803,1.955-1.204,3.32-1.204
		c1.235,0,2.26,0.375,3.074,1.125c0.813,0.75,1.221,1.658,1.221,2.725c0,0.328-0.069,0.548-0.207,0.659s-0.511,0.167-1.119,0.167
		h-0.132H492.453z M492.497,9.386h5.719c-0.088-0.697-0.38-1.258-0.874-1.683c-0.495-0.425-1.103-0.637-1.822-0.637
		c-0.779,0-1.436,0.205-1.968,0.615C493.019,8.091,492.667,8.659,492.497,9.386z"/>
	<path d="M508.861,14.211c-0.123,0-0.21-0.031-0.259-0.092c-0.05-0.062-0.075-0.18-0.075-0.356v-0.721
		c-0.352,0.439-0.79,0.781-1.317,1.024s-1.098,0.365-1.713,0.365c-1.106,0-2.033-0.394-2.78-1.182
		c-0.746-0.788-1.119-1.768-1.119-2.94c0-1.213,0.397-2.222,1.194-3.028c0.796-0.806,1.789-1.208,2.978-1.208
		c0.603,0,1.145,0.107,1.625,0.321c0.479,0.214,0.893,0.529,1.238,0.945V3.972h-0.466c-0.509,0-0.839-0.045-0.988-0.136
		c-0.148-0.091-0.224-0.256-0.224-0.497c0-0.211,0.061-0.369,0.18-0.475c0.12-0.105,0.295-0.158,0.523-0.158h1.801
		c0.175,0,0.303,0.029,0.382,0.088s0.118,0.149,0.118,0.272v9.905h0.396c0.287,0,0.495,0.048,0.624,0.145
		c0.128,0.097,0.192,0.25,0.192,0.461c0,0.199-0.056,0.354-0.166,0.466c-0.111,0.111-0.261,0.167-0.448,0.167H508.861z
		 M503.108,10.265c0,0.809,0.26,1.471,0.781,1.986s1.183,0.773,1.985,0.773c0.808,0,1.473-0.268,1.994-0.804
		c0.521-0.536,0.781-1.217,0.781-2.043c0-0.814-0.259-1.485-0.777-2.013s-1.185-0.791-1.998-0.791c-0.826,0-1.493,0.267-2.003,0.8
		S503.108,9.403,503.108,10.265z"/>
	<path d="M515.291,7.909c0-0.457,0.159-0.832,0.479-1.125s0.733-0.439,1.243-0.439c0.521,0,0.939,0.144,1.256,0.431
		s0.474,0.665,0.474,1.134s-0.159,0.847-0.479,1.134s-0.736,0.431-1.251,0.431c-0.516,0-0.932-0.144-1.248-0.431
		C515.449,8.756,515.291,8.378,515.291,7.909z M515.291,12.77c0-0.457,0.159-0.832,0.479-1.125s0.733-0.439,1.243-0.439
		c0.521,0,0.939,0.144,1.256,0.431s0.474,0.665,0.474,1.134s-0.159,0.847-0.479,1.134s-0.736,0.431-1.251,0.431
		c-0.516,0-0.932-0.144-1.248-0.431C515.449,13.616,515.291,13.238,515.291,12.77z"/>
	<path d="M530.152,8.647l-6.421-2.936c-0.27-0.123-0.46-0.245-0.57-0.365c-0.111-0.12-0.167-0.256-0.167-0.409
		c0-0.17,0.051-0.305,0.153-0.404s0.241-0.149,0.417-0.149c0.088,0,0.187,0.016,0.295,0.048c0.107,0.032,0.244,0.086,0.408,0.163
		l6.982,3.208c0.023,0.012,0.059,0.029,0.105,0.053c0.527,0.234,0.791,0.498,0.791,0.791c0,0.287-0.258,0.551-0.773,0.791
		c-0.059,0.023-0.1,0.041-0.123,0.053l-6.982,3.261l-0.035,0.018c-0.305,0.135-0.527,0.202-0.668,0.202
		c-0.176,0-0.314-0.053-0.417-0.158s-0.153-0.246-0.153-0.422c0-0.152,0.056-0.289,0.167-0.409c0.11-0.12,0.301-0.242,0.57-0.365
		L530.152,8.647z"/>
	<path d="M534.668,6.547h7.879c0.176,0,0.312,0.056,0.408,0.167s0.146,0.27,0.146,0.475c0,0.211-0.049,0.372-0.146,0.483
		s-0.232,0.167-0.408,0.167h-7.879c-0.182,0-0.32-0.054-0.417-0.163s-0.146-0.271-0.146-0.488c0-0.211,0.049-0.371,0.146-0.479
		S534.486,6.547,534.668,6.547z M534.668,9.491h7.879c0.176,0,0.312,0.057,0.408,0.171s0.146,0.274,0.146,0.479
		c0,0.211-0.049,0.372-0.146,0.483s-0.232,0.167-0.408,0.167h-7.879c-0.182,0-0.32-0.056-0.417-0.167s-0.146-0.272-0.146-0.483
		s0.049-0.372,0.146-0.483S534.486,9.491,534.668,9.491z"/>
	<path d="M546.342,14.211c-0.311,0-0.541-0.063-0.69-0.189c-0.148-0.126-0.224-0.321-0.224-0.584c0-0.381,0.562-1.096,1.687-2.145
		l0.255-0.246c0.17-0.164,0.416-0.398,0.737-0.703c2.026-1.91,3.039-3.302,3.039-4.175c0-0.627-0.179-1.135-0.535-1.525
		c-0.357-0.39-0.82-0.584-1.388-0.584c-0.369,0-0.722,0.076-1.059,0.229s-0.607,0.357-0.812,0.615
		c-0.035,0.047-0.091,0.126-0.167,0.237c-0.217,0.393-0.46,0.589-0.729,0.589c-0.21,0-0.359-0.064-0.447-0.193
		s-0.132-0.375-0.132-0.738c0-0.211,0.021-0.365,0.062-0.461s0.117-0.201,0.229-0.312c0.374-0.363,0.839-0.652,1.392-0.866
		c0.554-0.214,1.12-0.321,1.7-0.321c0.972,0,1.784,0.314,2.438,0.941c0.652,0.627,0.979,1.398,0.979,2.313
		c0,1.149-0.995,2.677-2.986,4.583c-0.509,0.475-0.898,0.848-1.168,1.117l-1.08,1.038h4.014c0.023-0.255,0.093-0.449,0.207-0.582
		s0.268-0.2,0.461-0.2s0.346,0.064,0.457,0.193c0.11,0.129,0.166,0.305,0.166,0.527c0,0.018-0.003,0.048-0.009,0.092
		s-0.009,0.075-0.009,0.092l-0.07,0.677c-0.017,0.182-0.069,0.324-0.157,0.426s-0.202,0.154-0.343,0.154H546.342z"/>
	<path d="M560.193,14.501c-1.102,0-1.976-0.52-2.622-1.56c-0.647-1.04-0.971-2.465-0.971-4.276c0-1.805,0.323-3.227,0.971-4.267
		c0.646-1.04,1.521-1.56,2.622-1.56c1.101,0,1.976,0.521,2.626,1.564c0.649,1.043,0.975,2.464,0.975,4.263s-0.325,3.221-0.975,4.267
		C562.169,13.978,561.294,14.501,560.193,14.501z M560.193,4.095c-0.674,0-1.198,0.399-1.572,1.197
		c-0.375,0.797-0.562,1.923-0.562,3.378c0,1.46,0.188,2.591,0.562,3.392c0.374,0.8,0.898,1.201,1.572,1.201
		c0.679,0,1.206-0.4,1.581-1.201c0.374-0.801,0.562-1.931,0.562-3.392c0-1.455-0.188-2.581-0.562-3.378
		C561.399,4.494,560.872,4.095,560.193,4.095z"/>
	<path d="M568.889,4.78c-0.076,0.012-0.134,0.021-0.171,0.026c-0.039,0.006-0.072,0.009-0.102,0.009
		c-0.182,0-0.329-0.051-0.443-0.154s-0.172-0.239-0.172-0.409c0-0.141,0.05-0.264,0.149-0.369s0.243-0.185,0.431-0.237l2.608-0.703
		c0.064-0.018,0.128-0.031,0.189-0.04s0.124-0.013,0.188-0.013c0.111,0,0.199,0.051,0.264,0.154s0.097,0.242,0.097,0.417v9.51h1.405
		c0.521,0,0.853,0.042,0.992,0.127c0.141,0.085,0.211,0.245,0.211,0.479c0,0.211-0.059,0.369-0.176,0.475s-0.292,0.158-0.526,0.158
		h-5.253c-0.234,0-0.41-0.053-0.527-0.158s-0.175-0.264-0.175-0.475c0-0.234,0.07-0.394,0.21-0.479
		c0.141-0.085,0.472-0.127,0.993-0.127h1.458V4.385L568.889,4.78z"/>
	<path d="M579.701,8.454c0.316-0.41,0.667-0.718,1.054-0.923s0.809-0.308,1.265-0.308c0.926,0,1.712,0.349,2.358,1.046
		c0.647,0.697,0.971,1.556,0.971,2.575c0,1.066-0.313,1.942-0.939,2.628c-0.627,0.686-1.429,1.028-2.407,1.028
		c-1.153,0-2.077-0.458-2.771-1.375c-0.694-0.917-1.041-2.14-1.041-3.669c0-1.992,0.512-3.593,1.537-4.803
		c1.024-1.21,2.377-1.815,4.058-1.815c0.568,0,0.943,0.041,1.125,0.123c0.181,0.082,0.271,0.237,0.271,0.466
		c0,0.375-0.345,0.568-1.036,0.58c-0.457,0.006-0.822,0.035-1.098,0.088c-0.926,0.176-1.677,0.64-2.253,1.393
		C580.218,6.241,579.854,7.229,579.701,8.454z M579.895,10.792c0,0.721,0.19,1.308,0.57,1.762c0.381,0.454,0.87,0.681,1.467,0.681
		c0.562,0,1.023-0.214,1.384-0.642s0.54-0.987,0.54-1.679c0-0.715-0.186-1.295-0.558-1.74s-0.851-0.668-1.436-0.668
		c-0.568,0-1.038,0.214-1.41,0.642S579.895,10.124,579.895,10.792z"/>
	<path d="M588.915,11.003c-0.117,0-0.21-0.037-0.276-0.11c-0.067-0.073-0.102-0.174-0.102-0.303V9.658
		c0-0.111,0.034-0.199,0.102-0.264c0.066-0.064,0.159-0.097,0.276-0.097h7.281c0.135,0,0.24,0.032,0.316,0.097
		s0.114,0.152,0.114,0.264v0.932c0,0.105-0.044,0.201-0.132,0.286s-0.188,0.127-0.299,0.127H588.915z"/>
	<path d="M603.373,14.501c-1.102,0-1.976-0.52-2.622-1.56c-0.647-1.04-0.971-2.465-0.971-4.276c0-1.805,0.323-3.227,0.971-4.267
		c0.646-1.04,1.521-1.56,2.622-1.56c1.101,0,1.976,0.521,2.626,1.564c0.649,1.043,0.975,2.464,0.975,4.263s-0.325,3.221-0.975,4.267
		C605.349,13.978,604.474,14.501,603.373,14.501z M603.373,4.095c-0.674,0-1.198,0.399-1.572,1.197
		c-0.375,0.797-0.562,1.923-0.562,3.378c0,1.46,0.188,2.591,0.562,3.392c0.374,0.8,0.898,1.201,1.572,1.201
		c0.679,0,1.206-0.4,1.581-1.201c0.374-0.801,0.562-1.931,0.562-3.392c0-1.455-0.188-2.581-0.562-3.378
		C604.579,4.494,604.052,4.095,603.373,4.095z"/>
	<path d="M611.112,14.211c-0.311,0-0.541-0.063-0.69-0.189c-0.148-0.126-0.224-0.321-0.224-0.584c0-0.381,0.562-1.096,1.687-2.145
		l0.255-0.246c0.17-0.164,0.416-0.398,0.737-0.703c2.026-1.91,3.039-3.302,3.039-4.175c0-0.627-0.179-1.135-0.535-1.525
		c-0.357-0.39-0.82-0.584-1.388-0.584c-0.369,0-0.722,0.076-1.059,0.229s-0.607,0.357-0.812,0.615
		c-0.035,0.047-0.091,0.126-0.167,0.237c-0.217,0.393-0.46,0.589-0.729,0.589c-0.21,0-0.359-0.064-0.447-0.193
		s-0.132-0.375-0.132-0.738c0-0.211,0.021-0.365,0.062-0.461s0.117-0.201,0.229-0.312c0.374-0.363,0.839-0.652,1.392-0.866
		c0.554-0.214,1.12-0.321,1.7-0.321c0.972,0,1.784,0.314,2.438,0.941c0.652,0.627,0.979,1.398,0.979,2.313
		c0,1.149-0.995,2.677-2.986,4.583c-0.509,0.475-0.898,0.848-1.168,1.117l-1.08,1.038h4.014c0.023-0.255,0.093-0.449,0.207-0.582
		s0.268-0.2,0.461-0.2s0.346,0.064,0.457,0.193c0.11,0.129,0.166,0.305,0.166,0.527c0,0.018-0.003,0.048-0.009,0.092
		s-0.009,0.075-0.009,0.092l-0.07,0.677c-0.017,0.182-0.069,0.324-0.157,0.426s-0.202,0.154-0.343,0.154H611.112z"/>
	<path d="M621.301,11.003c-0.117,0-0.21-0.037-0.276-0.11c-0.067-0.073-0.102-0.174-0.102-0.303V9.658
		c0-0.111,0.034-0.199,0.102-0.264c0.066-0.064,0.159-0.097,0.276-0.097h7.281c0.135,0,0.24,0.032,0.316,0.097
		s0.114,0.152,0.114,0.264v0.932c0,0.105-0.044,0.201-0.132,0.286s-0.188,0.127-0.299,0.127H621.301z"/>
	<path d="M633.659,4.78c-0.076,0.012-0.134,0.021-0.171,0.026c-0.039,0.006-0.072,0.009-0.102,0.009
		c-0.182,0-0.329-0.051-0.443-0.154s-0.172-0.239-0.172-0.409c0-0.141,0.05-0.264,0.149-0.369s0.243-0.185,0.431-0.237l2.608-0.703
		c0.064-0.018,0.128-0.031,0.189-0.04s0.124-0.013,0.188-0.013c0.111,0,0.199,0.051,0.264,0.154s0.097,0.242,0.097,0.417v9.51h1.405
		c0.521,0,0.853,0.042,0.992,0.127c0.141,0.085,0.211,0.245,0.211,0.479c0,0.211-0.059,0.369-0.176,0.475s-0.292,0.158-0.526,0.158
		h-5.253c-0.234,0-0.41-0.053-0.527-0.158s-0.175-0.264-0.175-0.475c0-0.234,0.07-0.394,0.21-0.479
		c0.141-0.085,0.472-0.127,0.993-0.127h1.458V4.385L633.659,4.78z"/>
	<path d="M643.497,14.211c-0.311,0-0.541-0.063-0.69-0.189c-0.148-0.126-0.224-0.321-0.224-0.584c0-0.381,0.562-1.096,1.687-2.145
		l0.255-0.246c0.17-0.164,0.416-0.398,0.737-0.703c2.026-1.91,3.039-3.302,3.039-4.175c0-0.627-0.179-1.135-0.535-1.525
		c-0.357-0.39-0.82-0.584-1.388-0.584c-0.369,0-0.722,0.076-1.059,0.229s-0.607,0.357-0.812,0.615
		c-0.035,0.047-0.091,0.126-0.167,0.237c-0.217,0.393-0.46,0.589-0.729,0.589c-0.21,0-0.359-0.064-0.447-0.193
		s-0.132-0.375-0.132-0.738c0-0.211,0.021-0.365,0.062-0.461s0.117-0.201,0.229-0.312c0.374-0.363,0.839-0.652,1.392-0.866
		c0.554-0.214,1.12-0.321,1.7-0.321c0.972,0,1.784,0.314,2.438,0.941c0.652,0.627,0.979,1.398,0.979,2.313
		c0,1.149-0.995,2.677-2.986,4.583c-0.509,0.475-0.898,0.848-1.168,1.117l-1.08,1.038h4.014c0.023-0.255,0.093-0.449,0.207-0.582
		s0.268-0.2,0.461-0.2s0.346,0.064,0.457,0.193c0.11,0.129,0.166,0.305,0.166,0.527c0,0.018-0.003,0.048-0.009,0.092
		s-0.009,0.075-0.009,0.092l-0.07,0.677c-0.017,0.182-0.069,0.324-0.157,0.426s-0.202,0.154-0.343,0.154H643.497z"/>
	<path d="M653.686,11.003c-0.117,0-0.21-0.037-0.276-0.11c-0.067-0.073-0.102-0.174-0.102-0.303V9.658
		c0-0.111,0.034-0.199,0.102-0.264c0.066-0.064,0.159-0.097,0.276-0.097h7.281c0.135,0,0.24,0.032,0.316,0.097
		s0.114,0.152,0.114,0.264v0.932c0,0.105-0.044,0.201-0.132,0.286s-0.188,0.127-0.299,0.127H653.686z"/>
	<path d="M666.044,4.78c-0.076,0.012-0.134,0.021-0.171,0.026c-0.039,0.006-0.072,0.009-0.102,0.009
		c-0.182,0-0.329-0.051-0.443-0.154s-0.172-0.239-0.172-0.409c0-0.141,0.05-0.264,0.149-0.369s0.243-0.185,0.431-0.237l2.608-0.703
		c0.064-0.018,0.128-0.031,0.189-0.04s0.124-0.013,0.188-0.013c0.111,0,0.199,0.051,0.264,0.154s0.097,0.242,0.097,0.417v9.51h1.405
		c0.521,0,0.853,0.042,0.992,0.127c0.141,0.085,0.211,0.245,0.211,0.479c0,0.211-0.059,0.369-0.176,0.475s-0.292,0.158-0.526,0.158
		h-5.253c-0.234,0-0.41-0.053-0.527-0.158s-0.175-0.264-0.175-0.475c0-0.234,0.07-0.394,0.21-0.479
		c0.141-0.085,0.472-0.127,0.993-0.127h1.458V4.385L666.044,4.78z"/>
	<path d="M676.839,4.78c-0.076,0.012-0.134,0.021-0.171,0.026c-0.039,0.006-0.072,0.009-0.102,0.009
		c-0.182,0-0.329-0.051-0.443-0.154s-0.172-0.239-0.172-0.409c0-0.141,0.05-0.264,0.149-0.369s0.243-0.185,0.431-0.237l2.608-0.703
		c0.064-0.018,0.128-0.031,0.189-0.04s0.124-0.013,0.188-0.013c0.111,0,0.199,0.051,0.264,0.154s0.097,0.242,0.097,0.417v9.51h1.405
		c0.521,0,0.853,0.042,0.992,0.127c0.141,0.085,0.211,0.245,0.211,0.479c0,0.211-0.059,0.369-0.176,0.475s-0.292,0.158-0.526,0.158
		h-5.253c-0.234,0-0.41-0.053-0.527-0.158s-0.175-0.264-0.175-0.475c0-0.234,0.07-0.394,0.21-0.479
		c0.141-0.085,0.472-0.127,0.993-0.127h1.458V4.385L676.839,4.78z"/>
	<path d="M686.07,11.003c-0.117,0-0.21-0.037-0.276-0.11c-0.067-0.073-0.102-0.174-0.102-0.303V9.658
		c0-0.111,0.034-0.199,0.102-0.264c0.066-0.064,0.159-0.097,0.276-0.097h7.281c0.135,0,0.24,0.032,0.316,0.097
		s0.114,0.152,0.114,0.264v0.932c0,0.105-0.044,0.201-0.132,0.286s-0.188,0.127-0.299,0.127H686.07z"/>
	<path d="M697.472,14.211c-0.311,0-0.541-0.063-0.69-0.189c-0.148-0.126-0.224-0.321-0.224-0.584c0-0.381,0.562-1.096,1.687-2.145
		l0.255-0.246c0.17-0.164,0.416-0.398,0.737-0.703c2.026-1.91,3.039-3.302,3.039-4.175c0-0.627-0.179-1.135-0.535-1.525
		c-0.357-0.39-0.82-0.584-1.388-0.584c-0.369,0-0.722,0.076-1.059,0.229s-0.607,0.357-0.812,0.615
		c-0.035,0.047-0.091,0.126-0.167,0.237c-0.217,0.393-0.46,0.589-0.729,0.589c-0.21,0-0.359-0.064-0.447-0.193
		s-0.132-0.375-0.132-0.738c0-0.211,0.021-0.365,0.062-0.461s0.117-0.201,0.229-0.312c0.374-0.363,0.839-0.652,1.392-0.866
		c0.554-0.214,1.12-0.321,1.7-0.321c0.972,0,1.784,0.314,2.438,0.941c0.652,0.627,0.979,1.398,0.979,2.313
		c0,1.149-0.995,2.677-2.986,4.583c-0.509,0.475-0.898,0.848-1.168,1.117l-1.08,1.038h4.014c0.023-0.255,0.093-0.449,0.207-0.582
		s0.268-0.2,0.461-0.2s0.346,0.064,0.457,0.193c0.11,0.129,0.166,0.305,0.166,0.527c0,0.018-0.003,0.048-0.009,0.092
		s-0.009,0.075-0.009,0.092l-0.07,0.677c-0.017,0.182-0.069,0.324-0.157,0.426s-0.202,0.154-0.343,0.154H697.472z"/>
	<path d="M712.694,8.164c0.685,0.188,1.216,0.529,1.594,1.024s0.566,1.1,0.566,1.815c0,1.025-0.363,1.865-1.089,2.518
		c-0.727,0.653-1.666,0.98-2.819,0.98c-0.891,0-1.683-0.171-2.376-0.514c-0.694-0.343-1.041-0.719-1.041-1.129
		c0-0.176,0.062-0.321,0.188-0.435s0.28-0.171,0.462-0.171c0.099,0,0.461,0.149,1.084,0.448c0.624,0.299,1.205,0.448,1.744,0.448
		c0.696,0,1.263-0.199,1.699-0.598s0.654-0.914,0.654-1.547c0-0.521-0.15-0.962-0.452-1.323s-0.716-0.59-1.243-0.69
		c-0.158-0.029-0.365-0.053-0.623-0.07c-0.492-0.029-0.738-0.234-0.738-0.615c0-0.346,0.24-0.548,0.721-0.606
		c0.188-0.018,0.343-0.038,0.465-0.062c0.457-0.07,0.826-0.258,1.107-0.562s0.421-0.674,0.421-1.107
		c0-0.557-0.172-1.011-0.518-1.362s-0.785-0.527-1.317-0.527c-0.492,0-0.997,0.152-1.516,0.457s-0.842,0.457-0.971,0.457
		c-0.164,0-0.3-0.053-0.408-0.158s-0.162-0.237-0.162-0.396c0-0.357,0.327-0.713,0.983-1.068c0.655-0.354,1.382-0.532,2.179-0.532
		c0.913,0,1.673,0.277,2.279,0.831c0.605,0.554,0.909,1.235,0.909,2.043c0,0.615-0.146,1.122-0.436,1.521
		C713.753,7.631,713.303,7.941,712.694,8.164z"/>
	<path d="M718.456,11.003c-0.117,0-0.21-0.037-0.276-0.11c-0.067-0.073-0.102-0.174-0.102-0.303V9.658
		c0-0.111,0.034-0.199,0.102-0.264c0.066-0.064,0.159-0.097,0.276-0.097h7.281c0.135,0,0.24,0.032,0.316,0.097
		s0.114,0.152,0.114,0.264v0.932c0,0.105-0.044,0.201-0.132,0.286s-0.188,0.127-0.299,0.127H718.456z"/>
	<path d="M732.703,14.211c-0.281,0-0.472-0.045-0.571-0.136s-0.149-0.256-0.149-0.497c0-0.211,0.052-0.365,0.154-0.461
		c0.102-0.097,0.268-0.145,0.496-0.145h1.019v-1.477h-4.102c-0.146,0-0.261-0.047-0.343-0.141s-0.123-0.229-0.123-0.404v-0.606
		c0-0.234,0.085-0.48,0.255-0.738c0.029-0.047,0.053-0.085,0.07-0.114l3.706-6.293c0.082-0.146,0.149-0.24,0.202-0.281
		s0.123-0.062,0.211-0.062c0.035,0,0.097,0.006,0.185,0.018c0.023,0.006,0.047,0.012,0.07,0.018l0.896,0.141
		c0.082,0.012,0.148,0.057,0.198,0.136s0.074,0.183,0.074,0.312v6.68h0.448c0.129,0,0.229-0.051,0.299-0.154
		s0.149-0.154,0.237-0.154c0.117,0,0.216,0.044,0.298,0.132s0.123,0.196,0.123,0.325c0,0.053-0.003,0.101-0.009,0.145
		s-0.018,0.089-0.035,0.136l-0.07,0.36c-0.041,0.211-0.101,0.354-0.18,0.431s-0.203,0.114-0.373,0.114h-0.738v1.477h0.308
		c0.375,0,0.633,0.045,0.773,0.136c0.14,0.091,0.21,0.248,0.21,0.47c0,0.211-0.059,0.369-0.175,0.475
		c-0.117,0.105-0.293,0.158-0.527,0.158H732.703z M733.651,10.159V4.2l-3.329,5.959H733.651z"/>
	<path d="M743.498,14.211c-0.281,0-0.472-0.045-0.571-0.136s-0.149-0.256-0.149-0.497c0-0.211,0.052-0.365,0.154-0.461
		c0.102-0.097,0.268-0.145,0.496-0.145h1.019v-1.477h-4.102c-0.146,0-0.261-0.047-0.343-0.141s-0.123-0.229-0.123-0.404v-0.606
		c0-0.234,0.085-0.48,0.255-0.738c0.029-0.047,0.053-0.085,0.07-0.114l3.706-6.293c0.082-0.146,0.149-0.24,0.202-0.281
		s0.123-0.062,0.211-0.062c0.035,0,0.097,0.006,0.185,0.018c0.023,0.006,0.047,0.012,0.07,0.018l0.896,0.141
		c0.082,0.012,0.148,0.057,0.198,0.136s0.074,0.183,0.074,0.312v6.68h0.448c0.129,0,0.229-0.051,0.299-0.154
		s0.149-0.154,0.237-0.154c0.117,0,0.216,0.044,0.298,0.132s0.123,0.196,0.123,0.325c0,0.053-0.003,0.101-0.009,0.145
		s-0.018,0.089-0.035,0.136l-0.07,0.36c-0.041,0.211-0.101,0.354-0.18,0.431s-0.203,0.114-0.373,0.114h-0.738v1.477h0.308
		c0.375,0,0.633,0.045,0.773,0.136c0.14,0.091,0.21,0.248,0.21,0.47c0,0.211-0.059,0.369-0.175,0.475
		c-0.117,0.105-0.293,0.158-0.527,0.158H743.498z M744.446,10.159V4.2l-3.329,5.959H744.446z"/>
</g>
<g>
	<line fill="none" stroke="#000000" stroke-width="0.5" x1="16.493" y1="31.693" x2="55.931" y2="31.693"/>
	<path fill="none" stroke="#000000" stroke-width="0.5" d="M66.299,21.325c0,5.731-4.638,10.369-10.369,10.369"/>
	<path fill="none" stroke="#000000" stroke-width="0.5" d="M6.124,21.325c0,5.731,4.638,10.369,10.369,10.369"/>
</g>
<g>
	<line fill="none" stroke="#000000" stroke-width="0.5" x1="79.866" y1="31.945" x2="255.015" y2="31.945"/>
	<path fill="none" stroke="#000000" stroke-width="0.5" d="M265.383,21.576c0,5.73-1.972,10.369-10.369,10.369"/>
	<path fill="none" stroke="#000000" stroke-width="0.5" d="M69.497,21.576c0,5.73,4.638,10.369,10.369,10.369"/>
</g>
<g>
	<line fill="none" stroke="#000000" stroke-width="0.5" x1="280.107" y1="31.945" x2="412.895" y2="31.945"/>
	<path fill="none" stroke="#000000" stroke-width="0.5" d="M423.263,21.576c0,5.73-4.637,10.369-10.368,10.369"/>
	<path fill="none" stroke="#000000" stroke-width="0.5" d="M269.738,21.576c0,5.73,4.638,10.369,10.369,10.369"/>
</g>
<line fill="none" stroke="#000000" stroke-width="0.5" x1="437.353" y1="32.215" x2="738.742" y2="32.215"/>
<path fill="none" stroke="#000000" stroke-width="0.5" d="M749.11,21.325c0,5.73-4.637,10.369-10.368,10.369"/>
<path fill="none" stroke="#000000" stroke-width="0.5" d="M426.987,21.846c0,5.73,4.638,10.369,10.368,10.369"/>
<g>
	<path d="M16.495,48.693c-0.02,0.176-0.064,0.298-0.135,0.366s-0.182,0.103-0.334,0.103c-0.164,0-0.286-0.048-0.366-0.144
		s-0.126-0.251-0.138-0.466l-0.076-1.359v-0.105c0-0.188,0.036-0.32,0.108-0.398s0.192-0.117,0.36-0.117
		c0.234,0,0.402,0.168,0.504,0.504c0.047,0.168,0.092,0.295,0.135,0.381c0.137,0.273,0.353,0.484,0.647,0.633
		s0.647,0.223,1.058,0.223c0.504,0,0.913-0.119,1.228-0.357s0.472-0.543,0.472-0.914c0-0.309-0.097-0.557-0.29-0.744
		s-0.476-0.309-0.847-0.363l-0.867-0.117c-0.809-0.113-1.398-0.326-1.77-0.639s-0.557-0.752-0.557-1.318
		c0-0.598,0.247-1.1,0.741-1.506s1.11-0.609,1.849-0.609c0.215,0,0.441,0.028,0.68,0.085s0.508,0.146,0.809,0.267
		c0.008-0.113,0.039-0.191,0.094-0.234s0.148-0.064,0.281-0.064c0.172,0,0.291,0.025,0.357,0.076s0.107,0.172,0.123,0.363
		l0.082,1.225v0.059c0,0.137-0.039,0.243-0.117,0.319s-0.188,0.114-0.328,0.114c-0.207,0-0.367-0.145-0.48-0.434
		c-0.055-0.164-0.109-0.287-0.164-0.369c-0.129-0.195-0.314-0.346-0.557-0.451s-0.518-0.158-0.826-0.158
		c-0.473,0-0.856,0.117-1.151,0.352s-0.442,0.541-0.442,0.92c0,0.297,0.11,0.531,0.331,0.703s0.558,0.289,1.011,0.352l0.938,0.117
		c0.68,0.09,1.191,0.298,1.535,0.624s0.516,0.767,0.516,1.321c0,0.656-0.244,1.183-0.732,1.579s-1.141,0.595-1.957,0.595
		c-0.281,0-0.561-0.033-0.838-0.1S16.808,48.834,16.495,48.693z"/>
	<path d="M27.171,43.836v-0.023c0-0.129,0.037-0.224,0.111-0.284s0.189-0.091,0.346-0.091c0.16,0,0.271,0.047,0.331,0.141
		s0.091,0.287,0.091,0.58v1.09c0,0.145-0.037,0.253-0.111,0.325s-0.186,0.108-0.334,0.108c-0.105,0-0.196-0.03-0.272-0.091
		s-0.169-0.187-0.278-0.378c-0.188-0.316-0.415-0.556-0.683-0.718s-0.575-0.243-0.923-0.243c-0.609,0-1.104,0.18-1.485,0.539
		s-0.571,0.824-0.571,1.395c0,0.582,0.183,1.058,0.548,1.427s0.835,0.554,1.409,0.554c0.262,0,0.511-0.036,0.747-0.108
		s0.46-0.181,0.671-0.325c0.074-0.047,0.174-0.119,0.299-0.217c0.254-0.207,0.453-0.311,0.598-0.311c0.121,0,0.22,0.038,0.296,0.114
		s0.114,0.175,0.114,0.296c0,0.309-0.292,0.624-0.876,0.946s-1.204,0.483-1.86,0.483c-0.848,0-1.554-0.271-2.118-0.814
		s-0.847-1.221-0.847-2.033s0.281-1.491,0.844-2.036s1.266-0.817,2.109-0.817c0.297,0,0.595,0.04,0.894,0.12
		S26.835,43.668,27.171,43.836z"/>
	<path d="M30.405,48.072v-6h-0.111c-0.266,0-0.448-0.031-0.548-0.094s-0.149-0.172-0.149-0.328c0-0.141,0.04-0.246,0.12-0.316
		s0.196-0.105,0.349-0.105h0.891c0.105,0,0.188,0.021,0.246,0.064s0.088,0.102,0.088,0.176v2.654
		c0.285-0.266,0.567-0.462,0.847-0.589s0.569-0.19,0.87-0.19c0.59,0,1.054,0.184,1.392,0.551s0.507,0.875,0.507,1.523v2.654h0.277
		c0.197,0,0.338,0.032,0.425,0.097s0.13,0.167,0.13,0.308s-0.039,0.246-0.118,0.316c-0.078,0.07-0.196,0.105-0.352,0.105h-1.562
		c-0.184,0-0.308-0.03-0.373-0.091c-0.064-0.061-0.097-0.171-0.097-0.331c0-0.156,0.04-0.263,0.121-0.319
		c0.081-0.057,0.233-0.085,0.458-0.085h0.207v-2.438c0-0.457-0.104-0.806-0.312-1.046c-0.207-0.24-0.509-0.36-0.904-0.36
		c-0.403,0-0.757,0.135-1.06,0.404c-0.304,0.27-0.455,0.604-0.455,1.002v2.438h0.205c0.234,0,0.393,0.029,0.475,0.088
		s0.123,0.164,0.123,0.316c0,0.16-0.032,0.271-0.097,0.331s-0.188,0.091-0.372,0.091h-1.559c-0.152,0-0.267-0.035-0.343-0.105
		s-0.114-0.176-0.114-0.316c0-0.156,0.046-0.263,0.138-0.319s0.271-0.085,0.536-0.085H30.405z"/>
	<path d="M37.829,46.449c0.031,0.564,0.222,1,0.571,1.308s0.827,0.461,1.433,0.461c0.457,0,0.955-0.122,1.494-0.366
		s0.865-0.366,0.979-0.366c0.117,0,0.215,0.037,0.293,0.111s0.117,0.166,0.117,0.275c0,0.113-0.041,0.217-0.123,0.31
		c-0.082,0.094-0.213,0.185-0.393,0.274c-0.391,0.19-0.794,0.335-1.21,0.436c-0.416,0.101-0.829,0.151-1.239,0.151
		c-0.891,0-1.604-0.257-2.139-0.771s-0.803-1.194-0.803-2.042c0-0.863,0.283-1.562,0.85-2.098s1.305-0.803,2.215-0.803
		c0.824,0,1.508,0.25,2.051,0.75s0.814,1.105,0.814,1.816c0,0.219-0.046,0.365-0.138,0.439s-0.341,0.111-0.747,0.111h-0.088H37.829z
		 M37.858,45.682h3.814c-0.059-0.465-0.253-0.839-0.583-1.122s-0.735-0.425-1.216-0.425c-0.52,0-0.957,0.137-1.312,0.41
		S37.972,45.197,37.858,45.682z"/>
	<path d="M49.185,45.635c0-0.551-0.05-0.923-0.149-1.116s-0.27-0.29-0.511-0.29c-0.288,0-0.517,0.125-0.686,0.375
		s-0.254,0.594-0.254,1.031v2.438h0.104c0.236,0,0.394,0.028,0.474,0.085s0.119,0.163,0.119,0.319c0,0.141-0.033,0.246-0.1,0.316
		s-0.168,0.105-0.305,0.105h-0.744c-0.168,0-0.282-0.039-0.343-0.117S46.7,48.535,46.7,48.277v-0.17v-2.473v-0.457
		c0-0.293-0.066-0.524-0.199-0.694s-0.314-0.255-0.545-0.255c-0.176,0-0.337,0.052-0.483,0.155s-0.272,0.257-0.378,0.46v3.229h0.215
		c0.232,0,0.39,0.029,0.471,0.088s0.122,0.164,0.122,0.316c0,0.16-0.033,0.271-0.1,0.331c-0.066,0.061-0.193,0.091-0.38,0.091
		h-1.555c-0.152,0-0.264-0.034-0.336-0.103c-0.072-0.068-0.108-0.175-0.108-0.319c0-0.156,0.045-0.263,0.137-0.319
		c0.091-0.057,0.269-0.085,0.532-0.085h0.116v-3.762h-0.104c-0.271,0-0.457-0.031-0.556-0.093c-0.099-0.062-0.148-0.17-0.148-0.326
		c0-0.136,0.039-0.237,0.117-0.306c0.078-0.067,0.195-0.102,0.352-0.102h0.896c0.129,0,0.214,0.022,0.255,0.067
		c0.041,0.045,0.065,0.139,0.073,0.282c0.16-0.171,0.333-0.297,0.517-0.379s0.391-0.123,0.622-0.123c0.274,0,0.5,0.059,0.678,0.178
		c0.178,0.119,0.31,0.298,0.396,0.539c0.164-0.245,0.354-0.425,0.569-0.542s0.461-0.175,0.739-0.175
		c0.504,0,0.873,0.164,1.105,0.492c0.233,0.328,0.349,0.859,0.349,1.594v2.654h0.093c0.24,0,0.401,0.029,0.482,0.088
		s0.122,0.164,0.122,0.316c0,0.141-0.035,0.246-0.105,0.316s-0.174,0.105-0.311,0.105h-0.709c-0.156,0-0.271-0.047-0.346-0.141
		s-0.111-0.242-0.111-0.445V45.635z"/>
	<path d="M55.56,48.154c-0.32,0.289-0.669,0.51-1.046,0.662s-0.765,0.229-1.163,0.229c-0.582,0-1.052-0.162-1.409-0.486
		s-0.536-0.746-0.536-1.266c0-0.617,0.237-1.096,0.712-1.436s1.142-0.51,2.001-0.51c0.227,0,0.455,0.015,0.686,0.044
		s0.467,0.075,0.709,0.138v-0.041c0-0.449-0.107-0.781-0.322-0.996s-0.549-0.322-1.002-0.322c-0.305,0-0.645,0.082-1.02,0.246
		s-0.623,0.246-0.744,0.246c-0.113,0-0.207-0.046-0.281-0.138s-0.111-0.21-0.111-0.354c0-0.23,0.216-0.426,0.647-0.586
		s0.983-0.24,1.655-0.24c0.688,0,1.207,0.175,1.559,0.524s0.527,0.866,0.527,1.55v2.654h0.287c0.277,0,0.463,0.029,0.557,0.088
		s0.141,0.164,0.141,0.316c0,0.141-0.039,0.246-0.117,0.316s-0.195,0.105-0.352,0.105h-0.92c-0.109,0-0.199-0.033-0.27-0.1
		s-0.117-0.162-0.141-0.287L55.56,48.154z M55.513,46.309c-0.215-0.07-0.423-0.122-0.624-0.155s-0.401-0.05-0.601-0.05
		c-0.602,0-1.076,0.102-1.424,0.305s-0.521,0.477-0.521,0.82c0,0.266,0.108,0.484,0.325,0.656s0.493,0.258,0.829,0.258
		c0.496,0,0.956-0.13,1.38-0.39s0.636-0.53,0.636-0.812V46.309z"/>
</g>
<g>
	<path d="M155.235,46.042h0.393c0.23,0,0.393,0.031,0.486,0.094s0.141,0.166,0.141,0.311c0,0.16-0.041,0.271-0.123,0.331
		s-0.262,0.091-0.539,0.091h-1.283h-0.264c-0.145,0-0.253-0.035-0.325-0.105s-0.108-0.176-0.108-0.316
		c0-0.152,0.042-0.258,0.126-0.316s0.243-0.088,0.478-0.088h0.105v-5.279h-0.094c-0.234,0-0.396-0.031-0.483-0.094
		s-0.132-0.172-0.132-0.328c0-0.145,0.036-0.251,0.108-0.319s0.185-0.103,0.337-0.103h0.252h1.225c0.312,0,0.511,0.03,0.595,0.091
		s0.126,0.171,0.126,0.331c0,0.156-0.053,0.266-0.158,0.328s-0.305,0.094-0.598,0.094h-0.264v2.039h2.807v-2.039h-0.398
		c-0.223,0-0.382-0.033-0.478-0.1s-0.144-0.174-0.144-0.322c0-0.16,0.044-0.271,0.132-0.331s0.304-0.091,0.647-0.091h1.166h0.264
		c0.141,0,0.247,0.035,0.319,0.105s0.108,0.176,0.108,0.316c0,0.152-0.041,0.261-0.123,0.325s-0.229,0.097-0.439,0.097h-0.141v5.279
		h0.094c0.234,0,0.395,0.03,0.48,0.091s0.129,0.165,0.129,0.313c0,0.16-0.041,0.271-0.123,0.331s-0.271,0.091-0.568,0.091h-1.213
		c-0.316,0-0.518-0.03-0.604-0.091s-0.129-0.171-0.129-0.331c0-0.152,0.051-0.258,0.152-0.316s0.295-0.088,0.58-0.088h0.287v-2.438
		h-2.807V46.042z"/>
	<path d="M166.913,44.167c0,0.836-0.285,1.52-0.855,2.051s-1.311,0.797-2.221,0.797c-0.906,0-1.645-0.266-2.215-0.797
		s-0.855-1.215-0.855-2.051s0.285-1.519,0.855-2.048s1.309-0.794,2.215-0.794s1.646,0.266,2.218,0.797
		S166.913,43.334,166.913,44.167z M163.837,46.188c0.602,0,1.095-0.19,1.479-0.57s0.577-0.865,0.577-1.454s-0.193-1.076-0.58-1.46
		c-0.387-0.384-0.879-0.576-1.477-0.576s-1.089,0.192-1.474,0.576c-0.385,0.384-0.577,0.871-0.577,1.46
		c0,0.593,0.191,1.079,0.574,1.457S163.235,46.188,163.837,46.188z"/>
	<path d="M168.483,46.446v-1.043c0-0.172,0.032-0.295,0.097-0.369s0.169-0.111,0.313-0.111c0.16,0,0.287,0.109,0.381,0.328
		c0.062,0.133,0.119,0.232,0.17,0.299c0.164,0.211,0.406,0.38,0.727,0.507s0.674,0.19,1.061,0.19c0.414,0,0.746-0.084,0.996-0.252
		s0.375-0.389,0.375-0.662c0-0.277-0.101-0.475-0.302-0.592s-0.546-0.176-1.034-0.176h-0.322c-0.797,0-1.404-0.139-1.822-0.416
		s-0.627-0.68-0.627-1.207c0-0.516,0.204-0.916,0.612-1.201s0.981-0.428,1.72-0.428c0.301,0,0.607,0.042,0.92,0.126
		s0.477,0.126,0.492,0.126c0.043,0,0.125-0.038,0.246-0.114s0.24-0.114,0.357-0.114c0.133,0,0.231,0.049,0.296,0.146
		s0.097,0.244,0.097,0.439v0.686c0,0.207-0.031,0.356-0.094,0.448s-0.162,0.138-0.299,0.138c-0.117,0-0.262-0.1-0.434-0.299
		c-0.121-0.137-0.221-0.24-0.299-0.311c-0.207-0.191-0.428-0.329-0.662-0.413s-0.51-0.126-0.826-0.126
		c-0.367,0-0.663,0.081-0.888,0.243s-0.337,0.368-0.337,0.618c0,0.246,0.115,0.422,0.346,0.527s0.727,0.166,1.488,0.182
		c0.812,0.02,1.406,0.161,1.781,0.425s0.562,0.671,0.562,1.222c0,0.527-0.207,0.949-0.621,1.266s-0.973,0.475-1.676,0.475
		c-0.223,0-0.471-0.021-0.744-0.062s-0.617-0.11-1.031-0.208c-0.137,0.09-0.254,0.157-0.352,0.202s-0.18,0.067-0.246,0.067
		c-0.137,0-0.241-0.048-0.313-0.144S168.483,46.625,168.483,46.446z"/>
	<path d="M179.839,41.782c0.191,0,0.331,0.033,0.419,0.1s0.132,0.172,0.132,0.316c0,0.137-0.041,0.239-0.123,0.308
		s-0.205,0.103-0.369,0.103h-2.373v1.957c0,0.641,0.083,1.062,0.249,1.266s0.45,0.305,0.853,0.305c0.355,0,0.781-0.104,1.277-0.311
		s0.803-0.311,0.92-0.311c0.109,0,0.202,0.039,0.278,0.117s0.114,0.174,0.114,0.287c0,0.129-0.048,0.241-0.144,0.337
		s-0.259,0.188-0.489,0.278c-0.383,0.152-0.728,0.264-1.034,0.334s-0.595,0.105-0.864,0.105c-0.457,0-0.841-0.073-1.151-0.22
		s-0.542-0.364-0.694-0.653c-0.078-0.137-0.134-0.299-0.167-0.486s-0.05-0.477-0.05-0.867v-0.182v-1.957h-0.996
		c-0.164,0-0.283-0.032-0.357-0.097s-0.111-0.169-0.111-0.313c0-0.16,0.051-0.27,0.152-0.328s0.318-0.088,0.65-0.088h0.662v-1.201
		V40.27c0-0.168,0.036-0.292,0.108-0.372s0.185-0.12,0.337-0.12c0.172,0,0.291,0.049,0.357,0.146s0.1,0.32,0.1,0.668v1.189H179.839z
		"/>
</g>
<g>
	<path d="M335.937,46.042c0.191,0,0.33,0.032,0.416,0.097s0.129,0.167,0.129,0.308c0,0.156-0.041,0.266-0.123,0.328
		s-0.238,0.094-0.469,0.094h-2.865c-0.133,0-0.234-0.036-0.305-0.108s-0.105-0.177-0.105-0.313s0.034-0.238,0.103-0.305
		s0.175-0.1,0.319-0.1h0.756v-5.279h-0.41c-0.344,0-0.558-0.03-0.642-0.091s-0.126-0.171-0.126-0.331
		c0-0.137,0.035-0.241,0.105-0.313s0.172-0.108,0.305-0.108h2.713c0.949,0,1.67,0.184,2.162,0.551s0.738,0.908,0.738,1.623
		s-0.244,1.254-0.732,1.617s-1.211,0.545-2.168,0.545h-1.025v1.787H335.937z M334.712,40.763v2.719h1.096
		c0.613,0,1.072-0.113,1.377-0.34s0.457-0.568,0.457-1.025c0-0.449-0.153-0.787-0.46-1.014s-0.765-0.34-1.374-0.34H334.712z"/>
	<path d="M344.702,46.03c0.16,0,0.282,0.035,0.366,0.105s0.126,0.174,0.126,0.311c0,0.141-0.04,0.246-0.12,0.316
		s-0.196,0.105-0.349,0.105h-3.832c-0.16,0-0.282-0.035-0.366-0.105s-0.126-0.176-0.126-0.316c0-0.137,0.04-0.24,0.12-0.311
		s0.196-0.105,0.349-0.105h0.996v-3.58h-0.961c-0.16,0-0.284-0.037-0.372-0.111s-0.132-0.18-0.132-0.316
		c0-0.141,0.041-0.246,0.123-0.316s0.201-0.105,0.357-0.105h0.926v-0.398c0-0.707,0.201-1.22,0.604-1.538s1.053-0.478,1.951-0.478
		c0.438,0,0.761,0.049,0.97,0.146s0.313,0.25,0.313,0.457c0,0.121-0.045,0.221-0.135,0.299s-0.205,0.117-0.346,0.117
		c-0.07,0-0.239-0.023-0.507-0.07s-0.497-0.07-0.688-0.07c-0.441,0-0.758,0.093-0.949,0.278s-0.287,0.493-0.287,0.923v0.334h2.074
		c0.16,0,0.282,0.035,0.366,0.105s0.126,0.176,0.126,0.316c0,0.133-0.043,0.237-0.129,0.313s-0.203,0.114-0.352,0.114h-2.027v3.58
		H344.702z"/>
	<path d="M351.446,46.124c-0.32,0.289-0.669,0.51-1.046,0.662s-0.765,0.229-1.163,0.229c-0.582,0-1.052-0.162-1.409-0.486
		s-0.536-0.746-0.536-1.266c0-0.617,0.237-1.096,0.712-1.436s1.142-0.51,2.001-0.51c0.227,0,0.455,0.015,0.686,0.044
		s0.467,0.075,0.709,0.138v-0.041c0-0.449-0.107-0.781-0.322-0.996s-0.549-0.322-1.002-0.322c-0.305,0-0.645,0.082-1.02,0.246
		s-0.623,0.246-0.744,0.246c-0.113,0-0.207-0.046-0.281-0.138s-0.111-0.21-0.111-0.354c0-0.23,0.216-0.426,0.647-0.586
		s0.983-0.24,1.655-0.24c0.688,0,1.207,0.175,1.559,0.524s0.527,0.866,0.527,1.55v2.654h0.287c0.277,0,0.463,0.029,0.557,0.088
		s0.141,0.164,0.141,0.316c0,0.141-0.039,0.246-0.117,0.316s-0.195,0.105-0.352,0.105h-0.92c-0.109,0-0.199-0.033-0.27-0.1
		s-0.117-0.162-0.141-0.287L351.446,46.124z M351.399,44.278c-0.215-0.07-0.423-0.122-0.624-0.155s-0.401-0.05-0.601-0.05
		c-0.602,0-1.076,0.102-1.424,0.305s-0.521,0.477-0.521,0.82c0,0.266,0.108,0.484,0.325,0.656s0.493,0.258,0.829,0.258
		c0.496,0,0.956-0.13,1.38-0.39s0.636-0.53,0.636-0.812V44.278z"/>
	<path d="M359.063,46.868c-0.082,0-0.14-0.021-0.173-0.062s-0.05-0.12-0.05-0.237v-0.48c-0.234,0.293-0.527,0.521-0.879,0.683
		s-0.732,0.243-1.143,0.243c-0.738,0-1.356-0.263-1.854-0.788s-0.747-1.179-0.747-1.96c0-0.809,0.266-1.481,0.797-2.019
		s1.193-0.806,1.986-0.806c0.402,0,0.764,0.071,1.084,0.214s0.596,0.353,0.826,0.63v-2.244h-0.311c-0.34,0-0.56-0.03-0.659-0.091
		s-0.149-0.171-0.149-0.331c0-0.141,0.04-0.246,0.12-0.316s0.196-0.105,0.349-0.105h1.201c0.117,0,0.202,0.02,0.255,0.059
		s0.079,0.1,0.079,0.182v6.604h0.264c0.191,0,0.33,0.032,0.416,0.097s0.129,0.167,0.129,0.308c0,0.133-0.037,0.236-0.111,0.311
		s-0.174,0.111-0.299,0.111H359.063z M355.226,44.237c0,0.539,0.174,0.98,0.521,1.324s0.789,0.516,1.324,0.516
		c0.539,0,0.982-0.179,1.33-0.536s0.521-0.812,0.521-1.362c0-0.543-0.173-0.99-0.519-1.342s-0.79-0.527-1.333-0.527
		c-0.551,0-0.996,0.178-1.336,0.533S355.226,43.663,355.226,44.237z"/>
</g>
<g>
	<path d="M547.519,44.574c-0.68-0.195-1.224-0.61-1.632-1.245s-0.612-1.38-0.612-2.235c0-1.031,0.305-1.897,0.914-2.599
		s1.359-1.052,2.25-1.052c0.898,0,1.651,0.352,2.259,1.055s0.911,1.572,0.911,2.607c0,1.078-0.295,1.947-0.885,2.607
		s-1.363,0.99-2.32,0.99c-0.098,0-0.173,0-0.226,0s-0.104-0.004-0.155-0.012l-0.627,0.615c0.234-0.094,0.471-0.163,0.709-0.208
		s0.486-0.067,0.744-0.067c0.172,0,0.409,0.046,0.712,0.138s0.526,0.138,0.671,0.138c0.121,0,0.267-0.036,0.437-0.108
		s0.284-0.108,0.343-0.108c0.098,0,0.182,0.042,0.252,0.126s0.105,0.183,0.105,0.296c0,0.121-0.119,0.247-0.357,0.378
		s-0.486,0.196-0.744,0.196c-0.219,0-0.532-0.064-0.94-0.193s-0.716-0.193-0.923-0.193c-0.293,0-0.604,0.07-0.935,0.211
		s-0.515,0.211-0.554,0.211c-0.086,0-0.173-0.047-0.261-0.141s-0.132-0.191-0.132-0.293c0-0.105,0.188-0.336,0.562-0.691
		C547.265,44.824,547.409,44.684,547.519,44.574z M548.438,43.924c0.641,0,1.153-0.253,1.538-0.76
		c0.385-0.506,0.577-1.193,0.577-2.062c0-0.872-0.191-1.562-0.574-2.07s-0.896-0.763-1.541-0.763c-0.641,0-1.152,0.254-1.535,0.763
		s-0.574,1.198-0.574,2.07s0.191,1.56,0.574,2.064C547.286,43.672,547.798,43.924,548.438,43.924z"/>
	<path d="M554.181,42.424c0,0.492,0.104,0.852,0.311,1.078s0.535,0.34,0.984,0.34c0.426,0,0.79-0.135,1.093-0.405
		s0.454-0.608,0.454-1.015v-2.424h-0.803c-0.152,0-0.263-0.032-0.331-0.096c-0.068-0.064-0.103-0.164-0.103-0.3
		c0-0.147,0.037-0.256,0.111-0.326c0.074-0.069,0.193-0.104,0.357-0.104h1.248c0.148,0,0.253,0.032,0.313,0.097
		s0.091,0.222,0.091,0.472v4.02h0.27c0.191,0,0.329,0.031,0.413,0.094s0.126,0.166,0.126,0.311c0,0.141-0.04,0.246-0.12,0.316
		s-0.196,0.105-0.349,0.105h-0.891c-0.105,0-0.188-0.021-0.246-0.064s-0.088-0.102-0.088-0.176v-0.398
		c-0.375,0.289-0.696,0.487-0.964,0.595s-0.55,0.161-0.847,0.161c-0.645,0-1.128-0.171-1.45-0.513s-0.483-0.859-0.483-1.552v-2.64
		h-0.123c-0.266,0-0.447-0.031-0.545-0.093s-0.146-0.17-0.146-0.326c0-0.136,0.038-0.237,0.114-0.306
		c0.076-0.067,0.194-0.102,0.354-0.102h0.885c0.137,0,0.231,0.027,0.284,0.082s0.079,0.176,0.079,0.363V42.424z"/>
	<path d="M560.86,42.137c0.031,0.564,0.222,1,0.571,1.308s0.827,0.461,1.433,0.461c0.457,0,0.955-0.122,1.494-0.366
		s0.865-0.366,0.979-0.366c0.117,0,0.215,0.037,0.293,0.111s0.117,0.166,0.117,0.275c0,0.113-0.041,0.217-0.123,0.31
		c-0.082,0.094-0.213,0.185-0.393,0.274c-0.391,0.19-0.794,0.335-1.21,0.436c-0.416,0.101-0.829,0.151-1.239,0.151
		c-0.891,0-1.604-0.257-2.139-0.771s-0.803-1.194-0.803-2.042c0-0.863,0.283-1.562,0.85-2.098s1.305-0.803,2.215-0.803
		c0.824,0,1.508,0.25,2.051,0.75s0.814,1.105,0.814,1.816c0,0.219-0.046,0.365-0.138,0.439s-0.341,0.111-0.747,0.111h-0.088H560.86z
		 M560.89,41.369h3.814c-0.059-0.465-0.253-0.839-0.583-1.122s-0.735-0.425-1.216-0.425c-0.52,0-0.957,0.137-1.312,0.41
		S561.003,40.885,560.89,41.369z"/>
	<path d="M569.468,43.76h1.945c0.152,0,0.265,0.032,0.337,0.097s0.108,0.167,0.108,0.308c0,0.16-0.034,0.271-0.103,0.331
		s-0.194,0.091-0.378,0.091h-3.832c-0.152,0-0.268-0.035-0.346-0.105s-0.117-0.176-0.117-0.316c0-0.137,0.04-0.238,0.12-0.305
		s0.204-0.1,0.372-0.1h1.02v-3.762h-0.398c-0.379,0-0.615-0.03-0.709-0.09s-0.141-0.169-0.141-0.329
		c0-0.136,0.038-0.237,0.114-0.306c0.076-0.067,0.192-0.102,0.349-0.102h1.336c0.105,0,0.186,0.021,0.24,0.062
		s0.082,0.101,0.082,0.179v0.996c0.371-0.465,0.758-0.811,1.16-1.037s0.836-0.34,1.301-0.34c0.348,0,0.629,0.07,0.844,0.209
		c0.215,0.14,0.322,0.32,0.322,0.542c0,0.144-0.054,0.271-0.161,0.383s-0.226,0.167-0.354,0.167c-0.09,0-0.241-0.06-0.454-0.179
		s-0.403-0.179-0.571-0.179c-0.305,0-0.626,0.108-0.964,0.326s-0.712,0.561-1.122,1.03V43.76z"/>
	<path d="M576.804,46.086h0.252c0.285,0,0.479,0.03,0.58,0.091s0.152,0.171,0.152,0.331c0,0.137-0.04,0.24-0.12,0.311
		s-0.196,0.105-0.349,0.105h-2.701c-0.184,0-0.312-0.031-0.384-0.094s-0.108-0.17-0.108-0.322c0-0.141,0.038-0.246,0.114-0.316
		s0.19-0.105,0.343-0.105h1.271l0.949-1.871l-2.15-4.217c-0.258,0-0.435-0.031-0.53-0.093s-0.144-0.17-0.144-0.326
		c0-0.136,0.039-0.237,0.117-0.306c0.078-0.067,0.195-0.102,0.352-0.102h1.635c0.219,0,0.365,0.03,0.439,0.09
		s0.111,0.166,0.111,0.317c0,0.155-0.049,0.264-0.146,0.326s-0.277,0.093-0.539,0.093h-0.217l1.588,3.234l1.617-3.234h-0.229
		c-0.27,0-0.455-0.031-0.557-0.093s-0.152-0.17-0.152-0.326c0-0.151,0.037-0.257,0.111-0.317s0.223-0.09,0.445-0.09h1.447
		c0.16,0,0.278,0.034,0.354,0.102c0.076,0.068,0.114,0.17,0.114,0.306c0,0.147-0.043,0.252-0.129,0.314
		c-0.086,0.062-0.238,0.097-0.457,0.104L576.804,46.086z"/>
	<path d="M582.001,42.447c-0.078,0-0.14-0.024-0.185-0.073s-0.067-0.116-0.067-0.202v-0.621c0-0.074,0.022-0.133,0.067-0.176
		s0.106-0.064,0.185-0.064h4.857c0.09,0,0.16,0.021,0.211,0.064s0.076,0.102,0.076,0.176v0.621c0,0.07-0.029,0.134-0.088,0.19
		s-0.125,0.085-0.199,0.085H582.001z"/>
	<path d="M589.935,44.381c-0.02,0.176-0.064,0.298-0.135,0.366s-0.182,0.103-0.334,0.103c-0.164,0-0.286-0.048-0.366-0.144
		s-0.126-0.251-0.138-0.466l-0.076-1.359v-0.105c0-0.188,0.036-0.32,0.108-0.398s0.192-0.117,0.36-0.117
		c0.234,0,0.402,0.168,0.504,0.504c0.047,0.168,0.092,0.295,0.135,0.381c0.137,0.273,0.353,0.484,0.647,0.633S591.288,44,591.698,44
		c0.504,0,0.913-0.119,1.228-0.357s0.472-0.543,0.472-0.914c0-0.309-0.097-0.557-0.29-0.744s-0.476-0.309-0.847-0.363l-0.867-0.117
		c-0.809-0.113-1.398-0.326-1.77-0.639s-0.557-0.752-0.557-1.318c0-0.598,0.247-1.1,0.741-1.506s1.11-0.609,1.849-0.609
		c0.215,0,0.441,0.028,0.68,0.085s0.508,0.146,0.809,0.267c0.008-0.113,0.039-0.191,0.094-0.234s0.148-0.064,0.281-0.064
		c0.172,0,0.291,0.025,0.357,0.076s0.107,0.172,0.123,0.363l0.082,1.225v0.059c0,0.137-0.039,0.243-0.117,0.319
		s-0.188,0.114-0.328,0.114c-0.207,0-0.367-0.145-0.48-0.434c-0.055-0.164-0.109-0.287-0.164-0.369
		c-0.129-0.195-0.314-0.346-0.557-0.451s-0.518-0.158-0.826-0.158c-0.473,0-0.856,0.117-1.151,0.352s-0.442,0.541-0.442,0.92
		c0,0.297,0.11,0.531,0.331,0.703s0.558,0.289,1.011,0.352l0.938,0.117c0.68,0.09,1.191,0.298,1.535,0.624s0.516,0.767,0.516,1.321
		c0,0.656-0.244,1.183-0.732,1.579s-1.141,0.595-1.957,0.595c-0.281,0-0.561-0.033-0.838-0.1S590.247,44.521,589.935,44.381z"/>
	<path d="M600.446,39.5c0.191,0,0.331,0.033,0.419,0.1s0.132,0.172,0.132,0.316c0,0.137-0.041,0.239-0.123,0.308
		s-0.205,0.103-0.369,0.103h-2.373v1.957c0,0.641,0.083,1.062,0.249,1.266s0.45,0.305,0.853,0.305c0.355,0,0.781-0.104,1.277-0.311
		s0.803-0.311,0.92-0.311c0.109,0,0.202,0.039,0.278,0.117s0.114,0.174,0.114,0.287c0,0.129-0.048,0.241-0.144,0.337
		s-0.259,0.188-0.489,0.278c-0.383,0.152-0.728,0.264-1.034,0.334s-0.595,0.105-0.864,0.105c-0.457,0-0.841-0.073-1.151-0.22
		s-0.542-0.364-0.694-0.653c-0.078-0.137-0.134-0.299-0.167-0.486s-0.05-0.477-0.05-0.867v-0.182v-1.957h-0.996
		c-0.164,0-0.283-0.032-0.357-0.097s-0.111-0.169-0.111-0.313c0-0.16,0.051-0.27,0.152-0.328s0.318-0.088,0.65-0.088h0.662v-1.201
		v-0.311c0-0.168,0.036-0.292,0.108-0.372s0.185-0.12,0.337-0.12c0.172,0,0.291,0.049,0.357,0.146s0.1,0.32,0.1,0.668V39.5H600.446z
		"/>
	<path d="M605.474,43.76h1.945c0.152,0,0.265,0.032,0.337,0.097s0.108,0.167,0.108,0.308c0,0.16-0.034,0.271-0.103,0.331
		s-0.194,0.091-0.378,0.091h-3.832c-0.152,0-0.268-0.035-0.346-0.105s-0.117-0.176-0.117-0.316c0-0.137,0.04-0.238,0.12-0.305
		s0.204-0.1,0.372-0.1h1.02v-3.762h-0.398c-0.379,0-0.615-0.03-0.709-0.09s-0.141-0.169-0.141-0.329
		c0-0.136,0.038-0.237,0.114-0.306c0.076-0.067,0.192-0.102,0.349-0.102h1.336c0.105,0,0.186,0.021,0.24,0.062
		s0.082,0.101,0.082,0.179v0.996c0.371-0.465,0.758-0.811,1.16-1.037s0.836-0.34,1.301-0.34c0.348,0,0.629,0.07,0.844,0.209
		c0.215,0.14,0.322,0.32,0.322,0.542c0,0.144-0.054,0.271-0.161,0.383s-0.226,0.167-0.354,0.167c-0.09,0-0.241-0.06-0.454-0.179
		s-0.403-0.179-0.571-0.179c-0.305,0-0.626,0.108-0.964,0.326s-0.712,0.561-1.122,1.03V43.76z"/>
	<path d="M613.794,43.76h1.881c0.152,0,0.265,0.032,0.337,0.097s0.108,0.167,0.108,0.308c0,0.16-0.034,0.271-0.103,0.331
		s-0.194,0.091-0.378,0.091h-4.541c-0.156,0-0.273-0.035-0.352-0.105s-0.117-0.176-0.117-0.316c0-0.137,0.041-0.238,0.123-0.305
		s0.205-0.1,0.369-0.1h1.787v-3.762h-1.146c-0.161,0-0.284-0.036-0.368-0.107s-0.126-0.176-0.126-0.312s0.039-0.237,0.117-0.306
		c0.078-0.067,0.195-0.102,0.352-0.102h1.717c0.105,0,0.188,0.021,0.249,0.064s0.091,0.102,0.091,0.176V43.76z M612.71,37.484
		c0-0.422,0.038-0.688,0.114-0.797s0.239-0.164,0.489-0.164c0.242,0,0.402,0.046,0.48,0.138s0.117,0.31,0.117,0.653
		c0,0.336-0.036,0.544-0.108,0.624s-0.235,0.12-0.489,0.12c-0.25,0-0.413-0.037-0.489-0.111S612.71,37.719,612.71,37.484z"/>
	<path d="M618.271,43.76v-3.756h-0.111c-0.266,0-0.448-0.031-0.548-0.094s-0.149-0.172-0.149-0.328c0-0.145,0.041-0.249,0.123-0.313
		s0.215-0.097,0.398-0.097h0.275h0.562c0.105,0,0.188,0.021,0.246,0.064s0.088,0.102,0.088,0.176v0.398
		c0.285-0.266,0.567-0.462,0.847-0.589s0.569-0.19,0.87-0.19c0.59,0,1.054,0.184,1.392,0.551s0.507,0.875,0.507,1.523v2.654h0.277
		c0.196,0,0.339,0.032,0.425,0.097s0.13,0.167,0.13,0.308c0,0.152-0.046,0.261-0.138,0.325s-0.256,0.097-0.49,0.097h-1.299
		c-0.25,0-0.41-0.029-0.481-0.088c-0.07-0.059-0.105-0.17-0.105-0.334c0-0.152,0.042-0.258,0.124-0.316s0.238-0.088,0.467-0.088
		h0.206v-2.438c0-0.457-0.104-0.806-0.312-1.046s-0.509-0.36-0.904-0.36c-0.398,0-0.752,0.135-1.057,0.404s-0.458,0.604-0.458,1.002
		v2.438h0.205c0.234,0,0.393,0.029,0.475,0.088s0.123,0.164,0.123,0.316c0,0.164-0.035,0.275-0.105,0.334s-0.242,0.088-0.516,0.088
		h-1.066h-0.316c-0.16,0-0.28-0.034-0.36-0.103s-0.12-0.175-0.12-0.319c0-0.156,0.046-0.263,0.138-0.319s0.271-0.085,0.536-0.085
		H618.271z"/>
	<path d="M630.036,44.275c0,0.547-0.027,0.935-0.083,1.163c-0.055,0.229-0.148,0.429-0.283,0.601
		c-0.22,0.289-0.527,0.509-0.922,0.659c-0.396,0.15-0.86,0.226-1.396,0.226c-0.445,0-0.771-0.043-0.976-0.129
		s-0.308-0.223-0.308-0.41c0-0.121,0.05-0.228,0.149-0.319s0.218-0.138,0.354-0.138c0.105,0,0.268,0.015,0.486,0.044
		s0.385,0.044,0.498,0.044c0.578,0,0.988-0.133,1.23-0.398s0.363-0.721,0.363-1.365v-0.709c-0.238,0.277-0.502,0.48-0.791,0.609
		s-0.621,0.193-0.996,0.193c-0.73,0-1.335-0.243-1.813-0.729s-0.718-1.103-0.718-1.849c0-0.75,0.246-1.372,0.738-1.866
		s1.102-0.741,1.828-0.741c0.301,0,0.595,0.056,0.882,0.167s0.577,0.28,0.87,0.507v-0.422c0-0.082,0.026-0.143,0.079-0.182
		s0.136-0.059,0.249-0.059h0.885c0.156,0,0.273,0.034,0.352,0.103s0.117,0.171,0.117,0.308c0,0.156-0.048,0.266-0.146,0.328
		c-0.097,0.062-0.279,0.094-0.547,0.094h-0.104V44.275z M627.487,40.039c-0.512,0-0.93,0.158-1.254,0.475s-0.486,0.727-0.486,1.23
		c0,0.496,0.162,0.903,0.486,1.222s0.742,0.478,1.254,0.478c0.508,0,0.925-0.159,1.251-0.478s0.489-0.726,0.489-1.222
		s-0.163-0.904-0.489-1.225S627.995,40.039,627.487,40.039z"/>
</g>
</svg>
