<?xml version="1.0" encoding="utf-8"?>
<!-- Generator: Adobe Illustrator 14.0.0, SVG Export Plug-In . SVG Version: 6.00 Build 43363)  -->
<!DOCTYPE svg PUBLIC "-//W3C//DTD SVG 1.1//EN" "http://www.w3.org/Graphics/SVG/1.1/DTD/svg11.dtd">
<svg version="1.1" id="Ebene_1" xmlns="http://www.w3.org/2000/svg" xmlns:xlink="http://www.w3.org/1999/xlink" x="0px" y="0px"
	 width="823.532px" height="54.06px" viewBox="0 0 823.532 54.06" enable-background="new 0 0 823.532 54.06" xml:space="preserve">
<g>
	<path d="M11.561,16.411v-9h-0.167c-0.398,0-0.672-0.047-0.821-0.141c-0.149-0.094-0.224-0.258-0.224-0.492
		c0-0.211,0.06-0.369,0.18-0.475c0.12-0.105,0.294-0.158,0.522-0.158h1.335c0.158,0,0.281,0.032,0.369,0.097
		s0.132,0.152,0.132,0.264v3.981c0.427-0.398,0.85-0.693,1.269-0.883c0.418-0.19,0.854-0.286,1.304-0.286
		c0.884,0,1.58,0.275,2.086,0.826c0.506,0.551,0.76,1.312,0.76,2.285v3.981h0.416c0.295,0,0.507,0.048,0.637,0.145
		c0.129,0.097,0.194,0.25,0.194,0.461s-0.059,0.369-0.176,0.475c-0.118,0.105-0.294,0.158-0.528,0.158h-2.342
		c-0.276,0-0.462-0.045-0.559-0.136c-0.097-0.091-0.145-0.256-0.145-0.497c0-0.234,0.061-0.394,0.182-0.479
		c0.121-0.085,0.349-0.127,0.686-0.127h0.31v-3.656c0-0.686-0.155-1.208-0.466-1.569s-0.763-0.541-1.355-0.541
		c-0.604,0-1.134,0.202-1.589,0.606c-0.455,0.404-0.682,0.905-0.682,1.503v3.656h0.307c0.352,0,0.589,0.044,0.711,0.132
		c0.123,0.088,0.185,0.246,0.185,0.475c0,0.24-0.048,0.406-0.145,0.497s-0.282,0.136-0.558,0.136h-2.336
		c-0.229,0-0.4-0.053-0.514-0.158c-0.114-0.105-0.171-0.264-0.171-0.475c0-0.234,0.069-0.394,0.207-0.479
		c0.137-0.085,0.405-0.127,0.804-0.127H11.561z"/>
	<path d="M28.056,10.021c0.287,0,0.496,0.05,0.628,0.149s0.198,0.258,0.198,0.475c0,0.205-0.062,0.359-0.185,0.461
		s-0.307,0.154-0.553,0.154h-3.558v2.936c0,0.961,0.125,1.594,0.374,1.898s0.675,0.457,1.278,0.457c0.533,0,1.171-0.155,1.915-0.466
		s1.203-0.466,1.379-0.466c0.164,0,0.303,0.059,0.417,0.176s0.171,0.261,0.171,0.431c0,0.193-0.072,0.362-0.215,0.505
		c-0.144,0.144-0.388,0.283-0.733,0.417c-0.574,0.229-1.091,0.396-1.55,0.501c-0.46,0.105-0.892,0.158-1.296,0.158
		c-0.685,0-1.26-0.11-1.726-0.33c-0.465-0.22-0.812-0.546-1.041-0.98c-0.117-0.205-0.201-0.448-0.25-0.729s-0.075-0.715-0.075-1.301
		v-0.272v-2.936h-1.493c-0.246,0-0.425-0.048-0.536-0.145c-0.111-0.097-0.167-0.253-0.167-0.47c0-0.24,0.076-0.404,0.229-0.492
		c0.152-0.088,0.477-0.132,0.975-0.132h0.993V8.22V7.754c0-0.252,0.054-0.438,0.163-0.558s0.277-0.18,0.505-0.18
		c0.258,0,0.437,0.073,0.536,0.22c0.099,0.146,0.149,0.48,0.149,1.002v1.784H28.056z"/>
	<path d="M38.851,10.021c0.287,0,0.496,0.05,0.628,0.149s0.198,0.258,0.198,0.475c0,0.205-0.062,0.359-0.185,0.461
		s-0.307,0.154-0.553,0.154h-3.558v2.936c0,0.961,0.125,1.594,0.374,1.898s0.675,0.457,1.278,0.457c0.533,0,1.171-0.155,1.915-0.466
		s1.203-0.466,1.379-0.466c0.164,0,0.303,0.059,0.417,0.176s0.171,0.261,0.171,0.431c0,0.193-0.072,0.362-0.215,0.505
		c-0.144,0.144-0.388,0.283-0.733,0.417c-0.574,0.229-1.091,0.396-1.55,0.501c-0.46,0.105-0.892,0.158-1.296,0.158
		c-0.685,0-1.26-0.11-1.726-0.33c-0.465-0.22-0.812-0.546-1.041-0.98c-0.117-0.205-0.201-0.448-0.25-0.729s-0.075-0.715-0.075-1.301
		v-0.272v-2.936h-1.493c-0.246,0-0.425-0.048-0.536-0.145c-0.111-0.097-0.167-0.253-0.167-0.47c0-0.24,0.076-0.404,0.229-0.492
		c0.152-0.088,0.477-0.132,0.975-0.132h0.993V8.22V7.754c0-0.252,0.054-0.438,0.163-0.558s0.277-0.18,0.505-0.18
		c0.258,0,0.437,0.073,0.536,0.22c0.099,0.146,0.149,0.48,0.149,1.002v1.784H38.851z"/>
	<path d="M44.982,19.9h2.108c0.223,0,0.39,0.053,0.501,0.158c0.111,0.105,0.167,0.264,0.167,0.475c0,0.229-0.054,0.39-0.162,0.483
		c-0.108,0.094-0.3,0.141-0.576,0.141h-3.874c-0.234,0-0.411-0.053-0.531-0.158s-0.18-0.261-0.18-0.466
		c0-0.234,0.075-0.398,0.224-0.492s0.426-0.141,0.83-0.141h0.167v-9.123h-0.167c-0.404,0-0.681-0.047-0.83-0.141
		s-0.224-0.258-0.224-0.492c0-0.205,0.06-0.359,0.18-0.461s0.297-0.154,0.531-0.154h1.335c0.175,0,0.303,0.029,0.382,0.088
		s0.119,0.149,0.119,0.272v0.853c0.398-0.41,0.839-0.718,1.322-0.923c0.483-0.205,1.003-0.308,1.559-0.308
		c1.177,0,2.161,0.398,2.952,1.195S52,12.503,52,13.704c0,1.154-0.375,2.104-1.124,2.848c-0.75,0.744-1.707,1.116-2.873,1.116
		c-0.621,0-1.191-0.11-1.713-0.33c-0.521-0.22-0.957-0.535-1.309-0.945V19.9z M47.706,16.376c0.813,0,1.481-0.256,2.002-0.769
		c0.521-0.513,0.782-1.176,0.782-1.991c0-0.797-0.262-1.455-0.786-1.973s-1.19-0.778-1.998-0.778s-1.47,0.258-1.985,0.773
		s-0.773,1.175-0.773,1.978c0,0.809,0.256,1.471,0.769,1.986S46.891,16.376,47.706,16.376z"/>
	<path d="M54.214,17.018v-1.564c0-0.258,0.048-0.442,0.145-0.554s0.253-0.167,0.47-0.167c0.24,0,0.431,0.164,0.571,0.492
		c0.093,0.199,0.178,0.349,0.254,0.448c0.246,0.316,0.609,0.57,1.089,0.76c0.48,0.19,1.01,0.286,1.59,0.286
		c0.621,0,1.118-0.126,1.493-0.378c0.375-0.252,0.562-0.583,0.562-0.993c0-0.416-0.151-0.712-0.452-0.888
		c-0.302-0.176-0.818-0.264-1.55-0.264h-0.483c-1.194,0-2.105-0.208-2.731-0.624c-0.627-0.416-0.94-1.02-0.94-1.811
		c0-0.773,0.306-1.374,0.918-1.802s1.471-0.642,2.578-0.642c0.451,0,0.91,0.063,1.379,0.189c0.468,0.126,0.714,0.189,0.738,0.189
		c0.064,0,0.188-0.057,0.369-0.171c0.182-0.114,0.36-0.171,0.536-0.171c0.199,0,0.347,0.073,0.443,0.22s0.145,0.366,0.145,0.659
		v1.028c0,0.311-0.047,0.535-0.141,0.672s-0.243,0.207-0.448,0.207c-0.176,0-0.393-0.149-0.65-0.448
		c-0.182-0.205-0.331-0.36-0.448-0.466c-0.311-0.287-0.641-0.494-0.993-0.62c-0.351-0.126-0.764-0.189-1.238-0.189
		c-0.55,0-0.994,0.122-1.331,0.365c-0.337,0.243-0.505,0.552-0.505,0.927c0,0.369,0.173,0.633,0.519,0.791
		c0.345,0.158,1.089,0.249,2.231,0.272c1.218,0.029,2.108,0.242,2.67,0.637c0.562,0.396,0.843,1.006,0.843,1.833
		c0,0.791-0.31,1.424-0.931,1.898c-0.621,0.475-1.458,0.712-2.512,0.712c-0.334,0-0.706-0.031-1.116-0.092s-0.925-0.166-1.546-0.312
		c-0.205,0.135-0.381,0.236-0.527,0.303c-0.146,0.067-0.27,0.101-0.369,0.101c-0.205,0-0.361-0.072-0.47-0.215
		S54.214,17.287,54.214,17.018z"/>
	<path d="M67.117,11.349c0-0.457,0.16-0.832,0.479-1.125c0.319-0.293,0.733-0.439,1.243-0.439c0.521,0,0.94,0.144,1.256,0.431
		c0.316,0.287,0.474,0.665,0.474,1.134s-0.16,0.847-0.479,1.134c-0.319,0.287-0.737,0.431-1.252,0.431s-0.931-0.144-1.247-0.431
		C67.275,12.195,67.117,11.817,67.117,11.349z M67.117,16.209c0-0.457,0.16-0.832,0.479-1.125c0.319-0.293,0.733-0.439,1.243-0.439
		c0.521,0,0.94,0.144,1.256,0.431c0.316,0.287,0.474,0.665,0.474,1.134s-0.16,0.847-0.479,1.134
		c-0.319,0.287-0.737,0.431-1.252,0.431s-0.931-0.144-1.247-0.431C67.275,17.056,67.117,16.678,67.117,16.209z"/>
	<path d="M77.658,17.888c-0.129,0.293-0.25,0.492-0.365,0.598s-0.25,0.158-0.408,0.158c-0.164,0-0.308-0.06-0.431-0.18
		s-0.185-0.265-0.185-0.435c0-0.047,0.009-0.101,0.026-0.163s0.041-0.127,0.07-0.198l5.481-11.821
		c0.146-0.305,0.275-0.511,0.387-0.62c0.111-0.108,0.246-0.163,0.404-0.163c0.176,0,0.325,0.059,0.448,0.176
		s0.185,0.258,0.185,0.422c0,0.047-0.008,0.1-0.022,0.158c-0.015,0.059-0.037,0.114-0.066,0.167L77.658,17.888z"/>
	<path d="M88.453,17.888c-0.129,0.293-0.25,0.492-0.365,0.598s-0.25,0.158-0.408,0.158c-0.164,0-0.308-0.06-0.431-0.18
		s-0.185-0.265-0.185-0.435c0-0.047,0.009-0.101,0.026-0.163s0.041-0.127,0.07-0.198l5.481-11.821
		c0.146-0.305,0.275-0.511,0.387-0.62c0.111-0.108,0.246-0.163,0.404-0.163c0.176,0,0.325,0.059,0.448,0.176
		s0.185,0.258,0.185,0.422c0,0.047-0.008,0.1-0.022,0.158c-0.015,0.059-0.037,0.114-0.066,0.167L88.453,17.888z"/>
	<path d="M105.835,13.599c0,1.254-0.427,2.279-1.282,3.076s-1.965,1.195-3.329,1.195c-1.358,0-2.465-0.398-3.32-1.195
		s-1.282-1.822-1.282-3.076s0.427-2.278,1.282-3.072s1.962-1.191,3.32-1.191s2.467,0.398,3.325,1.195S105.835,12.351,105.835,13.599
		z M101.224,16.631c0.902,0,1.641-0.285,2.218-0.855c0.577-0.571,0.865-1.297,0.865-2.181c0-0.883-0.29-1.613-0.87-2.19
		c-0.58-0.576-1.317-0.864-2.213-0.864s-1.632,0.288-2.209,0.864c-0.577,0.577-0.865,1.307-0.865,2.19
		c0,0.889,0.287,1.618,0.861,2.186C99.584,16.347,100.322,16.631,101.224,16.631z"/>
	<path d="M109.752,19.9h2.108c0.223,0,0.39,0.053,0.501,0.158c0.111,0.105,0.167,0.264,0.167,0.475c0,0.229-0.054,0.39-0.162,0.483
		c-0.108,0.094-0.3,0.141-0.576,0.141h-3.874c-0.234,0-0.411-0.053-0.531-0.158s-0.18-0.261-0.18-0.466
		c0-0.234,0.075-0.398,0.224-0.492s0.426-0.141,0.83-0.141h0.167v-9.123h-0.167c-0.404,0-0.681-0.047-0.83-0.141
		s-0.224-0.258-0.224-0.492c0-0.205,0.06-0.359,0.18-0.461s0.297-0.154,0.531-0.154h1.335c0.175,0,0.303,0.029,0.382,0.088
		s0.119,0.149,0.119,0.272v0.853c0.398-0.41,0.839-0.718,1.322-0.923c0.483-0.205,1.003-0.308,1.559-0.308
		c1.177,0,2.161,0.398,2.952,1.195s1.186,1.796,1.186,2.997c0,1.154-0.375,2.104-1.124,2.848c-0.75,0.744-1.707,1.116-2.873,1.116
		c-0.621,0-1.191-0.11-1.713-0.33c-0.521-0.22-0.957-0.535-1.309-0.945V19.9z M112.476,16.376c0.813,0,1.481-0.256,2.002-0.769
		c0.521-0.513,0.782-1.176,0.782-1.991c0-0.797-0.262-1.455-0.786-1.973s-1.19-0.778-1.998-0.778s-1.47,0.258-1.985,0.773
		s-0.773,1.175-0.773,1.978c0,0.809,0.256,1.471,0.769,1.986S111.661,16.376,112.476,16.376z"/>
	<path d="M124.834,16.534c-0.48,0.434-1.003,0.765-1.568,0.993c-0.565,0.229-1.146,0.343-1.744,0.343
		c-0.873,0-1.577-0.243-2.113-0.729c-0.536-0.486-0.804-1.119-0.804-1.898c0-0.926,0.356-1.644,1.067-2.153s1.711-0.765,3-0.765
		c0.34,0,0.682,0.022,1.028,0.066c0.345,0.044,0.7,0.113,1.063,0.207v-0.062c0-0.674-0.161-1.172-0.483-1.494
		c-0.322-0.322-0.823-0.483-1.502-0.483c-0.457,0-0.966,0.123-1.528,0.369s-0.934,0.369-1.115,0.369
		c-0.17,0-0.311-0.069-0.422-0.207s-0.167-0.315-0.167-0.532c0-0.346,0.324-0.639,0.971-0.879s1.474-0.36,2.481-0.36
		c1.03,0,1.81,0.262,2.336,0.787s0.791,1.299,0.791,2.325v3.981h0.43c0.416,0,0.694,0.044,0.834,0.132s0.211,0.246,0.211,0.475
		c0,0.211-0.059,0.369-0.176,0.475s-0.293,0.158-0.527,0.158h-1.379c-0.164,0-0.299-0.05-0.404-0.149s-0.176-0.243-0.211-0.431
		L124.834,16.534z M124.764,13.766c-0.322-0.105-0.634-0.183-0.936-0.233c-0.302-0.05-0.602-0.075-0.9-0.075
		c-0.902,0-1.613,0.152-2.134,0.457c-0.521,0.305-0.782,0.715-0.782,1.23c0,0.398,0.162,0.727,0.487,0.984s0.739,0.387,1.243,0.387
		c0.744,0,1.433-0.195,2.069-0.584c0.635-0.39,0.953-0.795,0.953-1.217V13.766z"/>
	<path d="M132.748,16.411h2.917c0.228,0,0.396,0.048,0.505,0.145s0.163,0.25,0.163,0.461c0,0.24-0.051,0.406-0.154,0.497
		s-0.292,0.136-0.566,0.136h-5.745c-0.229,0-0.401-0.053-0.518-0.158c-0.117-0.105-0.176-0.264-0.176-0.475
		c0-0.205,0.06-0.357,0.18-0.457c0.12-0.1,0.306-0.149,0.558-0.149h1.528v-5.643h-0.597c-0.568,0-0.922-0.045-1.063-0.135
		s-0.211-0.254-0.211-0.493c0-0.204,0.057-0.356,0.171-0.458c0.114-0.102,0.289-0.153,0.522-0.153h2.003
		c0.158,0,0.278,0.031,0.36,0.092s0.123,0.151,0.123,0.268v1.494c0.556-0.697,1.136-1.216,1.739-1.556s1.253-0.51,1.95-0.51
		c0.521,0,0.942,0.105,1.265,0.314c0.322,0.21,0.483,0.48,0.483,0.812c0,0.215-0.081,0.407-0.241,0.574
		c-0.161,0.167-0.338,0.25-0.532,0.25c-0.135,0-0.361-0.089-0.681-0.268s-0.604-0.268-0.856-0.268c-0.457,0-0.938,0.163-1.445,0.489
		s-1.067,0.84-1.682,1.544V16.411z"/>
	<path d="M143.815,7.411h-1.493c-0.568,0-0.924-0.045-1.067-0.136s-0.215-0.256-0.215-0.497c0-0.211,0.06-0.369,0.18-0.475
		s0.294-0.158,0.523-0.158h2.898c0.158,0,0.281,0.032,0.369,0.097s0.132,0.152,0.132,0.264v9.905h2.758
		c0.222,0,0.385,0.048,0.487,0.145s0.154,0.25,0.154,0.461c0,0.24-0.05,0.406-0.149,0.497s-0.287,0.136-0.562,0.136h-6.482
		c-0.229,0-0.403-0.053-0.522-0.158c-0.12-0.105-0.18-0.264-0.18-0.475c0-0.205,0.062-0.357,0.185-0.457s0.307-0.149,0.553-0.149
		h2.433V7.411z"/>
	<path d="M153.477,16.209c0-0.457,0.16-0.832,0.479-1.125c0.319-0.293,0.733-0.439,1.243-0.439c0.521,0,0.94,0.144,1.256,0.431
		c0.316,0.287,0.474,0.665,0.474,1.134s-0.16,0.847-0.479,1.134c-0.319,0.287-0.737,0.431-1.252,0.431s-0.931-0.144-1.247-0.431
		C153.635,17.056,153.477,16.678,153.477,16.209z"/>
	<path d="M169.253,12.755c0-0.826-0.074-1.384-0.223-1.674s-0.404-0.435-0.766-0.435c-0.432,0-0.775,0.188-1.028,0.562
		c-0.254,0.375-0.381,0.891-0.381,1.547v3.656h0.157c0.354,0,0.591,0.042,0.71,0.127s0.179,0.245,0.179,0.479
		c0,0.211-0.05,0.369-0.149,0.475s-0.252,0.158-0.457,0.158h-1.115c-0.252,0-0.423-0.059-0.514-0.176
		c-0.091-0.117-0.136-0.369-0.136-0.756v-0.255v-3.709v-0.686c0-0.439-0.1-0.787-0.299-1.042s-0.471-0.382-0.817-0.382
		c-0.264,0-0.505,0.078-0.725,0.233s-0.408,0.385-0.566,0.69v4.843h0.323c0.349,0,0.584,0.044,0.706,0.132s0.183,0.246,0.183,0.475
		c0,0.24-0.05,0.406-0.149,0.497s-0.289,0.136-0.569,0.136h-2.331c-0.228,0-0.396-0.051-0.504-0.154
		c-0.108-0.103-0.162-0.262-0.162-0.479c0-0.234,0.068-0.394,0.205-0.479c0.136-0.085,0.402-0.127,0.797-0.127h0.174v-5.643h-0.157
		c-0.407,0-0.685-0.046-0.833-0.14c-0.148-0.093-0.222-0.256-0.222-0.489c0-0.204,0.059-0.356,0.176-0.458
		c0.117-0.102,0.292-0.153,0.527-0.153h1.344c0.193,0,0.321,0.034,0.382,0.101s0.098,0.208,0.11,0.423
		c0.24-0.256,0.499-0.446,0.774-0.568c0.275-0.123,0.586-0.184,0.933-0.184c0.411,0,0.75,0.089,1.016,0.267
		c0.267,0.178,0.465,0.447,0.594,0.809c0.246-0.367,0.53-0.638,0.853-0.813s0.691-0.262,1.107-0.262
		c0.756,0,1.308,0.246,1.657,0.738s0.523,1.289,0.523,2.391v3.981h0.14c0.36,0,0.601,0.044,0.723,0.132s0.183,0.246,0.183,0.475
		c0,0.211-0.053,0.369-0.158,0.475s-0.261,0.158-0.465,0.158h-1.063c-0.234,0-0.407-0.07-0.518-0.211
		c-0.111-0.141-0.167-0.363-0.167-0.668V12.755z"/>
	<path d="M173.82,13.977c0.047,0.847,0.332,1.501,0.856,1.962c0.524,0.462,1.24,0.692,2.147,0.692c0.685,0,1.432-0.183,2.24-0.549
		s1.297-0.549,1.467-0.549c0.176,0,0.322,0.056,0.439,0.167s0.176,0.249,0.176,0.413c0,0.17-0.062,0.325-0.185,0.465
		s-0.319,0.277-0.588,0.411c-0.586,0.285-1.19,0.503-1.814,0.654s-1.243,0.227-1.858,0.227c-1.335,0-2.404-0.385-3.206-1.156
		s-1.203-1.792-1.203-3.063c0-1.295,0.424-2.344,1.273-3.146s1.956-1.204,3.32-1.204c1.235,0,2.26,0.375,3.074,1.125
		s1.221,1.658,1.221,2.725c0,0.328-0.069,0.548-0.207,0.659c-0.138,0.111-0.511,0.167-1.12,0.167h-0.132H173.82z M173.864,12.825
		h5.718c-0.088-0.697-0.379-1.258-0.874-1.683c-0.495-0.425-1.103-0.637-1.823-0.637c-0.779,0-1.435,0.205-1.967,0.615
		C174.385,11.53,174.034,12.099,173.864,12.825z"/>
	<path d="M188.401,16.411h2.82c0.228,0,0.396,0.048,0.505,0.145s0.163,0.25,0.163,0.461c0,0.24-0.051,0.406-0.154,0.497
		s-0.292,0.136-0.566,0.136h-6.808c-0.234,0-0.41-0.053-0.527-0.158s-0.176-0.264-0.176-0.475c0-0.205,0.062-0.357,0.185-0.457
		s0.308-0.149,0.553-0.149h2.679v-5.643h-1.719c-0.241,0-0.424-0.054-0.551-0.161c-0.126-0.108-0.189-0.264-0.189-0.467
		s0.059-0.356,0.176-0.458c0.117-0.102,0.292-0.153,0.527-0.153h2.574c0.158,0,0.282,0.032,0.373,0.097s0.136,0.152,0.136,0.264
		V16.411z M186.776,6.998c0-0.633,0.057-1.031,0.171-1.195s0.358-0.246,0.733-0.246c0.363,0,0.603,0.069,0.72,0.207
		s0.176,0.464,0.176,0.98c0,0.504-0.054,0.816-0.163,0.936s-0.353,0.18-0.733,0.18c-0.375,0-0.619-0.056-0.733-0.167
		S186.776,7.35,186.776,6.998z"/>
	<path d="M195.111,16.411v-5.634h-0.167c-0.398,0-0.672-0.047-0.821-0.141c-0.149-0.094-0.224-0.258-0.224-0.492
		c0-0.217,0.062-0.374,0.185-0.47c0.123-0.097,0.322-0.145,0.597-0.145h0.413h0.843c0.158,0,0.281,0.032,0.369,0.097
		s0.132,0.152,0.132,0.264v0.598c0.427-0.398,0.85-0.693,1.269-0.883c0.418-0.19,0.854-0.286,1.304-0.286
		c0.884,0,1.58,0.275,2.086,0.826c0.506,0.551,0.76,1.312,0.76,2.285v3.981h0.416c0.295,0,0.507,0.048,0.637,0.145
		c0.129,0.097,0.194,0.25,0.194,0.461c0,0.229-0.069,0.391-0.207,0.488c-0.138,0.097-0.383,0.145-0.735,0.145h-1.946
		c-0.376,0-0.616-0.044-0.722-0.132c-0.105-0.088-0.158-0.255-0.158-0.501c0-0.229,0.062-0.387,0.186-0.475
		c0.124-0.088,0.357-0.132,0.699-0.132h0.31v-3.656c0-0.686-0.155-1.208-0.466-1.569s-0.763-0.541-1.355-0.541
		c-0.599,0-1.127,0.202-1.584,0.606c-0.458,0.404-0.687,0.905-0.687,1.503v3.656h0.307c0.352,0,0.588,0.044,0.711,0.132
		s0.185,0.246,0.185,0.475c0,0.246-0.053,0.413-0.158,0.501s-0.363,0.132-0.773,0.132h-1.599h-0.474c-0.24,0-0.42-0.051-0.54-0.154
		c-0.12-0.103-0.18-0.262-0.18-0.479c0-0.234,0.069-0.394,0.207-0.479c0.137-0.085,0.405-0.127,0.804-0.127H195.111z"/>
	<path d="M208.313,16.411h2.917c0.228,0,0.396,0.048,0.505,0.145s0.163,0.25,0.163,0.461c0,0.24-0.051,0.406-0.154,0.497
		s-0.292,0.136-0.566,0.136h-5.745c-0.229,0-0.401-0.053-0.518-0.158c-0.117-0.105-0.176-0.264-0.176-0.475
		c0-0.205,0.06-0.357,0.18-0.457c0.12-0.1,0.306-0.149,0.558-0.149h1.528v-5.643h-0.597c-0.568,0-0.922-0.045-1.063-0.135
		s-0.211-0.254-0.211-0.493c0-0.204,0.057-0.356,0.171-0.458c0.114-0.102,0.289-0.153,0.522-0.153h2.003
		c0.158,0,0.278,0.031,0.36,0.092s0.123,0.151,0.123,0.268v1.494c0.556-0.697,1.136-1.216,1.739-1.556s1.253-0.51,1.95-0.51
		c0.521,0,0.942,0.105,1.265,0.314c0.322,0.21,0.483,0.48,0.483,0.812c0,0.215-0.081,0.407-0.241,0.574
		c-0.161,0.167-0.338,0.25-0.532,0.25c-0.135,0-0.361-0.089-0.681-0.268s-0.604-0.268-0.856-0.268c-0.457,0-0.938,0.163-1.445,0.489
		s-1.067,0.84-1.682,1.544V16.411z"/>
	<path d="M220.786,16.411h2.82c0.228,0,0.396,0.048,0.505,0.145s0.163,0.25,0.163,0.461c0,0.24-0.051,0.406-0.154,0.497
		s-0.292,0.136-0.566,0.136h-6.808c-0.234,0-0.41-0.053-0.527-0.158s-0.176-0.264-0.176-0.475c0-0.205,0.062-0.357,0.185-0.457
		s0.308-0.149,0.553-0.149h2.679v-5.643h-1.719c-0.241,0-0.424-0.054-0.551-0.161C217.063,10.5,217,10.344,217,10.14
		s0.059-0.356,0.176-0.458c0.117-0.102,0.292-0.153,0.527-0.153h2.574c0.158,0,0.282,0.032,0.373,0.097s0.136,0.152,0.136,0.264
		V16.411z M219.161,6.998c0-0.633,0.057-1.031,0.171-1.195s0.358-0.246,0.733-0.246c0.363,0,0.603,0.069,0.72,0.207
		s0.176,0.464,0.176,0.98c0,0.504-0.054,0.816-0.163,0.936s-0.353,0.18-0.733,0.18c-0.375,0-0.619-0.056-0.733-0.167
		S219.161,7.35,219.161,6.998z"/>
	<path d="M226.935,17.018v-1.564c0-0.258,0.048-0.442,0.145-0.554s0.253-0.167,0.47-0.167c0.24,0,0.431,0.164,0.571,0.492
		c0.093,0.199,0.178,0.349,0.254,0.448c0.246,0.316,0.609,0.57,1.089,0.76c0.48,0.19,1.01,0.286,1.59,0.286
		c0.621,0,1.118-0.126,1.493-0.378c0.375-0.252,0.562-0.583,0.562-0.993c0-0.416-0.151-0.712-0.452-0.888
		c-0.302-0.176-0.818-0.264-1.55-0.264h-0.483c-1.194,0-2.105-0.208-2.731-0.624c-0.627-0.416-0.94-1.02-0.94-1.811
		c0-0.773,0.306-1.374,0.918-1.802s1.471-0.642,2.578-0.642c0.451,0,0.91,0.063,1.379,0.189c0.468,0.126,0.714,0.189,0.738,0.189
		c0.064,0,0.188-0.057,0.369-0.171c0.182-0.114,0.36-0.171,0.536-0.171c0.199,0,0.347,0.073,0.443,0.22s0.145,0.366,0.145,0.659
		v1.028c0,0.311-0.047,0.535-0.141,0.672s-0.243,0.207-0.448,0.207c-0.176,0-0.393-0.149-0.65-0.448
		c-0.182-0.205-0.331-0.36-0.448-0.466c-0.311-0.287-0.641-0.494-0.993-0.62c-0.351-0.126-0.764-0.189-1.238-0.189
		c-0.55,0-0.994,0.122-1.331,0.365c-0.337,0.243-0.505,0.552-0.505,0.927c0,0.369,0.173,0.633,0.519,0.791
		c0.345,0.158,1.089,0.249,2.231,0.272c1.218,0.029,2.108,0.242,2.67,0.637c0.562,0.396,0.843,1.006,0.843,1.833
		c0,0.791-0.31,1.424-0.931,1.898c-0.621,0.475-1.458,0.712-2.512,0.712c-0.334,0-0.706-0.031-1.116-0.092s-0.925-0.166-1.546-0.312
		c-0.205,0.135-0.381,0.236-0.527,0.303c-0.146,0.067-0.27,0.101-0.369,0.101c-0.205,0-0.361-0.072-0.47-0.215
		S226.935,17.287,226.935,17.018z"/>
	<path d="M239.837,16.209c0-0.457,0.16-0.832,0.479-1.125c0.319-0.293,0.733-0.439,1.243-0.439c0.521,0,0.94,0.144,1.256,0.431
		c0.316,0.287,0.474,0.665,0.474,1.134s-0.16,0.847-0.479,1.134c-0.319,0.287-0.737,0.431-1.252,0.431s-0.931-0.144-1.247-0.431
		C239.996,17.056,239.837,16.678,239.837,16.209z"/>
	<path d="M254.999,17.65c-0.123,0-0.209-0.031-0.259-0.092s-0.075-0.18-0.075-0.356v-0.721c-0.351,0.439-0.791,0.781-1.317,1.024
		s-1.098,0.365-1.713,0.365c-1.107,0-2.033-0.394-2.78-1.182s-1.12-1.768-1.12-2.94c0-1.213,0.398-2.222,1.194-3.028
		s1.789-1.208,2.978-1.208c0.603,0,1.145,0.107,1.625,0.321c0.48,0.214,0.893,0.529,1.238,0.945V7.411h-0.465
		c-0.51,0-0.839-0.045-0.988-0.136s-0.224-0.256-0.224-0.497c0-0.211,0.06-0.369,0.18-0.475s0.294-0.158,0.522-0.158h1.801
		c0.176,0,0.303,0.029,0.382,0.088c0.079,0.059,0.118,0.149,0.118,0.272v9.905h0.396c0.287,0,0.495,0.048,0.624,0.145
		s0.193,0.25,0.193,0.461c0,0.199-0.056,0.354-0.167,0.466s-0.261,0.167-0.448,0.167H254.999z M249.245,13.704
		c0,0.809,0.261,1.471,0.782,1.986s1.183,0.773,1.985,0.773c0.808,0,1.473-0.268,1.994-0.804s0.782-1.217,0.782-2.043
		c0-0.814-0.259-1.485-0.777-2.013s-1.185-0.791-1.998-0.791c-0.826,0-1.494,0.267-2.003,0.8S249.245,12.843,249.245,13.704z"/>
	<path d="M260.181,13.977c0.047,0.847,0.332,1.501,0.856,1.962c0.524,0.462,1.24,0.692,2.147,0.692c0.685,0,1.432-0.183,2.24-0.549
		s1.297-0.549,1.467-0.549c0.176,0,0.322,0.056,0.439,0.167s0.176,0.249,0.176,0.413c0,0.17-0.062,0.325-0.185,0.465
		s-0.319,0.277-0.588,0.411c-0.586,0.285-1.19,0.503-1.814,0.654s-1.243,0.227-1.858,0.227c-1.335,0-2.404-0.385-3.206-1.156
		s-1.203-1.792-1.203-3.063c0-1.295,0.424-2.344,1.273-3.146s1.956-1.204,3.32-1.204c1.235,0,2.26,0.375,3.074,1.125
		s1.221,1.658,1.221,2.725c0,0.328-0.069,0.548-0.207,0.659c-0.138,0.111-0.511,0.167-1.12,0.167h-0.132H260.181z M260.225,12.825
		h5.718c-0.088-0.697-0.379-1.258-0.874-1.683c-0.495-0.425-1.103-0.637-1.823-0.637c-0.779,0-1.435,0.205-1.967,0.615
		C260.746,11.53,260.395,12.099,260.225,12.825z"/>
	<path d="M271.968,17.888c-0.129,0.293-0.25,0.492-0.365,0.598s-0.25,0.158-0.408,0.158c-0.164,0-0.308-0.06-0.431-0.18
		s-0.185-0.265-0.185-0.435c0-0.047,0.009-0.101,0.026-0.163s0.041-0.127,0.07-0.198l5.481-11.821
		c0.146-0.305,0.275-0.511,0.387-0.62c0.111-0.108,0.246-0.163,0.404-0.163c0.176,0,0.325,0.059,0.448,0.176
		s0.185,0.258,0.185,0.422c0,0.047-0.008,0.1-0.022,0.158c-0.015,0.059-0.037,0.114-0.066,0.167L271.968,17.888z"/>
	<path d="M282.473,10.795c0.328-0.41,0.738-0.724,1.229-0.94c0.492-0.217,1.048-0.325,1.669-0.325c1.177,0,2.158,0.397,2.943,1.191
		c0.784,0.794,1.177,1.777,1.177,2.949c0,1.154-0.403,2.133-1.208,2.936c-0.805,0.803-1.788,1.204-2.947,1.204
		c-0.615,0-1.15-0.108-1.607-0.325c-0.457-0.217-0.832-0.545-1.124-0.984v0.703c0,0.158-0.028,0.272-0.083,0.343
		s-0.148,0.105-0.277,0.105h-1.607c-0.228,0-0.398-0.053-0.509-0.158s-0.167-0.264-0.167-0.475c0-0.234,0.067-0.394,0.202-0.479
		s0.401-0.127,0.799-0.127h0.185v-9h-0.167c-0.398,0-0.67-0.047-0.817-0.141s-0.22-0.258-0.22-0.492
		c0-0.211,0.059-0.369,0.176-0.475s0.29-0.158,0.518-0.158h1.335c0.175,0,0.303,0.029,0.382,0.088s0.119,0.149,0.119,0.272V10.795z
		 M285.214,16.429c0.825,0,1.496-0.261,2.011-0.782s0.773-1.198,0.773-2.03c0-0.814-0.262-1.485-0.786-2.013
		s-1.19-0.791-1.998-0.791c-0.814,0-1.48,0.262-1.999,0.787s-0.777,1.197-0.777,2.017s0.259,1.494,0.777,2.021
		S284.399,16.429,285.214,16.429z"/>
	<path d="M300.146,13.599c0,1.254-0.427,2.279-1.282,3.076s-1.965,1.195-3.329,1.195c-1.358,0-2.465-0.398-3.32-1.195
		s-1.282-1.822-1.282-3.076s0.427-2.278,1.282-3.072s1.962-1.191,3.32-1.191s2.467,0.398,3.325,1.195S300.146,12.351,300.146,13.599
		z M295.534,16.631c0.902,0,1.641-0.285,2.218-0.855c0.577-0.571,0.865-1.297,0.865-2.181c0-0.883-0.29-1.613-0.87-2.19
		c-0.58-0.576-1.317-0.864-2.213-0.864s-1.632,0.288-2.209,0.864c-0.577,0.577-0.865,1.307-0.865,2.19
		c0,0.889,0.287,1.618,0.861,2.186C293.895,16.347,294.632,16.631,295.534,16.631z"/>
	<path d="M308.974,17.65c-0.123,0-0.209-0.031-0.259-0.092s-0.075-0.18-0.075-0.356v-0.721c-0.351,0.439-0.791,0.781-1.317,1.024
		s-1.098,0.365-1.713,0.365c-1.107,0-2.033-0.394-2.78-1.182s-1.12-1.768-1.12-2.94c0-1.213,0.398-2.222,1.194-3.028
		s1.789-1.208,2.978-1.208c0.603,0,1.145,0.107,1.625,0.321c0.48,0.214,0.893,0.529,1.238,0.945V7.411h-0.465
		c-0.51,0-0.839-0.045-0.988-0.136s-0.224-0.256-0.224-0.497c0-0.211,0.06-0.369,0.18-0.475s0.294-0.158,0.522-0.158h1.801
		c0.176,0,0.303,0.029,0.382,0.088c0.079,0.059,0.118,0.149,0.118,0.272v9.905h0.396c0.287,0,0.495,0.048,0.624,0.145
		s0.193,0.25,0.193,0.461c0,0.199-0.056,0.354-0.167,0.466s-0.261,0.167-0.448,0.167H308.974z M303.22,13.704
		c0,0.809,0.261,1.471,0.782,1.986s1.183,0.773,1.985,0.773c0.808,0,1.473-0.268,1.994-0.804s0.782-1.217,0.782-2.043
		c0-0.814-0.259-1.485-0.777-2.013s-1.185-0.791-1.998-0.791c-0.826,0-1.494,0.267-2.003,0.8S303.22,12.843,303.22,13.704z"/>
	<path d="M316.466,19.9h0.377c0.428,0,0.717,0.045,0.87,0.136s0.229,0.256,0.229,0.497c0,0.205-0.06,0.36-0.18,0.466
		s-0.294,0.158-0.522,0.158h-4.049c-0.275,0-0.467-0.047-0.575-0.141s-0.163-0.255-0.163-0.483c0-0.211,0.057-0.369,0.171-0.475
		s0.286-0.158,0.514-0.158h1.906l1.423-2.807l-3.224-6.325c-0.386,0-0.651-0.046-0.795-0.14s-0.215-0.256-0.215-0.489
		c0-0.204,0.059-0.356,0.176-0.458c0.117-0.102,0.293-0.153,0.527-0.153h2.451c0.328,0,0.548,0.045,0.659,0.135
		c0.111,0.09,0.167,0.249,0.167,0.476c0,0.233-0.073,0.396-0.219,0.489c-0.146,0.093-0.416,0.14-0.808,0.14h-0.325l2.38,4.852
		l2.424-4.852h-0.343c-0.404,0-0.682-0.046-0.834-0.14s-0.228-0.256-0.228-0.489c0-0.227,0.056-0.385,0.167-0.476
		c0.111-0.09,0.334-0.135,0.668-0.135h2.169c0.24,0,0.417,0.051,0.531,0.153c0.114,0.102,0.171,0.254,0.171,0.458
		c0,0.221-0.064,0.378-0.193,0.471c-0.129,0.093-0.357,0.146-0.685,0.157L316.466,19.9z"/>
	<path d="M325.943,17.888c-0.129,0.293-0.25,0.492-0.365,0.598s-0.25,0.158-0.408,0.158c-0.164,0-0.308-0.06-0.431-0.18
		s-0.185-0.265-0.185-0.435c0-0.047,0.009-0.101,0.026-0.163s0.041-0.127,0.07-0.198l5.481-11.821
		c0.146-0.305,0.275-0.511,0.387-0.62c0.111-0.108,0.246-0.163,0.404-0.163c0.176,0,0.325,0.059,0.448,0.176
		s0.185,0.258,0.185,0.422c0,0.047-0.008,0.1-0.022,0.158c-0.015,0.059-0.037,0.114-0.066,0.167L325.943,17.888z"/>
	<path d="M336.616,8.22c-0.076,0.012-0.133,0.021-0.171,0.026s-0.072,0.009-0.101,0.009c-0.182,0-0.329-0.051-0.443-0.154
		s-0.171-0.239-0.171-0.409c0-0.141,0.05-0.264,0.149-0.369s0.243-0.185,0.43-0.237l2.609-0.703c0.064-0.018,0.127-0.031,0.189-0.04
		s0.124-0.013,0.188-0.013c0.111,0,0.199,0.051,0.264,0.154s0.097,0.242,0.097,0.417v9.51h1.405c0.521,0,0.852,0.042,0.993,0.127
		s0.211,0.245,0.211,0.479c0,0.211-0.059,0.369-0.176,0.475s-0.293,0.158-0.527,0.158h-5.253c-0.234,0-0.41-0.053-0.527-0.158
		s-0.176-0.264-0.176-0.475c0-0.234,0.07-0.394,0.211-0.479s0.471-0.127,0.993-0.127h1.458V7.824L336.616,8.22z"/>
	<path d="M347.534,17.888c-0.129,0.293-0.25,0.492-0.365,0.598s-0.25,0.158-0.408,0.158c-0.164,0-0.308-0.06-0.431-0.18
		s-0.185-0.265-0.185-0.435c0-0.047,0.009-0.101,0.026-0.163s0.041-0.127,0.07-0.198l5.481-11.821
		c0.146-0.305,0.275-0.511,0.387-0.62c0.111-0.108,0.246-0.163,0.404-0.163c0.176,0,0.325,0.059,0.448,0.176
		s0.185,0.258,0.185,0.422c0,0.047-0.008,0.1-0.022,0.158c-0.015,0.059-0.037,0.114-0.066,0.167L347.534,17.888z"/>
	<path d="M358.039,19.9h2.108c0.223,0,0.39,0.053,0.501,0.158c0.111,0.105,0.167,0.264,0.167,0.475c0,0.229-0.054,0.39-0.162,0.483
		c-0.108,0.094-0.3,0.141-0.576,0.141h-3.874c-0.234,0-0.411-0.053-0.531-0.158s-0.18-0.261-0.18-0.466
		c0-0.234,0.075-0.398,0.224-0.492s0.426-0.141,0.83-0.141h0.167v-9.123h-0.167c-0.404,0-0.681-0.047-0.83-0.141
		s-0.224-0.258-0.224-0.492c0-0.205,0.06-0.359,0.18-0.461s0.297-0.154,0.531-0.154h1.335c0.175,0,0.303,0.029,0.382,0.088
		s0.119,0.149,0.119,0.272v0.853c0.398-0.41,0.839-0.718,1.322-0.923c0.483-0.205,1.003-0.308,1.559-0.308
		c1.177,0,2.161,0.398,2.952,1.195s1.186,1.796,1.186,2.997c0,1.154-0.375,2.104-1.124,2.848c-0.75,0.744-1.707,1.116-2.873,1.116
		c-0.621,0-1.191-0.11-1.713-0.33c-0.521-0.22-0.957-0.535-1.309-0.945V19.9z M360.762,16.376c0.813,0,1.481-0.256,2.002-0.769
		c0.521-0.513,0.782-1.176,0.782-1.991c0-0.797-0.262-1.455-0.786-1.973s-1.19-0.778-1.998-0.778s-1.47,0.258-1.985,0.773
		s-0.773,1.175-0.773,1.978c0,0.809,0.256,1.471,0.769,1.986S359.947,16.376,360.762,16.376z"/>
	<path d="M368.131,13.977c0.047,0.847,0.332,1.501,0.856,1.962c0.524,0.462,1.24,0.692,2.147,0.692c0.685,0,1.432-0.183,2.24-0.549
		s1.297-0.549,1.467-0.549c0.176,0,0.322,0.056,0.439,0.167s0.176,0.249,0.176,0.413c0,0.17-0.062,0.325-0.185,0.465
		s-0.319,0.277-0.588,0.411c-0.586,0.285-1.19,0.503-1.814,0.654s-1.243,0.227-1.858,0.227c-1.335,0-2.404-0.385-3.206-1.156
		s-1.203-1.792-1.203-3.063c0-1.295,0.424-2.344,1.273-3.146s1.956-1.204,3.32-1.204c1.235,0,2.26,0.375,3.074,1.125
		s1.221,1.658,1.221,2.725c0,0.328-0.069,0.548-0.207,0.659c-0.138,0.111-0.511,0.167-1.12,0.167h-0.132H368.131z M368.175,12.825
		h5.718c-0.088-0.697-0.379-1.258-0.874-1.683c-0.495-0.425-1.103-0.637-1.823-0.637c-0.779,0-1.435,0.205-1.967,0.615
		C368.696,11.53,368.345,12.099,368.175,12.825z"/>
	<path d="M381.033,16.411h2.917c0.228,0,0.396,0.048,0.505,0.145s0.162,0.25,0.162,0.461c0,0.24-0.051,0.406-0.153,0.497
		s-0.292,0.136-0.566,0.136h-5.745c-0.229,0-0.4-0.053-0.518-0.158s-0.176-0.264-0.176-0.475c0-0.205,0.06-0.357,0.18-0.457
		c0.12-0.1,0.306-0.149,0.558-0.149h1.527v-5.643h-0.597c-0.568,0-0.923-0.045-1.063-0.135s-0.211-0.254-0.211-0.493
		c0-0.204,0.058-0.356,0.172-0.458c0.114-0.102,0.289-0.153,0.522-0.153h2.003c0.158,0,0.277,0.031,0.359,0.092
		s0.123,0.151,0.123,0.268v1.494c0.557-0.697,1.137-1.216,1.74-1.556c0.603-0.34,1.252-0.51,1.949-0.51
		c0.521,0,0.943,0.105,1.266,0.314c0.321,0.21,0.482,0.48,0.482,0.812c0,0.215-0.08,0.407-0.241,0.574s-0.339,0.25-0.532,0.25
		c-0.135,0-0.361-0.089-0.68-0.268c-0.32-0.179-0.605-0.268-0.857-0.268c-0.456,0-0.938,0.163-1.444,0.489s-1.067,0.84-1.683,1.544
		V16.411z"/>
	<path d="M388.86,17.018v-1.564c0-0.258,0.048-0.442,0.146-0.554c0.096-0.111,0.252-0.167,0.469-0.167
		c0.24,0,0.432,0.164,0.572,0.492c0.093,0.199,0.178,0.349,0.254,0.448c0.246,0.316,0.609,0.57,1.09,0.76
		c0.479,0.19,1.01,0.286,1.588,0.286c0.621,0,1.119-0.126,1.494-0.378s0.562-0.583,0.562-0.993c0-0.416-0.15-0.712-0.453-0.888
		c-0.301-0.176-0.818-0.264-1.551-0.264h-0.482c-1.193,0-2.104-0.208-2.73-0.624c-0.627-0.416-0.94-1.02-0.94-1.811
		c0-0.773,0.306-1.374,0.918-1.802s1.472-0.642,2.577-0.642c0.451,0,0.91,0.063,1.379,0.189s0.715,0.189,0.738,0.189
		c0.064,0,0.188-0.057,0.369-0.171s0.359-0.171,0.535-0.171c0.199,0,0.348,0.073,0.443,0.22c0.098,0.146,0.145,0.366,0.145,0.659
		v1.028c0,0.311-0.047,0.535-0.139,0.672c-0.094,0.138-0.244,0.207-0.449,0.207c-0.176,0-0.393-0.149-0.65-0.448
		c-0.182-0.205-0.33-0.36-0.447-0.466c-0.311-0.287-0.641-0.494-0.992-0.62s-0.764-0.189-1.238-0.189
		c-0.551,0-0.994,0.122-1.33,0.365c-0.338,0.243-0.506,0.552-0.506,0.927c0,0.369,0.173,0.633,0.519,0.791
		c0.345,0.158,1.089,0.249,2.229,0.272c1.219,0.029,2.109,0.242,2.672,0.637c0.561,0.396,0.842,1.006,0.842,1.833
		c0,0.791-0.311,1.424-0.93,1.898c-0.621,0.475-1.459,0.712-2.514,0.712c-0.332,0-0.705-0.031-1.115-0.092
		c-0.408-0.062-0.924-0.166-1.545-0.312c-0.205,0.135-0.381,0.236-0.527,0.303s-0.27,0.101-0.369,0.101
		c-0.205,0-0.361-0.072-0.469-0.215C388.914,17.494,388.86,17.287,388.86,17.018z"/>
	<path d="M408.098,13.599c0,1.254-0.428,2.279-1.283,3.076s-1.965,1.195-3.328,1.195c-1.359,0-2.467-0.398-3.32-1.195
		c-0.855-0.797-1.283-1.822-1.283-3.076s0.428-2.278,1.283-3.072c0.854-0.794,1.961-1.191,3.32-1.191
		c1.357,0,2.465,0.398,3.324,1.195C407.668,11.328,408.098,12.351,408.098,13.599z M403.486,16.631c0.9,0,1.641-0.285,2.217-0.855
		c0.576-0.571,0.865-1.297,0.865-2.181c0-0.883-0.289-1.613-0.869-2.19c-0.58-0.576-1.318-0.864-2.213-0.864
		c-0.896,0-1.633,0.288-2.211,0.864c-0.576,0.577-0.863,1.307-0.863,2.19c0,0.889,0.285,1.618,0.859,2.186
		C401.846,16.347,402.584,16.631,403.486,16.631z"/>
	<path d="M411.014,16.411v-5.634h-0.168c-0.398,0-0.672-0.047-0.82-0.141c-0.15-0.094-0.225-0.258-0.225-0.492
		c0-0.217,0.061-0.374,0.184-0.47s0.322-0.145,0.598-0.145h0.414h0.842c0.158,0,0.281,0.032,0.369,0.097s0.133,0.152,0.133,0.264
		v0.598c0.426-0.398,0.85-0.693,1.268-0.883c0.42-0.19,0.854-0.286,1.305-0.286c0.885,0,1.58,0.275,2.086,0.826
		c0.508,0.551,0.76,1.312,0.76,2.285v3.981h0.416c0.295,0,0.508,0.048,0.637,0.145c0.131,0.097,0.195,0.25,0.195,0.461
		c0,0.229-0.068,0.391-0.207,0.488s-0.383,0.145-0.734,0.145h-1.945c-0.377,0-0.617-0.044-0.723-0.132s-0.158-0.255-0.158-0.501
		c0-0.229,0.061-0.387,0.186-0.475c0.123-0.088,0.357-0.132,0.699-0.132h0.309v-3.656c0-0.686-0.154-1.208-0.467-1.569
		c-0.311-0.36-0.762-0.541-1.355-0.541c-0.598,0-1.127,0.202-1.584,0.606s-0.686,0.905-0.686,1.503v3.656h0.307
		c0.352,0,0.588,0.044,0.711,0.132s0.186,0.246,0.186,0.475c0,0.246-0.053,0.413-0.158,0.501s-0.363,0.132-0.773,0.132h-1.598
		h-0.475c-0.24,0-0.42-0.051-0.541-0.154c-0.119-0.103-0.18-0.262-0.18-0.479c0-0.234,0.068-0.394,0.207-0.479
		c0.137-0.085,0.404-0.127,0.803-0.127H411.014z"/>
	<path d="M423.1,17.888c-0.129,0.293-0.252,0.492-0.365,0.598s-0.25,0.158-0.408,0.158c-0.164,0-0.307-0.06-0.43-0.18
		s-0.186-0.265-0.186-0.435c0-0.047,0.01-0.101,0.027-0.163s0.041-0.127,0.07-0.198l5.48-11.821c0.146-0.305,0.275-0.511,0.387-0.62
		s0.246-0.163,0.404-0.163c0.176,0,0.324,0.059,0.447,0.176s0.184,0.258,0.184,0.422c0,0.047-0.006,0.1-0.021,0.158
		c-0.014,0.059-0.037,0.114-0.066,0.167L423.1,17.888z"/>
	<path d="M434.666,13.115c0-0.316,0.055-0.565,0.164-0.747c0.107-0.182,0.293-0.34,0.557-0.475c0.158-0.082,0.393-0.196,0.703-0.343
		c1.154-0.533,1.73-1.157,1.73-1.872c0-0.539-0.191-0.977-0.57-1.314c-0.381-0.337-0.883-0.505-1.502-0.505
		c-0.41,0-0.789,0.054-1.135,0.163s-0.555,0.227-0.631,0.356c-0.018,0.035-0.035,0.12-0.053,0.255
		c-0.047,0.527-0.256,0.791-0.625,0.791c-0.193,0-0.346-0.07-0.461-0.211c-0.113-0.141-0.17-0.328-0.17-0.562V7.789
		c0-0.322,0.314-0.595,0.947-0.817s1.402-0.334,2.311-0.334c0.979,0,1.773,0.284,2.385,0.853s0.918,1.304,0.918,2.206
		c0,0.721-0.248,1.329-0.744,1.824s-1.33,0.959-2.498,1.393v0.703c0,0.193-0.061,0.35-0.186,0.47c-0.123,0.12-0.285,0.18-0.486,0.18
		c-0.205,0-0.365-0.056-0.48-0.167s-0.174-0.267-0.174-0.466V13.115z M433.701,16.446c0-0.387,0.146-0.703,0.443-0.949
		c0.295-0.246,0.686-0.369,1.172-0.369c0.492,0,0.887,0.122,1.186,0.365s0.449,0.561,0.449,0.954s-0.152,0.712-0.453,0.958
		s-0.695,0.369-1.182,0.369c-0.48,0-0.869-0.125-1.168-0.374S433.701,16.833,433.701,16.446z"/>
	<path d="M449.309,10.057v-0.035c0-0.193,0.057-0.335,0.168-0.426s0.283-0.136,0.518-0.136c0.24,0,0.406,0.07,0.496,0.211
		c0.092,0.141,0.137,0.431,0.137,0.87v1.635c0,0.217-0.057,0.379-0.168,0.488s-0.277,0.163-0.5,0.163
		c-0.158,0-0.295-0.045-0.408-0.136c-0.115-0.091-0.254-0.28-0.418-0.567c-0.281-0.475-0.621-0.833-1.023-1.077
		c-0.4-0.243-0.861-0.365-1.383-0.365c-0.914,0-1.656,0.27-2.227,0.809s-0.857,1.236-0.857,2.092c0,0.873,0.275,1.586,0.822,2.14
		s1.252,0.831,2.113,0.831c0.391,0,0.766-0.054,1.119-0.163s0.689-0.271,1.006-0.488c0.111-0.07,0.26-0.179,0.447-0.325
		c0.381-0.311,0.68-0.466,0.896-0.466c0.182,0,0.33,0.057,0.443,0.171c0.115,0.114,0.172,0.262,0.172,0.444
		c0,0.463-0.438,0.936-1.314,1.419c-0.875,0.483-1.805,0.725-2.787,0.725c-1.271,0-2.33-0.407-3.176-1.222s-1.27-1.831-1.27-3.05
		s0.422-2.237,1.266-3.054c0.842-0.817,1.896-1.226,3.162-1.226c0.443,0,0.891,0.06,1.338,0.18
		C448.33,9.619,448.805,9.805,449.309,10.057z"/>
	<path d="M456.6,16.411h2.916c0.229,0,0.396,0.048,0.504,0.145c0.109,0.097,0.164,0.25,0.164,0.461c0,0.24-0.053,0.406-0.154,0.497
		c-0.104,0.091-0.291,0.136-0.566,0.136h-5.744c-0.229,0-0.402-0.053-0.52-0.158s-0.176-0.264-0.176-0.475
		c0-0.205,0.061-0.357,0.182-0.457c0.119-0.1,0.305-0.149,0.557-0.149h1.529v-5.643h-0.598c-0.568,0-0.922-0.045-1.062-0.135
		s-0.211-0.254-0.211-0.493c0-0.204,0.057-0.356,0.172-0.458c0.113-0.102,0.287-0.153,0.521-0.153h2.002
		c0.158,0,0.279,0.031,0.361,0.092S456.6,9.772,456.6,9.89v1.494c0.557-0.697,1.135-1.216,1.738-1.556s1.254-0.51,1.951-0.51
		c0.52,0,0.941,0.105,1.264,0.314c0.322,0.21,0.484,0.48,0.484,0.812c0,0.215-0.082,0.407-0.242,0.574
		c-0.162,0.167-0.338,0.25-0.531,0.25c-0.135,0-0.361-0.089-0.682-0.268c-0.318-0.179-0.604-0.268-0.855-0.268
		c-0.457,0-0.939,0.163-1.445,0.489s-1.066,0.84-1.682,1.544V16.411z"/>
	<path d="M465.285,13.977c0.047,0.847,0.334,1.501,0.857,1.962c0.523,0.462,1.24,0.692,2.148,0.692c0.684,0,1.432-0.183,2.238-0.549
		c0.809-0.366,1.297-0.549,1.467-0.549c0.176,0,0.322,0.056,0.439,0.167s0.176,0.249,0.176,0.413c0,0.17-0.061,0.325-0.184,0.465
		s-0.32,0.277-0.59,0.411c-0.584,0.285-1.189,0.503-1.812,0.654c-0.625,0.151-1.244,0.227-1.857,0.227
		c-1.336,0-2.404-0.385-3.207-1.156s-1.203-1.792-1.203-3.063c0-1.295,0.424-2.344,1.273-3.146s1.955-1.204,3.32-1.204
		c1.236,0,2.26,0.375,3.074,1.125s1.221,1.658,1.221,2.725c0,0.328-0.068,0.548-0.207,0.659c-0.137,0.111-0.51,0.167-1.119,0.167
		h-0.131H465.285z M465.33,12.825h5.719c-0.088-0.697-0.381-1.258-0.875-1.683s-1.102-0.637-1.822-0.637
		c-0.779,0-1.436,0.205-1.967,0.615C465.852,11.53,465.5,12.099,465.33,12.825z"/>
	<path d="M481.07,16.534c-0.48,0.434-1.004,0.765-1.568,0.993s-1.146,0.343-1.744,0.343c-0.871,0-1.576-0.243-2.111-0.729
		s-0.805-1.119-0.805-1.898c0-0.926,0.357-1.644,1.068-2.153s1.711-0.765,3-0.765c0.338,0,0.682,0.022,1.027,0.066
		s0.699,0.113,1.062,0.207v-0.062c0-0.674-0.162-1.172-0.482-1.494c-0.322-0.322-0.824-0.483-1.502-0.483
		c-0.457,0-0.967,0.123-1.529,0.369s-0.934,0.369-1.115,0.369c-0.17,0-0.311-0.069-0.422-0.207s-0.166-0.315-0.166-0.532
		c0-0.346,0.322-0.639,0.971-0.879c0.646-0.24,1.473-0.36,2.48-0.36c1.031,0,1.809,0.262,2.336,0.787s0.791,1.299,0.791,2.325v3.981
		h0.43c0.416,0,0.695,0.044,0.836,0.132s0.211,0.246,0.211,0.475c0,0.211-0.059,0.369-0.176,0.475s-0.293,0.158-0.527,0.158h-1.379
		c-0.164,0-0.299-0.05-0.404-0.149s-0.176-0.243-0.211-0.431L481.07,16.534z M481,13.766c-0.322-0.105-0.635-0.183-0.936-0.233
		s-0.602-0.075-0.9-0.075c-0.902,0-1.613,0.152-2.135,0.457s-0.781,0.715-0.781,1.23c0,0.398,0.162,0.727,0.488,0.984
		c0.324,0.258,0.738,0.387,1.242,0.387c0.744,0,1.434-0.195,2.068-0.584S481,15.137,481,14.715V13.766z"/>
	<path d="M492.242,10.021c0.287,0,0.496,0.05,0.629,0.149c0.131,0.1,0.197,0.258,0.197,0.475c0,0.205-0.061,0.359-0.184,0.461
		s-0.309,0.154-0.555,0.154h-3.557v2.936c0,0.961,0.125,1.594,0.373,1.898s0.676,0.457,1.277,0.457c0.533,0,1.172-0.155,1.916-0.466
		c0.742-0.311,1.203-0.466,1.379-0.466c0.164,0,0.303,0.059,0.416,0.176c0.115,0.117,0.172,0.261,0.172,0.431
		c0,0.193-0.072,0.362-0.215,0.505c-0.145,0.144-0.389,0.283-0.734,0.417c-0.572,0.229-1.09,0.396-1.549,0.501
		c-0.461,0.105-0.893,0.158-1.297,0.158c-0.684,0-1.26-0.11-1.725-0.33c-0.467-0.22-0.812-0.546-1.041-0.98
		c-0.117-0.205-0.201-0.448-0.25-0.729c-0.051-0.281-0.076-0.715-0.076-1.301v-0.272v-2.936h-1.492
		c-0.246,0-0.426-0.048-0.537-0.145s-0.166-0.253-0.166-0.47c0-0.24,0.076-0.404,0.229-0.492s0.477-0.132,0.975-0.132h0.992V8.22
		V7.754c0-0.252,0.055-0.438,0.164-0.558c0.107-0.12,0.275-0.18,0.504-0.18c0.258,0,0.436,0.073,0.535,0.22s0.15,0.48,0.15,1.002
		v1.784H492.242z"/>
	<path d="M497.672,13.977c0.047,0.847,0.332,1.501,0.855,1.962c0.525,0.462,1.24,0.692,2.148,0.692c0.686,0,1.432-0.183,2.24-0.549
		s1.297-0.549,1.467-0.549c0.176,0,0.322,0.056,0.439,0.167s0.176,0.249,0.176,0.413c0,0.17-0.062,0.325-0.186,0.465
		s-0.318,0.277-0.588,0.411c-0.586,0.285-1.189,0.503-1.814,0.654c-0.623,0.151-1.242,0.227-1.857,0.227
		c-1.336,0-2.404-0.385-3.205-1.156c-0.803-0.771-1.205-1.792-1.205-3.063c0-1.295,0.426-2.344,1.275-3.146
		c0.848-0.803,1.955-1.204,3.32-1.204c1.234,0,2.26,0.375,3.074,1.125c0.812,0.75,1.221,1.658,1.221,2.725
		c0,0.328-0.07,0.548-0.207,0.659c-0.139,0.111-0.512,0.167-1.119,0.167h-0.133H497.672z M497.715,12.825h5.719
		c-0.088-0.697-0.379-1.258-0.873-1.683c-0.496-0.425-1.104-0.637-1.822-0.637c-0.779,0-1.436,0.205-1.969,0.615
		S497.885,12.099,497.715,12.825z"/>
	<path d="M514.08,17.65c-0.123,0-0.211-0.031-0.26-0.092s-0.074-0.18-0.074-0.356v-0.721c-0.352,0.439-0.791,0.781-1.318,1.024
		s-1.098,0.365-1.713,0.365c-1.105,0-2.033-0.394-2.779-1.182s-1.119-1.768-1.119-2.94c0-1.213,0.396-2.222,1.193-3.028
		s1.789-1.208,2.979-1.208c0.602,0,1.145,0.107,1.625,0.321c0.479,0.214,0.893,0.529,1.238,0.945V7.411h-0.467
		c-0.508,0-0.838-0.045-0.988-0.136c-0.148-0.091-0.223-0.256-0.223-0.497c0-0.211,0.061-0.369,0.18-0.475s0.295-0.158,0.523-0.158
		h1.801c0.174,0,0.303,0.029,0.381,0.088c0.08,0.059,0.119,0.149,0.119,0.272v9.905h0.395c0.287,0,0.496,0.048,0.625,0.145
		c0.127,0.097,0.191,0.25,0.191,0.461c0,0.199-0.055,0.354-0.166,0.466s-0.26,0.167-0.447,0.167H514.08z M508.326,13.704
		c0,0.809,0.26,1.471,0.781,1.986s1.184,0.773,1.986,0.773c0.807,0,1.473-0.268,1.994-0.804c0.52-0.536,0.781-1.217,0.781-2.043
		c0-0.814-0.26-1.485-0.777-2.013c-0.52-0.527-1.186-0.791-1.998-0.791c-0.826,0-1.494,0.267-2.004,0.8
		S508.326,12.843,508.326,13.704z"/>
	<path d="M520.51,11.349c0-0.457,0.158-0.832,0.479-1.125c0.318-0.293,0.732-0.439,1.242-0.439c0.521,0,0.939,0.144,1.256,0.431
		s0.475,0.665,0.475,1.134s-0.16,0.847-0.479,1.134c-0.32,0.287-0.736,0.431-1.252,0.431s-0.932-0.144-1.248-0.431
		C520.668,12.195,520.51,11.817,520.51,11.349z M520.51,16.209c0-0.457,0.158-0.832,0.479-1.125
		c0.318-0.293,0.732-0.439,1.242-0.439c0.521,0,0.939,0.144,1.256,0.431s0.475,0.665,0.475,1.134s-0.16,0.847-0.479,1.134
		c-0.32,0.287-0.736,0.431-1.252,0.431s-0.932-0.144-1.248-0.431C520.668,17.056,520.51,16.678,520.51,16.209z"/>
	<path d="M535.371,12.087l-6.422-2.936c-0.27-0.123-0.459-0.245-0.57-0.365s-0.166-0.256-0.166-0.409
		c0-0.17,0.051-0.305,0.152-0.404c0.104-0.1,0.242-0.149,0.418-0.149c0.088,0,0.186,0.016,0.295,0.048
		c0.107,0.032,0.244,0.086,0.408,0.163l6.982,3.208c0.023,0.012,0.059,0.029,0.105,0.053c0.527,0.234,0.791,0.498,0.791,0.791
		c0,0.287-0.258,0.551-0.773,0.791c-0.059,0.023-0.1,0.041-0.123,0.053l-6.982,3.261l-0.035,0.018
		c-0.305,0.135-0.527,0.202-0.668,0.202c-0.176,0-0.314-0.053-0.418-0.158c-0.102-0.105-0.152-0.246-0.152-0.422
		c0-0.152,0.055-0.289,0.166-0.409s0.301-0.242,0.57-0.365L535.371,12.087z"/>
	<path d="M539.885,9.986h7.879c0.176,0,0.312,0.056,0.408,0.167c0.098,0.111,0.146,0.27,0.146,0.475
		c0,0.211-0.049,0.372-0.146,0.483c-0.096,0.111-0.232,0.167-0.408,0.167h-7.879c-0.182,0-0.32-0.054-0.416-0.163
		c-0.098-0.108-0.146-0.271-0.146-0.488c0-0.211,0.049-0.371,0.146-0.479C539.564,10.041,539.703,9.986,539.885,9.986z
		 M539.885,12.931h7.879c0.176,0,0.312,0.057,0.408,0.171c0.098,0.114,0.146,0.274,0.146,0.479c0,0.211-0.049,0.372-0.146,0.483
		c-0.096,0.111-0.232,0.167-0.408,0.167h-7.879c-0.182,0-0.32-0.056-0.416-0.167c-0.098-0.111-0.146-0.272-0.146-0.483
		s0.049-0.372,0.146-0.483C539.564,12.986,539.703,12.931,539.885,12.931z"/>
	<path d="M551.559,17.65c-0.311,0-0.541-0.063-0.689-0.189s-0.225-0.321-0.225-0.584c0-0.381,0.562-1.096,1.688-2.145l0.254-0.246
		c0.17-0.164,0.416-0.398,0.738-0.703c2.025-1.91,3.039-3.302,3.039-4.175c0-0.627-0.18-1.135-0.535-1.525
		c-0.357-0.39-0.82-0.584-1.389-0.584c-0.369,0-0.721,0.076-1.059,0.229c-0.336,0.152-0.607,0.357-0.812,0.615
		c-0.035,0.047-0.09,0.126-0.166,0.237c-0.217,0.393-0.461,0.589-0.73,0.589c-0.209,0-0.359-0.064-0.447-0.193
		s-0.131-0.375-0.131-0.738c0-0.211,0.02-0.365,0.061-0.461s0.117-0.201,0.229-0.312c0.375-0.363,0.84-0.652,1.393-0.866
		s1.119-0.321,1.699-0.321c0.973,0,1.785,0.314,2.438,0.941s0.979,1.398,0.979,2.313c0,1.149-0.994,2.677-2.986,4.583
		c-0.508,0.475-0.898,0.848-1.168,1.117l-1.08,1.038h4.014c0.023-0.255,0.094-0.449,0.207-0.582c0.115-0.133,0.268-0.2,0.461-0.2
		s0.346,0.064,0.457,0.193s0.166,0.305,0.166,0.527c0,0.018-0.002,0.048-0.008,0.092s-0.01,0.075-0.01,0.092l-0.07,0.677
		c-0.016,0.182-0.068,0.324-0.156,0.426s-0.203,0.154-0.344,0.154H551.559z"/>
	<path d="M565.41,17.94c-1.102,0-1.975-0.52-2.621-1.56c-0.648-1.04-0.971-2.465-0.971-4.276c0-1.805,0.322-3.227,0.971-4.267
		c0.646-1.04,1.52-1.56,2.621-1.56s1.977,0.521,2.627,1.564c0.648,1.043,0.975,2.464,0.975,4.263s-0.326,3.221-0.975,4.267
		C567.387,17.417,566.512,17.94,565.41,17.94z M565.41,7.534c-0.674,0-1.197,0.399-1.572,1.197
		c-0.375,0.797-0.562,1.923-0.562,3.378c0,1.46,0.188,2.591,0.562,3.392c0.375,0.8,0.898,1.201,1.572,1.201
		c0.68,0,1.207-0.4,1.582-1.201c0.373-0.801,0.561-1.931,0.561-3.392c0-1.455-0.188-2.581-0.561-3.378
		C566.617,7.933,566.09,7.534,565.41,7.534z"/>
	<path d="M574.107,8.22c-0.076,0.012-0.135,0.021-0.172,0.026c-0.039,0.006-0.072,0.009-0.102,0.009
		c-0.182,0-0.328-0.051-0.443-0.154c-0.113-0.103-0.172-0.239-0.172-0.409c0-0.141,0.051-0.264,0.15-0.369s0.242-0.185,0.43-0.237
		l2.609-0.703c0.064-0.018,0.127-0.031,0.189-0.04c0.061-0.009,0.123-0.013,0.188-0.013c0.111,0,0.199,0.051,0.264,0.154
		s0.098,0.242,0.098,0.417v9.51h1.404c0.521,0,0.854,0.042,0.992,0.127c0.141,0.085,0.211,0.245,0.211,0.479
		c0,0.211-0.059,0.369-0.176,0.475s-0.291,0.158-0.525,0.158h-5.254c-0.234,0-0.41-0.053-0.527-0.158s-0.174-0.264-0.174-0.475
		c0-0.234,0.07-0.394,0.209-0.479c0.141-0.085,0.473-0.127,0.994-0.127h1.457V7.824L574.107,8.22z"/>
	<path d="M584.92,11.894c0.316-0.41,0.666-0.718,1.053-0.923s0.809-0.308,1.266-0.308c0.926,0,1.711,0.349,2.357,1.046
		c0.648,0.697,0.971,1.556,0.971,2.575c0,1.066-0.312,1.942-0.939,2.628s-1.428,1.028-2.406,1.028c-1.154,0-2.078-0.458-2.771-1.375
		s-1.041-2.14-1.041-3.669c0-1.992,0.512-3.593,1.537-4.803s2.377-1.815,4.059-1.815c0.568,0,0.943,0.041,1.125,0.123
		c0.18,0.082,0.271,0.237,0.271,0.466c0,0.375-0.346,0.568-1.037,0.58c-0.457,0.006-0.822,0.035-1.098,0.088
		c-0.926,0.176-1.676,0.64-2.252,1.393C585.436,9.68,585.072,10.669,584.92,11.894z M585.113,14.231c0,0.721,0.189,1.308,0.57,1.762
		s0.869,0.681,1.467,0.681c0.562,0,1.023-0.214,1.383-0.642c0.361-0.428,0.541-0.987,0.541-1.679c0-0.715-0.186-1.295-0.559-1.74
		c-0.371-0.445-0.85-0.668-1.436-0.668c-0.568,0-1.037,0.214-1.41,0.642C585.299,13.016,585.113,13.563,585.113,14.231z"/>
	<path d="M594.133,14.442c-0.117,0-0.209-0.037-0.275-0.11c-0.068-0.073-0.102-0.174-0.102-0.303v-0.932
		c0-0.111,0.033-0.199,0.102-0.264c0.066-0.064,0.158-0.097,0.275-0.097h7.281c0.135,0,0.24,0.032,0.316,0.097
		s0.115,0.152,0.115,0.264v0.932c0,0.105-0.045,0.201-0.133,0.286s-0.188,0.127-0.299,0.127H594.133z"/>
	<path d="M608.592,17.94c-1.102,0-1.977-0.52-2.623-1.56s-0.971-2.465-0.971-4.276c0-1.805,0.324-3.227,0.971-4.267
		s1.521-1.56,2.623-1.56c1.1,0,1.975,0.521,2.625,1.564s0.975,2.464,0.975,4.263s-0.324,3.221-0.975,4.267
		S609.691,17.94,608.592,17.94z M608.592,7.534c-0.674,0-1.199,0.399-1.572,1.197c-0.375,0.797-0.562,1.923-0.562,3.378
		c0,1.46,0.188,2.591,0.562,3.392c0.373,0.8,0.898,1.201,1.572,1.201c0.678,0,1.205-0.4,1.58-1.201
		c0.375-0.801,0.562-1.931,0.562-3.392c0-1.455-0.188-2.581-0.562-3.378C609.797,7.933,609.27,7.534,608.592,7.534z"/>
	<path d="M616.33,17.65c-0.311,0-0.541-0.063-0.691-0.189c-0.148-0.126-0.223-0.321-0.223-0.584c0-0.381,0.562-1.096,1.686-2.145
		l0.256-0.246c0.17-0.164,0.416-0.398,0.736-0.703c2.027-1.91,3.039-3.302,3.039-4.175c0-0.627-0.178-1.135-0.535-1.525
		s-0.82-0.584-1.387-0.584c-0.369,0-0.723,0.076-1.059,0.229c-0.338,0.152-0.607,0.357-0.812,0.615
		c-0.035,0.047-0.092,0.126-0.168,0.237c-0.217,0.393-0.459,0.589-0.729,0.589c-0.211,0-0.359-0.064-0.447-0.193
		s-0.133-0.375-0.133-0.738c0-0.211,0.021-0.365,0.062-0.461s0.117-0.201,0.229-0.312c0.373-0.363,0.838-0.652,1.391-0.866
		c0.555-0.214,1.121-0.321,1.701-0.321c0.971,0,1.783,0.314,2.438,0.941c0.652,0.627,0.979,1.398,0.979,2.313
		c0,1.149-0.996,2.677-2.986,4.583c-0.51,0.475-0.898,0.848-1.168,1.117l-1.08,1.038h4.014c0.023-0.255,0.092-0.449,0.207-0.582
		c0.113-0.133,0.268-0.2,0.461-0.2s0.346,0.064,0.457,0.193c0.109,0.129,0.166,0.305,0.166,0.527c0,0.018-0.004,0.048-0.01,0.092
		s-0.008,0.075-0.008,0.092l-0.07,0.677c-0.018,0.182-0.07,0.324-0.158,0.426s-0.201,0.154-0.342,0.154H616.33z"/>
	<path d="M626.518,14.442c-0.117,0-0.209-0.037-0.275-0.11c-0.068-0.073-0.102-0.174-0.102-0.303v-0.932
		c0-0.111,0.033-0.199,0.102-0.264c0.066-0.064,0.158-0.097,0.275-0.097h7.281c0.135,0,0.24,0.032,0.316,0.097
		s0.115,0.152,0.115,0.264v0.932c0,0.105-0.045,0.201-0.133,0.286s-0.188,0.127-0.299,0.127H626.518z"/>
	<path d="M638.877,8.22c-0.076,0.012-0.135,0.021-0.172,0.026c-0.039,0.006-0.072,0.009-0.102,0.009
		c-0.182,0-0.328-0.051-0.443-0.154c-0.113-0.103-0.172-0.239-0.172-0.409c0-0.141,0.051-0.264,0.15-0.369s0.242-0.185,0.43-0.237
		l2.609-0.703c0.064-0.018,0.127-0.031,0.189-0.04c0.061-0.009,0.123-0.013,0.188-0.013c0.111,0,0.199,0.051,0.264,0.154
		s0.098,0.242,0.098,0.417v9.51h1.404c0.521,0,0.854,0.042,0.992,0.127c0.141,0.085,0.211,0.245,0.211,0.479
		c0,0.211-0.059,0.369-0.176,0.475s-0.291,0.158-0.525,0.158h-5.254c-0.234,0-0.41-0.053-0.527-0.158s-0.174-0.264-0.174-0.475
		c0-0.234,0.07-0.394,0.209-0.479c0.141-0.085,0.473-0.127,0.994-0.127h1.457V7.824L638.877,8.22z"/>
	<path d="M648.715,17.65c-0.311,0-0.541-0.063-0.691-0.189c-0.148-0.126-0.223-0.321-0.223-0.584c0-0.381,0.562-1.096,1.686-2.145
		l0.256-0.246c0.17-0.164,0.416-0.398,0.736-0.703c2.027-1.91,3.039-3.302,3.039-4.175c0-0.627-0.178-1.135-0.535-1.525
		s-0.82-0.584-1.387-0.584c-0.369,0-0.723,0.076-1.059,0.229c-0.338,0.152-0.607,0.357-0.812,0.615
		c-0.035,0.047-0.092,0.126-0.168,0.237c-0.217,0.393-0.459,0.589-0.729,0.589c-0.211,0-0.359-0.064-0.447-0.193
		s-0.133-0.375-0.133-0.738c0-0.211,0.021-0.365,0.062-0.461s0.117-0.201,0.229-0.312c0.373-0.363,0.838-0.652,1.391-0.866
		c0.555-0.214,1.121-0.321,1.701-0.321c0.971,0,1.783,0.314,2.438,0.941c0.652,0.627,0.979,1.398,0.979,2.313
		c0,1.149-0.996,2.677-2.986,4.583c-0.51,0.475-0.898,0.848-1.168,1.117l-1.08,1.038h4.014c0.023-0.255,0.092-0.449,0.207-0.582
		c0.113-0.133,0.268-0.2,0.461-0.2s0.346,0.064,0.457,0.193c0.109,0.129,0.166,0.305,0.166,0.527c0,0.018-0.004,0.048-0.01,0.092
		s-0.008,0.075-0.008,0.092l-0.07,0.677c-0.018,0.182-0.07,0.324-0.158,0.426s-0.201,0.154-0.342,0.154H648.715z"/>
	<path d="M659.281,10.777c-0.012,0.439-0.064,0.719-0.154,0.839c-0.092,0.12-0.268,0.18-0.531,0.18
		c-0.205,0-0.359-0.054-0.461-0.163c-0.104-0.108-0.154-0.268-0.154-0.479c0.012-0.182,0.018-0.319,0.018-0.413l0.088-2.9
		c0.012-0.217,0.07-0.374,0.176-0.47s0.27-0.145,0.492-0.145h7.633c0.223,0,0.387,0.048,0.492,0.145s0.16,0.253,0.166,0.47
		l0.098,2.9c0,0.105,0.002,0.205,0.008,0.299s0.01,0.138,0.01,0.132c0,0.211-0.057,0.368-0.168,0.47s-0.277,0.154-0.5,0.154
		c-0.234,0-0.396-0.06-0.484-0.18s-0.137-0.4-0.148-0.839l-0.088-2.285h-2.521v7.919h1.354h0.342c0.246,0,0.426,0.048,0.537,0.145
		s0.166,0.25,0.166,0.461c0,0.205-0.053,0.362-0.158,0.47s-0.258,0.163-0.457,0.163h-4.928c-0.199,0-0.352-0.054-0.457-0.163
		s-0.156-0.265-0.156-0.47c0-0.217,0.057-0.372,0.17-0.466c0.115-0.094,0.309-0.141,0.584-0.141h0.291h1.352V8.492h-2.52
		L659.281,10.777z"/>
	<path d="M671.262,8.22c-0.076,0.012-0.133,0.021-0.17,0.026c-0.039,0.006-0.072,0.009-0.102,0.009c-0.182,0-0.33-0.051-0.443-0.154
		c-0.115-0.103-0.172-0.239-0.172-0.409c0-0.141,0.049-0.264,0.148-0.369s0.244-0.185,0.432-0.237l2.607-0.703
		c0.064-0.018,0.129-0.031,0.189-0.04c0.062-0.009,0.125-0.013,0.189-0.013c0.111,0,0.199,0.051,0.264,0.154
		s0.096,0.242,0.096,0.417v9.51h1.406c0.521,0,0.852,0.042,0.992,0.127s0.211,0.245,0.211,0.479c0,0.211-0.059,0.369-0.176,0.475
		s-0.293,0.158-0.527,0.158h-5.252c-0.234,0-0.41-0.053-0.527-0.158s-0.176-0.264-0.176-0.475c0-0.234,0.07-0.394,0.211-0.479
		s0.471-0.127,0.992-0.127h1.459V7.824L671.262,8.22z"/>
	<path d="M682.057,8.22c-0.076,0.012-0.133,0.021-0.17,0.026c-0.039,0.006-0.072,0.009-0.102,0.009c-0.182,0-0.33-0.051-0.443-0.154
		c-0.115-0.103-0.172-0.239-0.172-0.409c0-0.141,0.049-0.264,0.148-0.369s0.244-0.185,0.432-0.237l2.607-0.703
		c0.064-0.018,0.129-0.031,0.189-0.04c0.062-0.009,0.125-0.013,0.189-0.013c0.111,0,0.199,0.051,0.264,0.154
		s0.096,0.242,0.096,0.417v9.51h1.406c0.521,0,0.852,0.042,0.992,0.127s0.211,0.245,0.211,0.479c0,0.211-0.059,0.369-0.176,0.475
		s-0.293,0.158-0.527,0.158h-5.252c-0.234,0-0.41-0.053-0.527-0.158s-0.176-0.264-0.176-0.475c0-0.234,0.07-0.394,0.211-0.479
		s0.471-0.127,0.992-0.127h1.459V7.824L682.057,8.22z"/>
	<path d="M693.23,11.349c0-0.457,0.158-0.832,0.479-1.125c0.318-0.293,0.732-0.439,1.242-0.439c0.521,0,0.939,0.144,1.256,0.431
		s0.475,0.665,0.475,1.134s-0.16,0.847-0.479,1.134c-0.32,0.287-0.736,0.431-1.252,0.431s-0.932-0.144-1.248-0.431
		C693.389,12.195,693.23,11.817,693.23,11.349z M693.23,16.209c0-0.457,0.158-0.832,0.479-1.125
		c0.318-0.293,0.732-0.439,1.242-0.439c0.521,0,0.939,0.144,1.256,0.431s0.475,0.665,0.475,1.134s-0.16,0.847-0.479,1.134
		c-0.32,0.287-0.736,0.431-1.252,0.431s-0.932-0.144-1.248-0.431C693.389,17.056,693.23,16.678,693.23,16.209z"/>
	<path d="M702.689,17.65c-0.311,0-0.541-0.063-0.689-0.189s-0.225-0.321-0.225-0.584c0-0.381,0.562-1.096,1.688-2.145l0.254-0.246
		c0.17-0.164,0.416-0.398,0.738-0.703c2.025-1.91,3.039-3.302,3.039-4.175c0-0.627-0.18-1.135-0.535-1.525
		c-0.357-0.39-0.82-0.584-1.389-0.584c-0.369,0-0.721,0.076-1.059,0.229c-0.336,0.152-0.607,0.357-0.812,0.615
		c-0.035,0.047-0.09,0.126-0.166,0.237c-0.217,0.393-0.461,0.589-0.73,0.589c-0.209,0-0.359-0.064-0.447-0.193
		s-0.131-0.375-0.131-0.738c0-0.211,0.02-0.365,0.061-0.461s0.117-0.201,0.229-0.312c0.375-0.363,0.84-0.652,1.393-0.866
		s1.119-0.321,1.699-0.321c0.973,0,1.785,0.314,2.438,0.941s0.979,1.398,0.979,2.313c0,1.149-0.994,2.677-2.986,4.583
		c-0.508,0.475-0.898,0.848-1.168,1.117l-1.08,1.038h4.014c0.023-0.255,0.094-0.449,0.207-0.582c0.115-0.133,0.268-0.2,0.461-0.2
		s0.346,0.064,0.457,0.193s0.166,0.305,0.166,0.527c0,0.018-0.002,0.048-0.008,0.092s-0.01,0.075-0.01,0.092l-0.07,0.677
		c-0.016,0.182-0.068,0.324-0.156,0.426s-0.203,0.154-0.344,0.154H702.689z"/>
	<path d="M717.912,11.604c0.684,0.188,1.215,0.529,1.594,1.024c0.377,0.495,0.566,1.1,0.566,1.815c0,1.025-0.363,1.865-1.09,2.518
		s-1.666,0.98-2.818,0.98c-0.891,0-1.684-0.171-2.377-0.514s-1.041-0.719-1.041-1.129c0-0.176,0.062-0.321,0.189-0.435
		c0.125-0.114,0.279-0.171,0.461-0.171c0.1,0,0.461,0.149,1.084,0.448c0.625,0.299,1.205,0.448,1.744,0.448
		c0.697,0,1.264-0.199,1.699-0.598c0.438-0.398,0.654-0.914,0.654-1.547c0-0.521-0.15-0.962-0.451-1.323
		c-0.303-0.36-0.717-0.59-1.244-0.69c-0.158-0.029-0.365-0.053-0.623-0.07c-0.492-0.029-0.738-0.234-0.738-0.615
		c0-0.346,0.24-0.548,0.721-0.606c0.188-0.018,0.344-0.038,0.465-0.062c0.457-0.07,0.826-0.258,1.107-0.562s0.422-0.674,0.422-1.107
		c0-0.557-0.172-1.011-0.518-1.362s-0.785-0.527-1.318-0.527c-0.492,0-0.996,0.152-1.516,0.457
		c-0.518,0.305-0.842,0.457-0.971,0.457c-0.164,0-0.299-0.053-0.408-0.158c-0.107-0.105-0.162-0.237-0.162-0.396
		c0-0.357,0.328-0.713,0.984-1.068c0.654-0.354,1.381-0.532,2.178-0.532c0.914,0,1.674,0.277,2.279,0.831s0.91,1.235,0.91,2.043
		c0,0.615-0.146,1.122-0.436,1.521S718.52,11.381,717.912,11.604z"/>
	<path d="M725.615,11.349c0-0.457,0.158-0.832,0.479-1.125c0.318-0.293,0.732-0.439,1.242-0.439c0.521,0,0.939,0.144,1.256,0.431
		s0.475,0.665,0.475,1.134s-0.16,0.847-0.479,1.134c-0.32,0.287-0.736,0.431-1.252,0.431s-0.932-0.144-1.248-0.431
		C725.773,12.195,725.615,11.817,725.615,11.349z M725.615,16.209c0-0.457,0.158-0.832,0.479-1.125
		c0.318-0.293,0.732-0.439,1.242-0.439c0.521,0,0.939,0.144,1.256,0.431s0.475,0.665,0.475,1.134s-0.16,0.847-0.479,1.134
		c-0.32,0.287-0.736,0.431-1.252,0.431s-0.932-0.144-1.248-0.431C725.773,17.056,725.615,16.678,725.615,16.209z"/>
	<path d="M737.92,17.65c-0.281,0-0.471-0.045-0.57-0.136s-0.15-0.256-0.15-0.497c0-0.211,0.053-0.365,0.154-0.461
		s0.268-0.145,0.496-0.145h1.02v-1.477h-4.102c-0.146,0-0.262-0.047-0.344-0.141s-0.123-0.229-0.123-0.404v-0.606
		c0-0.234,0.086-0.48,0.256-0.738c0.029-0.047,0.053-0.085,0.07-0.114l3.705-6.293c0.082-0.146,0.15-0.24,0.203-0.281
		s0.123-0.062,0.211-0.062c0.035,0,0.096,0.006,0.184,0.018c0.023,0.006,0.047,0.012,0.07,0.018l0.896,0.141
		c0.082,0.012,0.148,0.057,0.197,0.136c0.051,0.079,0.074,0.183,0.074,0.312v6.68h0.449c0.129,0,0.229-0.051,0.299-0.154
		s0.148-0.154,0.236-0.154c0.117,0,0.217,0.044,0.299,0.132s0.123,0.196,0.123,0.325c0,0.053-0.004,0.101-0.01,0.145
		s-0.018,0.089-0.035,0.136l-0.07,0.36c-0.041,0.211-0.1,0.354-0.18,0.431c-0.078,0.076-0.203,0.114-0.373,0.114h-0.738v1.477h0.309
		c0.375,0,0.633,0.045,0.773,0.136c0.139,0.091,0.209,0.248,0.209,0.47c0,0.211-0.059,0.369-0.174,0.475
		c-0.117,0.105-0.293,0.158-0.527,0.158H737.92z M738.869,13.599V7.64l-3.33,5.959H738.869z"/>
	<path d="M748.717,17.65c-0.281,0-0.473-0.045-0.572-0.136s-0.148-0.256-0.148-0.497c0-0.211,0.051-0.365,0.154-0.461
		c0.102-0.097,0.268-0.145,0.496-0.145h1.018v-1.477h-4.102c-0.146,0-0.26-0.047-0.342-0.141s-0.123-0.229-0.123-0.404v-0.606
		c0-0.234,0.084-0.48,0.254-0.738c0.029-0.047,0.053-0.085,0.07-0.114l3.707-6.293c0.082-0.146,0.148-0.24,0.201-0.281
		s0.123-0.062,0.211-0.062c0.035,0,0.098,0.006,0.186,0.018c0.023,0.006,0.047,0.012,0.07,0.018l0.895,0.141
		c0.082,0.012,0.148,0.057,0.199,0.136c0.049,0.079,0.074,0.183,0.074,0.312v6.68h0.447c0.129,0,0.229-0.051,0.299-0.154
		s0.15-0.154,0.238-0.154c0.117,0,0.215,0.044,0.297,0.132s0.123,0.196,0.123,0.325c0,0.053-0.002,0.101-0.008,0.145
		s-0.018,0.089-0.035,0.136l-0.07,0.36c-0.041,0.211-0.102,0.354-0.18,0.431c-0.08,0.076-0.203,0.114-0.373,0.114h-0.738v1.477
		h0.307c0.375,0,0.633,0.045,0.773,0.136s0.211,0.248,0.211,0.47c0,0.211-0.059,0.369-0.176,0.475s-0.293,0.158-0.527,0.158H748.717
		z M749.664,13.599V7.64l-3.328,5.959H749.664z"/>
	<path d="M760.371,11.454h3.189c0.199,0,0.363,0.064,0.496,0.193c0.131,0.129,0.197,0.287,0.197,0.475s-0.064,0.34-0.193,0.457
		s-0.295,0.176-0.5,0.176h-3.189v3.296c0,0.211-0.059,0.381-0.176,0.51s-0.275,0.193-0.473,0.193c-0.176,0-0.33-0.07-0.463-0.211
		c-0.131-0.141-0.197-0.305-0.197-0.492v-3.296h-3.17c-0.205,0-0.373-0.059-0.506-0.176c-0.131-0.117-0.197-0.27-0.197-0.457
		c0-0.176,0.07-0.331,0.211-0.466s0.305-0.202,0.492-0.202h3.17V8.167c0-0.211,0.062-0.381,0.186-0.51s0.281-0.193,0.475-0.193
		c0.197,0,0.355,0.064,0.473,0.193s0.176,0.299,0.176,0.51V11.454z"/>
	<path d="M770.518,17.94c-1.102,0-1.977-0.52-2.623-1.56s-0.971-2.465-0.971-4.276c0-1.805,0.324-3.227,0.971-4.267
		s1.521-1.56,2.623-1.56c1.1,0,1.975,0.521,2.625,1.564s0.975,2.464,0.975,4.263s-0.324,3.221-0.975,4.267
		S771.617,17.94,770.518,17.94z M770.518,7.534c-0.674,0-1.199,0.399-1.572,1.197c-0.375,0.797-0.562,1.923-0.562,3.378
		c0,1.46,0.188,2.591,0.562,3.392c0.373,0.8,0.898,1.201,1.572,1.201c0.678,0,1.205-0.4,1.58-1.201
		c0.375-0.801,0.562-1.931,0.562-3.392c0-1.455-0.188-2.581-0.562-3.378C771.723,7.933,771.195,7.534,770.518,7.534z"/>
	<path d="M778.256,17.65c-0.311,0-0.541-0.063-0.691-0.189c-0.148-0.126-0.223-0.321-0.223-0.584c0-0.381,0.562-1.096,1.686-2.145
		l0.256-0.246c0.17-0.164,0.416-0.398,0.736-0.703c2.027-1.91,3.039-3.302,3.039-4.175c0-0.627-0.178-1.135-0.535-1.525
		s-0.82-0.584-1.387-0.584c-0.369,0-0.723,0.076-1.059,0.229c-0.338,0.152-0.607,0.357-0.812,0.615
		c-0.035,0.047-0.092,0.126-0.168,0.237c-0.217,0.393-0.459,0.589-0.729,0.589c-0.211,0-0.359-0.064-0.447-0.193
		s-0.133-0.375-0.133-0.738c0-0.211,0.021-0.365,0.062-0.461s0.117-0.201,0.229-0.312c0.373-0.363,0.838-0.652,1.391-0.866
		c0.555-0.214,1.121-0.321,1.701-0.321c0.971,0,1.783,0.314,2.438,0.941c0.652,0.627,0.979,1.398,0.979,2.313
		c0,1.149-0.996,2.677-2.986,4.583c-0.51,0.475-0.898,0.848-1.168,1.117l-1.08,1.038h4.014c0.023-0.255,0.092-0.449,0.207-0.582
		c0.113-0.133,0.268-0.2,0.461-0.2s0.346,0.064,0.457,0.193c0.109,0.129,0.166,0.305,0.166,0.527c0,0.018-0.004,0.048-0.01,0.092
		s-0.008,0.075-0.008,0.092l-0.07,0.677c-0.018,0.182-0.07,0.324-0.158,0.426s-0.201,0.154-0.342,0.154H778.256z"/>
	<path d="M790.385,11.349c0-0.457,0.16-0.832,0.479-1.125c0.32-0.293,0.734-0.439,1.244-0.439c0.52,0,0.939,0.144,1.256,0.431
		s0.473,0.665,0.473,1.134s-0.158,0.847-0.479,1.134c-0.318,0.287-0.736,0.431-1.25,0.431c-0.516,0-0.932-0.144-1.248-0.431
		S790.385,11.817,790.385,11.349z M790.385,16.209c0-0.457,0.16-0.832,0.479-1.125c0.32-0.293,0.734-0.439,1.244-0.439
		c0.52,0,0.939,0.144,1.256,0.431s0.473,0.665,0.473,1.134s-0.158,0.847-0.479,1.134c-0.318,0.287-0.736,0.431-1.25,0.431
		c-0.516,0-0.932-0.144-1.248-0.431S790.385,16.678,790.385,16.209z"/>
	<path d="M802.902,17.94c-1.102,0-1.977-0.52-2.623-1.56s-0.971-2.465-0.971-4.276c0-1.805,0.324-3.227,0.971-4.267
		s1.521-1.56,2.623-1.56c1.1,0,1.975,0.521,2.625,1.564s0.975,2.464,0.975,4.263s-0.324,3.221-0.975,4.267
		S804.002,17.94,802.902,17.94z M802.902,7.534c-0.674,0-1.199,0.399-1.572,1.197c-0.375,0.797-0.562,1.923-0.562,3.378
		c0,1.46,0.188,2.591,0.562,3.392c0.373,0.8,0.898,1.201,1.572,1.201c0.678,0,1.205-0.4,1.58-1.201
		c0.375-0.801,0.562-1.931,0.562-3.392c0-1.455-0.188-2.581-0.562-3.378C804.107,7.933,803.58,7.534,802.902,7.534z"/>
	<path d="M813.697,17.94c-1.102,0-1.977-0.52-2.623-1.56s-0.971-2.465-0.971-4.276c0-1.805,0.324-3.227,0.971-4.267
		s1.521-1.56,2.623-1.56c1.1,0,1.975,0.521,2.625,1.564s0.975,2.464,0.975,4.263s-0.324,3.221-0.975,4.267
		S814.797,17.94,813.697,17.94z M813.697,7.534c-0.674,0-1.199,0.399-1.572,1.197c-0.375,0.797-0.562,1.923-0.562,3.378
		c0,1.46,0.188,2.591,0.562,3.392c0.373,0.8,0.898,1.201,1.572,1.201c0.678,0,1.205-0.4,1.58-1.201
		c0.375-0.801,0.562-1.931,0.562-3.392c0-1.455-0.188-2.581-0.562-3.378C814.902,7.933,814.375,7.534,813.697,7.534z"/>
</g>
<g>
	<line fill="none" stroke="#000000" stroke-width="0.5" x1="16.493" y1="31.693" x2="55.931" y2="31.693"/>
	<path fill="none" stroke="#000000" stroke-width="0.5" d="M66.299,21.325c0,5.731-4.638,10.369-10.369,10.369"/>
	<path fill="none" stroke="#000000" stroke-width="0.5" d="M6.124,21.325c0,5.731,4.638,10.369,10.369,10.369"/>
</g>
<g>
	<line fill="none" stroke="#000000" stroke-width="0.5" x1="79.866" y1="31.945" x2="255.015" y2="31.945"/>
	<path fill="none" stroke="#000000" stroke-width="0.5" d="M265.383,21.576c0,5.73-1.972,10.369-10.369,10.369"/>
	<path fill="none" stroke="#000000" stroke-width="0.5" d="M69.497,21.576c0,5.73,4.638,10.369,10.369,10.369"/>
</g>
<g>
	<line fill="none" stroke="#000000" stroke-width="0.5" x1="280.107" y1="31.945" x2="412.895" y2="31.945"/>
	<path fill="none" stroke="#000000" stroke-width="0.5" d="M423.263,21.576c0,5.73-4.637,10.369-10.368,10.369"/>
	<path fill="none" stroke="#000000" stroke-width="0.5" d="M269.738,21.576c0,5.73,4.638,10.369,10.369,10.369"/>
</g>
<line fill="none" stroke="#000000" stroke-width="0.5" x1="437.353" y1="32.215" x2="806.747" y2="32.215"/>
<path fill="none" stroke="#000000" stroke-width="0.5" d="M817.115,21.845c0,5.73-4.637,10.369-10.368,10.369"/>
<path fill="none" stroke="#000000" stroke-width="0.5" d="M426.987,21.846c0,5.73,4.638,10.369,10.368,10.369"/>
<g>
	<path d="M16.495,48.693c-0.02,0.176-0.064,0.298-0.135,0.366s-0.182,0.103-0.334,0.103c-0.164,0-0.286-0.048-0.366-0.144
		s-0.126-0.251-0.138-0.466l-0.076-1.359v-0.105c0-0.188,0.036-0.32,0.108-0.398s0.192-0.117,0.36-0.117
		c0.234,0,0.402,0.168,0.504,0.504c0.047,0.168,0.092,0.295,0.135,0.381c0.137,0.273,0.353,0.484,0.647,0.633
		s0.647,0.223,1.058,0.223c0.504,0,0.913-0.119,1.228-0.357s0.472-0.543,0.472-0.914c0-0.309-0.097-0.557-0.29-0.744
		s-0.476-0.309-0.847-0.363l-0.867-0.117c-0.809-0.113-1.398-0.326-1.77-0.639s-0.557-0.752-0.557-1.318
		c0-0.598,0.247-1.1,0.741-1.506s1.11-0.609,1.849-0.609c0.215,0,0.441,0.028,0.68,0.085s0.508,0.146,0.809,0.267
		c0.008-0.113,0.039-0.191,0.094-0.234s0.148-0.064,0.281-0.064c0.172,0,0.291,0.025,0.357,0.076s0.107,0.172,0.123,0.363
		l0.082,1.225v0.059c0,0.137-0.039,0.243-0.117,0.319s-0.188,0.114-0.328,0.114c-0.207,0-0.367-0.145-0.48-0.434
		c-0.055-0.164-0.109-0.287-0.164-0.369c-0.129-0.195-0.314-0.346-0.557-0.451s-0.518-0.158-0.826-0.158
		c-0.473,0-0.856,0.117-1.151,0.352s-0.442,0.541-0.442,0.92c0,0.297,0.11,0.531,0.331,0.703s0.558,0.289,1.011,0.352l0.938,0.117
		c0.68,0.09,1.191,0.298,1.535,0.624s0.516,0.767,0.516,1.321c0,0.656-0.244,1.183-0.732,1.579s-1.141,0.595-1.957,0.595
		c-0.281,0-0.561-0.033-0.838-0.1S16.808,48.834,16.495,48.693z"/>
	<path d="M27.171,43.836v-0.023c0-0.129,0.037-0.224,0.111-0.284s0.189-0.091,0.346-0.091c0.16,0,0.271,0.047,0.331,0.141
		s0.091,0.287,0.091,0.58v1.09c0,0.145-0.037,0.253-0.111,0.325s-0.186,0.108-0.334,0.108c-0.105,0-0.196-0.03-0.272-0.091
		s-0.169-0.187-0.278-0.378c-0.188-0.316-0.415-0.556-0.683-0.718s-0.575-0.243-0.923-0.243c-0.609,0-1.104,0.18-1.485,0.539
		s-0.571,0.824-0.571,1.395c0,0.582,0.183,1.058,0.548,1.427s0.835,0.554,1.409,0.554c0.262,0,0.511-0.036,0.747-0.108
		s0.46-0.181,0.671-0.325c0.074-0.047,0.174-0.119,0.299-0.217c0.254-0.207,0.453-0.311,0.598-0.311c0.121,0,0.22,0.038,0.296,0.114
		s0.114,0.175,0.114,0.296c0,0.309-0.292,0.624-0.876,0.946s-1.204,0.483-1.86,0.483c-0.848,0-1.554-0.271-2.118-0.814
		s-0.847-1.221-0.847-2.033s0.281-1.491,0.844-2.036s1.266-0.817,2.109-0.817c0.297,0,0.595,0.04,0.894,0.12
		S26.835,43.668,27.171,43.836z"/>
	<path d="M30.405,48.072v-6h-0.111c-0.266,0-0.448-0.031-0.548-0.094s-0.149-0.172-0.149-0.328c0-0.141,0.04-0.246,0.12-0.316
		s0.196-0.105,0.349-0.105h0.891c0.105,0,0.188,0.021,0.246,0.064s0.088,0.102,0.088,0.176v2.654
		c0.285-0.266,0.567-0.462,0.847-0.589s0.569-0.19,0.87-0.19c0.59,0,1.054,0.184,1.392,0.551s0.507,0.875,0.507,1.523v2.654h0.277
		c0.197,0,0.338,0.032,0.425,0.097s0.13,0.167,0.13,0.308s-0.039,0.246-0.118,0.316c-0.078,0.07-0.196,0.105-0.352,0.105h-1.562
		c-0.184,0-0.308-0.03-0.373-0.091c-0.064-0.061-0.097-0.171-0.097-0.331c0-0.156,0.04-0.263,0.121-0.319
		c0.081-0.057,0.233-0.085,0.458-0.085h0.207v-2.438c0-0.457-0.104-0.806-0.312-1.046c-0.207-0.24-0.509-0.36-0.904-0.36
		c-0.403,0-0.757,0.135-1.06,0.404c-0.304,0.27-0.455,0.604-0.455,1.002v2.438h0.205c0.234,0,0.393,0.029,0.475,0.088
		s0.123,0.164,0.123,0.316c0,0.16-0.032,0.271-0.097,0.331s-0.188,0.091-0.372,0.091h-1.559c-0.152,0-0.267-0.035-0.343-0.105
		s-0.114-0.176-0.114-0.316c0-0.156,0.046-0.263,0.138-0.319s0.271-0.085,0.536-0.085H30.405z"/>
	<path d="M37.829,46.449c0.031,0.564,0.222,1,0.571,1.308s0.827,0.461,1.433,0.461c0.457,0,0.955-0.122,1.494-0.366
		s0.865-0.366,0.979-0.366c0.117,0,0.215,0.037,0.293,0.111s0.117,0.166,0.117,0.275c0,0.113-0.041,0.217-0.123,0.31
		c-0.082,0.094-0.213,0.185-0.393,0.274c-0.391,0.19-0.794,0.335-1.21,0.436c-0.416,0.101-0.829,0.151-1.239,0.151
		c-0.891,0-1.604-0.257-2.139-0.771s-0.803-1.194-0.803-2.042c0-0.863,0.283-1.562,0.85-2.098s1.305-0.803,2.215-0.803
		c0.824,0,1.508,0.25,2.051,0.75s0.814,1.105,0.814,1.816c0,0.219-0.046,0.365-0.138,0.439s-0.341,0.111-0.747,0.111h-0.088H37.829z
		 M37.858,45.682h3.814c-0.059-0.465-0.253-0.839-0.583-1.122s-0.735-0.425-1.216-0.425c-0.52,0-0.957,0.137-1.312,0.41
		S37.972,45.197,37.858,45.682z"/>
	<path d="M49.185,45.635c0-0.551-0.05-0.923-0.149-1.116s-0.27-0.29-0.511-0.29c-0.288,0-0.517,0.125-0.686,0.375
		s-0.254,0.594-0.254,1.031v2.438h0.104c0.236,0,0.394,0.028,0.474,0.085s0.119,0.163,0.119,0.319c0,0.141-0.033,0.246-0.1,0.316
		s-0.168,0.105-0.305,0.105h-0.744c-0.168,0-0.282-0.039-0.343-0.117S46.7,48.535,46.7,48.277v-0.17v-2.473v-0.457
		c0-0.293-0.066-0.524-0.199-0.694s-0.314-0.255-0.545-0.255c-0.176,0-0.337,0.052-0.483,0.155s-0.272,0.257-0.378,0.46v3.229h0.215
		c0.232,0,0.39,0.029,0.471,0.088s0.122,0.164,0.122,0.316c0,0.16-0.033,0.271-0.1,0.331c-0.066,0.061-0.193,0.091-0.38,0.091
		h-1.555c-0.152,0-0.264-0.034-0.336-0.103c-0.072-0.068-0.108-0.175-0.108-0.319c0-0.156,0.045-0.263,0.137-0.319
		c0.091-0.057,0.269-0.085,0.532-0.085h0.116v-3.762h-0.104c-0.271,0-0.457-0.031-0.556-0.093c-0.099-0.062-0.148-0.17-0.148-0.326
		c0-0.136,0.039-0.237,0.117-0.306c0.078-0.067,0.195-0.102,0.352-0.102h0.896c0.129,0,0.214,0.022,0.255,0.067
		c0.041,0.045,0.065,0.139,0.073,0.282c0.16-0.171,0.333-0.297,0.517-0.379s0.391-0.123,0.622-0.123c0.274,0,0.5,0.059,0.678,0.178
		c0.178,0.119,0.31,0.298,0.396,0.539c0.164-0.245,0.354-0.425,0.569-0.542s0.461-0.175,0.739-0.175
		c0.504,0,0.873,0.164,1.105,0.492c0.233,0.328,0.349,0.859,0.349,1.594v2.654h0.093c0.24,0,0.401,0.029,0.482,0.088
		s0.122,0.164,0.122,0.316c0,0.141-0.035,0.246-0.105,0.316s-0.174,0.105-0.311,0.105h-0.709c-0.156,0-0.271-0.047-0.346-0.141
		s-0.111-0.242-0.111-0.445V45.635z"/>
	<path d="M55.56,48.154c-0.32,0.289-0.669,0.51-1.046,0.662s-0.765,0.229-1.163,0.229c-0.582,0-1.052-0.162-1.409-0.486
		s-0.536-0.746-0.536-1.266c0-0.617,0.237-1.096,0.712-1.436s1.142-0.51,2.001-0.51c0.227,0,0.455,0.015,0.686,0.044
		s0.467,0.075,0.709,0.138v-0.041c0-0.449-0.107-0.781-0.322-0.996s-0.549-0.322-1.002-0.322c-0.305,0-0.645,0.082-1.02,0.246
		s-0.623,0.246-0.744,0.246c-0.113,0-0.207-0.046-0.281-0.138s-0.111-0.21-0.111-0.354c0-0.23,0.216-0.426,0.647-0.586
		s0.983-0.24,1.655-0.24c0.688,0,1.207,0.175,1.559,0.524s0.527,0.866,0.527,1.55v2.654h0.287c0.277,0,0.463,0.029,0.557,0.088
		s0.141,0.164,0.141,0.316c0,0.141-0.039,0.246-0.117,0.316s-0.195,0.105-0.352,0.105h-0.92c-0.109,0-0.199-0.033-0.27-0.1
		s-0.117-0.162-0.141-0.287L55.56,48.154z M55.513,46.309c-0.215-0.07-0.423-0.122-0.624-0.155s-0.401-0.05-0.601-0.05
		c-0.602,0-1.076,0.102-1.424,0.305s-0.521,0.477-0.521,0.82c0,0.266,0.108,0.484,0.325,0.656s0.493,0.258,0.829,0.258
		c0.496,0,0.956-0.13,1.38-0.39s0.636-0.53,0.636-0.812V46.309z"/>
</g>
<g>
	<path d="M155.235,46.042h0.393c0.23,0,0.393,0.031,0.486,0.094s0.141,0.166,0.141,0.311c0,0.16-0.041,0.271-0.123,0.331
		s-0.262,0.091-0.539,0.091h-1.283h-0.264c-0.145,0-0.253-0.035-0.325-0.105s-0.108-0.176-0.108-0.316
		c0-0.152,0.042-0.258,0.126-0.316s0.243-0.088,0.478-0.088h0.105v-5.279h-0.094c-0.234,0-0.396-0.031-0.483-0.094
		s-0.132-0.172-0.132-0.328c0-0.145,0.036-0.251,0.108-0.319s0.185-0.103,0.337-0.103h0.252h1.225c0.312,0,0.511,0.03,0.595,0.091
		s0.126,0.171,0.126,0.331c0,0.156-0.053,0.266-0.158,0.328s-0.305,0.094-0.598,0.094h-0.264v2.039h2.807v-2.039h-0.398
		c-0.223,0-0.382-0.033-0.478-0.1s-0.144-0.174-0.144-0.322c0-0.16,0.044-0.271,0.132-0.331s0.304-0.091,0.647-0.091h1.166h0.264
		c0.141,0,0.247,0.035,0.319,0.105s0.108,0.176,0.108,0.316c0,0.152-0.041,0.261-0.123,0.325s-0.229,0.097-0.439,0.097h-0.141v5.279
		h0.094c0.234,0,0.395,0.03,0.48,0.091s0.129,0.165,0.129,0.313c0,0.16-0.041,0.271-0.123,0.331s-0.271,0.091-0.568,0.091h-1.213
		c-0.316,0-0.518-0.03-0.604-0.091s-0.129-0.171-0.129-0.331c0-0.152,0.051-0.258,0.152-0.316s0.295-0.088,0.58-0.088h0.287v-2.438
		h-2.807V46.042z"/>
	<path d="M166.913,44.167c0,0.836-0.285,1.52-0.855,2.051s-1.311,0.797-2.221,0.797c-0.906,0-1.645-0.266-2.215-0.797
		s-0.855-1.215-0.855-2.051s0.285-1.519,0.855-2.048s1.309-0.794,2.215-0.794s1.646,0.266,2.218,0.797
		S166.913,43.334,166.913,44.167z M163.837,46.188c0.602,0,1.095-0.19,1.479-0.57s0.577-0.865,0.577-1.454s-0.193-1.076-0.58-1.46
		c-0.387-0.384-0.879-0.576-1.477-0.576s-1.089,0.192-1.474,0.576c-0.385,0.384-0.577,0.871-0.577,1.46
		c0,0.593,0.191,1.079,0.574,1.457S163.235,46.188,163.837,46.188z"/>
	<path d="M168.483,46.446v-1.043c0-0.172,0.032-0.295,0.097-0.369s0.169-0.111,0.313-0.111c0.16,0,0.287,0.109,0.381,0.328
		c0.062,0.133,0.119,0.232,0.17,0.299c0.164,0.211,0.406,0.38,0.727,0.507s0.674,0.19,1.061,0.19c0.414,0,0.746-0.084,0.996-0.252
		s0.375-0.389,0.375-0.662c0-0.277-0.101-0.475-0.302-0.592s-0.546-0.176-1.034-0.176h-0.322c-0.797,0-1.404-0.139-1.822-0.416
		s-0.627-0.68-0.627-1.207c0-0.516,0.204-0.916,0.612-1.201s0.981-0.428,1.72-0.428c0.301,0,0.607,0.042,0.92,0.126
		s0.477,0.126,0.492,0.126c0.043,0,0.125-0.038,0.246-0.114s0.24-0.114,0.357-0.114c0.133,0,0.231,0.049,0.296,0.146
		s0.097,0.244,0.097,0.439v0.686c0,0.207-0.031,0.356-0.094,0.448s-0.162,0.138-0.299,0.138c-0.117,0-0.262-0.1-0.434-0.299
		c-0.121-0.137-0.221-0.24-0.299-0.311c-0.207-0.191-0.428-0.329-0.662-0.413s-0.51-0.126-0.826-0.126
		c-0.367,0-0.663,0.081-0.888,0.243s-0.337,0.368-0.337,0.618c0,0.246,0.115,0.422,0.346,0.527s0.727,0.166,1.488,0.182
		c0.812,0.02,1.406,0.161,1.781,0.425s0.562,0.671,0.562,1.222c0,0.527-0.207,0.949-0.621,1.266s-0.973,0.475-1.676,0.475
		c-0.223,0-0.471-0.021-0.744-0.062s-0.617-0.11-1.031-0.208c-0.137,0.09-0.254,0.157-0.352,0.202s-0.18,0.067-0.246,0.067
		c-0.137,0-0.241-0.048-0.313-0.144S168.483,46.625,168.483,46.446z"/>
	<path d="M179.839,41.782c0.191,0,0.331,0.033,0.419,0.1s0.132,0.172,0.132,0.316c0,0.137-0.041,0.239-0.123,0.308
		s-0.205,0.103-0.369,0.103h-2.373v1.957c0,0.641,0.083,1.062,0.249,1.266s0.45,0.305,0.853,0.305c0.355,0,0.781-0.104,1.277-0.311
		s0.803-0.311,0.92-0.311c0.109,0,0.202,0.039,0.278,0.117s0.114,0.174,0.114,0.287c0,0.129-0.048,0.241-0.144,0.337
		s-0.259,0.188-0.489,0.278c-0.383,0.152-0.728,0.264-1.034,0.334s-0.595,0.105-0.864,0.105c-0.457,0-0.841-0.073-1.151-0.22
		s-0.542-0.364-0.694-0.653c-0.078-0.137-0.134-0.299-0.167-0.486s-0.05-0.477-0.05-0.867v-0.182v-1.957h-0.996
		c-0.164,0-0.283-0.032-0.357-0.097s-0.111-0.169-0.111-0.313c0-0.16,0.051-0.27,0.152-0.328s0.318-0.088,0.65-0.088h0.662v-1.201
		V40.27c0-0.168,0.036-0.292,0.108-0.372s0.185-0.12,0.337-0.12c0.172,0,0.291,0.049,0.357,0.146s0.1,0.32,0.1,0.668v1.189H179.839z
		"/>
</g>
<g>
	<path d="M335.937,46.042c0.191,0,0.33,0.032,0.416,0.097s0.129,0.167,0.129,0.308c0,0.156-0.041,0.266-0.123,0.328
		s-0.238,0.094-0.469,0.094h-2.865c-0.133,0-0.234-0.036-0.305-0.108s-0.105-0.177-0.105-0.313s0.034-0.238,0.103-0.305
		s0.175-0.1,0.319-0.1h0.756v-5.279h-0.41c-0.344,0-0.558-0.03-0.642-0.091s-0.126-0.171-0.126-0.331
		c0-0.137,0.035-0.241,0.105-0.313s0.172-0.108,0.305-0.108h2.713c0.949,0,1.67,0.184,2.162,0.551s0.738,0.908,0.738,1.623
		s-0.244,1.254-0.732,1.617s-1.211,0.545-2.168,0.545h-1.025v1.787H335.937z M334.712,40.763v2.719h1.096
		c0.613,0,1.072-0.113,1.377-0.34s0.457-0.568,0.457-1.025c0-0.449-0.153-0.787-0.46-1.014s-0.765-0.34-1.374-0.34H334.712z"/>
	<path d="M344.702,46.03c0.16,0,0.282,0.035,0.366,0.105s0.126,0.174,0.126,0.311c0,0.141-0.04,0.246-0.12,0.316
		s-0.196,0.105-0.349,0.105h-3.832c-0.16,0-0.282-0.035-0.366-0.105s-0.126-0.176-0.126-0.316c0-0.137,0.04-0.24,0.12-0.311
		s0.196-0.105,0.349-0.105h0.996v-3.58h-0.961c-0.16,0-0.284-0.037-0.372-0.111s-0.132-0.18-0.132-0.316
		c0-0.141,0.041-0.246,0.123-0.316s0.201-0.105,0.357-0.105h0.926v-0.398c0-0.707,0.201-1.22,0.604-1.538s1.053-0.478,1.951-0.478
		c0.438,0,0.761,0.049,0.97,0.146s0.313,0.25,0.313,0.457c0,0.121-0.045,0.221-0.135,0.299s-0.205,0.117-0.346,0.117
		c-0.07,0-0.239-0.023-0.507-0.07s-0.497-0.07-0.688-0.07c-0.441,0-0.758,0.093-0.949,0.278s-0.287,0.493-0.287,0.923v0.334h2.074
		c0.16,0,0.282,0.035,0.366,0.105s0.126,0.176,0.126,0.316c0,0.133-0.043,0.237-0.129,0.313s-0.203,0.114-0.352,0.114h-2.027v3.58
		H344.702z"/>
	<path d="M351.446,46.124c-0.32,0.289-0.669,0.51-1.046,0.662s-0.765,0.229-1.163,0.229c-0.582,0-1.052-0.162-1.409-0.486
		s-0.536-0.746-0.536-1.266c0-0.617,0.237-1.096,0.712-1.436s1.142-0.51,2.001-0.51c0.227,0,0.455,0.015,0.686,0.044
		s0.467,0.075,0.709,0.138v-0.041c0-0.449-0.107-0.781-0.322-0.996s-0.549-0.322-1.002-0.322c-0.305,0-0.645,0.082-1.02,0.246
		s-0.623,0.246-0.744,0.246c-0.113,0-0.207-0.046-0.281-0.138s-0.111-0.21-0.111-0.354c0-0.23,0.216-0.426,0.647-0.586
		s0.983-0.24,1.655-0.24c0.688,0,1.207,0.175,1.559,0.524s0.527,0.866,0.527,1.55v2.654h0.287c0.277,0,0.463,0.029,0.557,0.088
		s0.141,0.164,0.141,0.316c0,0.141-0.039,0.246-0.117,0.316s-0.195,0.105-0.352,0.105h-0.92c-0.109,0-0.199-0.033-0.27-0.1
		s-0.117-0.162-0.141-0.287L351.446,46.124z M351.399,44.278c-0.215-0.07-0.423-0.122-0.624-0.155s-0.401-0.05-0.601-0.05
		c-0.602,0-1.076,0.102-1.424,0.305s-0.521,0.477-0.521,0.82c0,0.266,0.108,0.484,0.325,0.656s0.493,0.258,0.829,0.258
		c0.496,0,0.956-0.13,1.38-0.39s0.636-0.53,0.636-0.812V44.278z"/>
	<path d="M359.063,46.868c-0.082,0-0.14-0.021-0.173-0.062s-0.05-0.12-0.05-0.237v-0.48c-0.234,0.293-0.527,0.521-0.879,0.683
		s-0.732,0.243-1.143,0.243c-0.738,0-1.356-0.263-1.854-0.788s-0.747-1.179-0.747-1.96c0-0.809,0.266-1.481,0.797-2.019
		s1.193-0.806,1.986-0.806c0.402,0,0.764,0.071,1.084,0.214s0.596,0.353,0.826,0.63v-2.244h-0.311c-0.34,0-0.56-0.03-0.659-0.091
		s-0.149-0.171-0.149-0.331c0-0.141,0.04-0.246,0.12-0.316s0.196-0.105,0.349-0.105h1.201c0.117,0,0.202,0.02,0.255,0.059
		s0.079,0.1,0.079,0.182v6.604h0.264c0.191,0,0.33,0.032,0.416,0.097s0.129,0.167,0.129,0.308c0,0.133-0.037,0.236-0.111,0.311
		s-0.174,0.111-0.299,0.111H359.063z M355.226,44.237c0,0.539,0.174,0.98,0.521,1.324s0.789,0.516,1.324,0.516
		c0.539,0,0.982-0.179,1.33-0.536s0.521-0.812,0.521-1.362c0-0.543-0.173-0.99-0.519-1.342s-0.79-0.527-1.333-0.527
		c-0.551,0-0.996,0.178-1.336,0.533S355.226,43.663,355.226,44.237z"/>
</g>
<g>
	<path d="M547.519,44.574c-0.68-0.195-1.224-0.61-1.632-1.245s-0.612-1.38-0.612-2.235c0-1.031,0.305-1.897,0.914-2.599
		s1.359-1.052,2.25-1.052c0.898,0,1.651,0.352,2.259,1.055s0.911,1.572,0.911,2.607c0,1.078-0.295,1.947-0.885,2.607
		s-1.363,0.99-2.32,0.99c-0.098,0-0.173,0-0.226,0s-0.104-0.004-0.155-0.012l-0.627,0.615c0.234-0.094,0.471-0.163,0.709-0.208
		s0.486-0.067,0.744-0.067c0.172,0,0.409,0.046,0.712,0.138s0.526,0.138,0.671,0.138c0.121,0,0.267-0.036,0.437-0.108
		s0.284-0.108,0.343-0.108c0.098,0,0.182,0.042,0.252,0.126s0.105,0.183,0.105,0.296c0,0.121-0.119,0.247-0.357,0.378
		s-0.486,0.196-0.744,0.196c-0.219,0-0.532-0.064-0.94-0.193s-0.716-0.193-0.923-0.193c-0.293,0-0.604,0.07-0.935,0.211
		s-0.515,0.211-0.554,0.211c-0.086,0-0.173-0.047-0.261-0.141s-0.132-0.191-0.132-0.293c0-0.105,0.188-0.336,0.562-0.691
		C547.265,44.824,547.409,44.684,547.519,44.574z M548.438,43.924c0.641,0,1.153-0.253,1.538-0.76
		c0.385-0.506,0.577-1.193,0.577-2.062c0-0.872-0.191-1.562-0.574-2.07s-0.896-0.763-1.541-0.763c-0.641,0-1.152,0.254-1.535,0.763
		s-0.574,1.198-0.574,2.07s0.191,1.56,0.574,2.064C547.286,43.672,547.798,43.924,548.438,43.924z"/>
	<path d="M554.181,42.424c0,0.492,0.104,0.852,0.311,1.078s0.535,0.34,0.984,0.34c0.426,0,0.79-0.135,1.093-0.405
		s0.454-0.608,0.454-1.015v-2.424h-0.803c-0.152,0-0.263-0.032-0.331-0.096c-0.068-0.064-0.103-0.164-0.103-0.3
		c0-0.147,0.037-0.256,0.111-0.326c0.074-0.069,0.193-0.104,0.357-0.104h1.248c0.148,0,0.253,0.032,0.313,0.097
		s0.091,0.222,0.091,0.472v4.02h0.27c0.191,0,0.329,0.031,0.413,0.094s0.126,0.166,0.126,0.311c0,0.141-0.04,0.246-0.12,0.316
		s-0.196,0.105-0.349,0.105h-0.891c-0.105,0-0.188-0.021-0.246-0.064s-0.088-0.102-0.088-0.176v-0.398
		c-0.375,0.289-0.696,0.487-0.964,0.595s-0.55,0.161-0.847,0.161c-0.645,0-1.128-0.171-1.45-0.513s-0.483-0.859-0.483-1.552v-2.64
		h-0.123c-0.266,0-0.447-0.031-0.545-0.093s-0.146-0.17-0.146-0.326c0-0.136,0.038-0.237,0.114-0.306
		c0.076-0.067,0.194-0.102,0.354-0.102h0.885c0.137,0,0.231,0.027,0.284,0.082s0.079,0.176,0.079,0.363V42.424z"/>
	<path d="M560.86,42.137c0.031,0.564,0.222,1,0.571,1.308s0.827,0.461,1.433,0.461c0.457,0,0.955-0.122,1.494-0.366
		s0.865-0.366,0.979-0.366c0.117,0,0.215,0.037,0.293,0.111s0.117,0.166,0.117,0.275c0,0.113-0.041,0.217-0.123,0.31
		c-0.082,0.094-0.213,0.185-0.393,0.274c-0.391,0.19-0.794,0.335-1.21,0.436c-0.416,0.101-0.829,0.151-1.239,0.151
		c-0.891,0-1.604-0.257-2.139-0.771s-0.803-1.194-0.803-2.042c0-0.863,0.283-1.562,0.85-2.098s1.305-0.803,2.215-0.803
		c0.824,0,1.508,0.25,2.051,0.75s0.814,1.105,0.814,1.816c0,0.219-0.046,0.365-0.138,0.439s-0.341,0.111-0.747,0.111h-0.088H560.86z
		 M560.89,41.369h3.814c-0.059-0.465-0.253-0.839-0.583-1.122s-0.735-0.425-1.216-0.425c-0.52,0-0.957,0.137-1.312,0.41
		S561.003,40.885,560.89,41.369z"/>
	<path d="M569.468,43.76h1.945c0.152,0,0.265,0.032,0.337,0.097s0.108,0.167,0.108,0.308c0,0.16-0.034,0.271-0.103,0.331
		s-0.194,0.091-0.378,0.091h-3.832c-0.152,0-0.268-0.035-0.346-0.105s-0.117-0.176-0.117-0.316c0-0.137,0.04-0.238,0.12-0.305
		s0.204-0.1,0.372-0.1h1.02v-3.762h-0.398c-0.379,0-0.615-0.03-0.709-0.09s-0.141-0.169-0.141-0.329
		c0-0.136,0.038-0.237,0.114-0.306c0.076-0.067,0.192-0.102,0.349-0.102h1.336c0.105,0,0.186,0.021,0.24,0.062
		s0.082,0.101,0.082,0.179v0.996c0.371-0.465,0.758-0.811,1.16-1.037s0.836-0.34,1.301-0.34c0.348,0,0.629,0.07,0.844,0.209
		c0.215,0.14,0.322,0.32,0.322,0.542c0,0.144-0.054,0.271-0.161,0.383s-0.226,0.167-0.354,0.167c-0.09,0-0.241-0.06-0.454-0.179
		s-0.403-0.179-0.571-0.179c-0.305,0-0.626,0.108-0.964,0.326s-0.712,0.561-1.122,1.03V43.76z"/>
	<path d="M576.804,46.086h0.252c0.285,0,0.479,0.03,0.58,0.091s0.152,0.171,0.152,0.331c0,0.137-0.04,0.24-0.12,0.311
		s-0.196,0.105-0.349,0.105h-2.701c-0.184,0-0.312-0.031-0.384-0.094s-0.108-0.17-0.108-0.322c0-0.141,0.038-0.246,0.114-0.316
		s0.19-0.105,0.343-0.105h1.271l0.949-1.871l-2.15-4.217c-0.258,0-0.435-0.031-0.53-0.093s-0.144-0.17-0.144-0.326
		c0-0.136,0.039-0.237,0.117-0.306c0.078-0.067,0.195-0.102,0.352-0.102h1.635c0.219,0,0.365,0.03,0.439,0.09
		s0.111,0.166,0.111,0.317c0,0.155-0.049,0.264-0.146,0.326s-0.277,0.093-0.539,0.093h-0.217l1.588,3.234l1.617-3.234h-0.229
		c-0.27,0-0.455-0.031-0.557-0.093s-0.152-0.17-0.152-0.326c0-0.151,0.037-0.257,0.111-0.317s0.223-0.09,0.445-0.09h1.447
		c0.16,0,0.278,0.034,0.354,0.102c0.076,0.068,0.114,0.17,0.114,0.306c0,0.147-0.043,0.252-0.129,0.314
		c-0.086,0.062-0.238,0.097-0.457,0.104L576.804,46.086z"/>
	<path d="M582.001,42.447c-0.078,0-0.14-0.024-0.185-0.073s-0.067-0.116-0.067-0.202v-0.621c0-0.074,0.022-0.133,0.067-0.176
		s0.106-0.064,0.185-0.064h4.857c0.09,0,0.16,0.021,0.211,0.064s0.076,0.102,0.076,0.176v0.621c0,0.07-0.029,0.134-0.088,0.19
		s-0.125,0.085-0.199,0.085H582.001z"/>
	<path d="M589.935,44.381c-0.02,0.176-0.064,0.298-0.135,0.366s-0.182,0.103-0.334,0.103c-0.164,0-0.286-0.048-0.366-0.144
		s-0.126-0.251-0.138-0.466l-0.076-1.359v-0.105c0-0.188,0.036-0.32,0.108-0.398s0.192-0.117,0.36-0.117
		c0.234,0,0.402,0.168,0.504,0.504c0.047,0.168,0.092,0.295,0.135,0.381c0.137,0.273,0.353,0.484,0.647,0.633S591.288,44,591.698,44
		c0.504,0,0.913-0.119,1.228-0.357s0.472-0.543,0.472-0.914c0-0.309-0.097-0.557-0.29-0.744s-0.476-0.309-0.847-0.363l-0.867-0.117
		c-0.809-0.113-1.398-0.326-1.77-0.639s-0.557-0.752-0.557-1.318c0-0.598,0.247-1.1,0.741-1.506s1.11-0.609,1.849-0.609
		c0.215,0,0.441,0.028,0.68,0.085s0.508,0.146,0.809,0.267c0.008-0.113,0.039-0.191,0.094-0.234s0.148-0.064,0.281-0.064
		c0.172,0,0.291,0.025,0.357,0.076s0.107,0.172,0.123,0.363l0.082,1.225v0.059c0,0.137-0.039,0.243-0.117,0.319
		s-0.188,0.114-0.328,0.114c-0.207,0-0.367-0.145-0.48-0.434c-0.055-0.164-0.109-0.287-0.164-0.369
		c-0.129-0.195-0.314-0.346-0.557-0.451s-0.518-0.158-0.826-0.158c-0.473,0-0.856,0.117-1.151,0.352s-0.442,0.541-0.442,0.92
		c0,0.297,0.11,0.531,0.331,0.703s0.558,0.289,1.011,0.352l0.938,0.117c0.68,0.09,1.191,0.298,1.535,0.624s0.516,0.767,0.516,1.321
		c0,0.656-0.244,1.183-0.732,1.579s-1.141,0.595-1.957,0.595c-0.281,0-0.561-0.033-0.838-0.1S590.247,44.521,589.935,44.381z"/>
	<path d="M600.446,39.5c0.191,0,0.331,0.033,0.419,0.1s0.132,0.172,0.132,0.316c0,0.137-0.041,0.239-0.123,0.308
		s-0.205,0.103-0.369,0.103h-2.373v1.957c0,0.641,0.083,1.062,0.249,1.266s0.45,0.305,0.853,0.305c0.355,0,0.781-0.104,1.277-0.311
		s0.803-0.311,0.92-0.311c0.109,0,0.202,0.039,0.278,0.117s0.114,0.174,0.114,0.287c0,0.129-0.048,0.241-0.144,0.337
		s-0.259,0.188-0.489,0.278c-0.383,0.152-0.728,0.264-1.034,0.334s-0.595,0.105-0.864,0.105c-0.457,0-0.841-0.073-1.151-0.22
		s-0.542-0.364-0.694-0.653c-0.078-0.137-0.134-0.299-0.167-0.486s-0.05-0.477-0.05-0.867v-0.182v-1.957h-0.996
		c-0.164,0-0.283-0.032-0.357-0.097s-0.111-0.169-0.111-0.313c0-0.16,0.051-0.27,0.152-0.328s0.318-0.088,0.65-0.088h0.662v-1.201
		v-0.311c0-0.168,0.036-0.292,0.108-0.372s0.185-0.12,0.337-0.12c0.172,0,0.291,0.049,0.357,0.146s0.1,0.32,0.1,0.668V39.5H600.446z
		"/>
	<path d="M605.474,43.76h1.945c0.152,0,0.265,0.032,0.337,0.097s0.108,0.167,0.108,0.308c0,0.16-0.034,0.271-0.103,0.331
		s-0.194,0.091-0.378,0.091h-3.832c-0.152,0-0.268-0.035-0.346-0.105s-0.117-0.176-0.117-0.316c0-0.137,0.04-0.238,0.12-0.305
		s0.204-0.1,0.372-0.1h1.02v-3.762h-0.398c-0.379,0-0.615-0.03-0.709-0.09s-0.141-0.169-0.141-0.329
		c0-0.136,0.038-0.237,0.114-0.306c0.076-0.067,0.192-0.102,0.349-0.102h1.336c0.105,0,0.186,0.021,0.24,0.062
		s0.082,0.101,0.082,0.179v0.996c0.371-0.465,0.758-0.811,1.16-1.037s0.836-0.34,1.301-0.34c0.348,0,0.629,0.07,0.844,0.209
		c0.215,0.14,0.322,0.32,0.322,0.542c0,0.144-0.054,0.271-0.161,0.383s-0.226,0.167-0.354,0.167c-0.09,0-0.241-0.06-0.454-0.179
		s-0.403-0.179-0.571-0.179c-0.305,0-0.626,0.108-0.964,0.326s-0.712,0.561-1.122,1.03V43.76z"/>
	<path d="M613.794,43.76h1.881c0.152,0,0.265,0.032,0.337,0.097s0.108,0.167,0.108,0.308c0,0.16-0.034,0.271-0.103,0.331
		s-0.194,0.091-0.378,0.091h-4.541c-0.156,0-0.273-0.035-0.352-0.105s-0.117-0.176-0.117-0.316c0-0.137,0.041-0.238,0.123-0.305
		s0.205-0.1,0.369-0.1h1.787v-3.762h-1.146c-0.161,0-0.284-0.036-0.368-0.107s-0.126-0.176-0.126-0.312s0.039-0.237,0.117-0.306
		c0.078-0.067,0.195-0.102,0.352-0.102h1.717c0.105,0,0.188,0.021,0.249,0.064s0.091,0.102,0.091,0.176V43.76z M612.71,37.484
		c0-0.422,0.038-0.688,0.114-0.797s0.239-0.164,0.489-0.164c0.242,0,0.402,0.046,0.48,0.138s0.117,0.31,0.117,0.653
		c0,0.336-0.036,0.544-0.108,0.624s-0.235,0.12-0.489,0.12c-0.25,0-0.413-0.037-0.489-0.111S612.71,37.719,612.71,37.484z"/>
	<path d="M618.271,43.76v-3.756h-0.111c-0.266,0-0.448-0.031-0.548-0.094s-0.149-0.172-0.149-0.328c0-0.145,0.041-0.249,0.123-0.313
		s0.215-0.097,0.398-0.097h0.275h0.562c0.105,0,0.188,0.021,0.246,0.064s0.088,0.102,0.088,0.176v0.398
		c0.285-0.266,0.567-0.462,0.847-0.589s0.569-0.19,0.87-0.19c0.59,0,1.054,0.184,1.392,0.551s0.507,0.875,0.507,1.523v2.654h0.277
		c0.196,0,0.339,0.032,0.425,0.097s0.13,0.167,0.13,0.308c0,0.152-0.046,0.261-0.138,0.325s-0.256,0.097-0.49,0.097h-1.299
		c-0.25,0-0.41-0.029-0.481-0.088c-0.07-0.059-0.105-0.17-0.105-0.334c0-0.152,0.042-0.258,0.124-0.316s0.238-0.088,0.467-0.088
		h0.206v-2.438c0-0.457-0.104-0.806-0.312-1.046s-0.509-0.36-0.904-0.36c-0.398,0-0.752,0.135-1.057,0.404s-0.458,0.604-0.458,1.002
		v2.438h0.205c0.234,0,0.393,0.029,0.475,0.088s0.123,0.164,0.123,0.316c0,0.164-0.035,0.275-0.105,0.334s-0.242,0.088-0.516,0.088
		h-1.066h-0.316c-0.16,0-0.28-0.034-0.36-0.103s-0.12-0.175-0.12-0.319c0-0.156,0.046-0.263,0.138-0.319s0.271-0.085,0.536-0.085
		H618.271z"/>
	<path d="M630.036,44.275c0,0.547-0.027,0.935-0.083,1.163c-0.055,0.229-0.148,0.429-0.283,0.601
		c-0.22,0.289-0.527,0.509-0.922,0.659c-0.396,0.15-0.86,0.226-1.396,0.226c-0.445,0-0.771-0.043-0.976-0.129
		s-0.308-0.223-0.308-0.41c0-0.121,0.05-0.228,0.149-0.319s0.218-0.138,0.354-0.138c0.105,0,0.268,0.015,0.486,0.044
		s0.385,0.044,0.498,0.044c0.578,0,0.988-0.133,1.23-0.398s0.363-0.721,0.363-1.365v-0.709c-0.238,0.277-0.502,0.48-0.791,0.609
		s-0.621,0.193-0.996,0.193c-0.73,0-1.335-0.243-1.813-0.729s-0.718-1.103-0.718-1.849c0-0.75,0.246-1.372,0.738-1.866
		s1.102-0.741,1.828-0.741c0.301,0,0.595,0.056,0.882,0.167s0.577,0.28,0.87,0.507v-0.422c0-0.082,0.026-0.143,0.079-0.182
		s0.136-0.059,0.249-0.059h0.885c0.156,0,0.273,0.034,0.352,0.103s0.117,0.171,0.117,0.308c0,0.156-0.048,0.266-0.146,0.328
		c-0.097,0.062-0.279,0.094-0.547,0.094h-0.104V44.275z M627.487,40.039c-0.512,0-0.93,0.158-1.254,0.475s-0.486,0.727-0.486,1.23
		c0,0.496,0.162,0.903,0.486,1.222s0.742,0.478,1.254,0.478c0.508,0,0.925-0.159,1.251-0.478s0.489-0.726,0.489-1.222
		s-0.163-0.904-0.489-1.225S627.995,40.039,627.487,40.039z"/>
</g>
</svg>
